<svg xmlns="http://www.w3.org/2000/svg" viewBox="0 0 1000 1000"><style>.st0{fill:#fff8d6}.st1{fill:#e1e1e1}.st2{fill:#3888c2}.st3{fill:#34b1eb}.st6{fill:#bcdaf2}.st13{fill:#474747}.st14{fill:#616161}.st15{fill:#b9ddff}.st17{fill:#fff}.st19{fill:#f60}.st22{fill:#f9c4c8}.st23{fill:#ee4e8b}.st24{fill:#4060ab}.st25{fill:#f1759b}.st26{fill:#4670b6}.st39{fill:#f9c4c7}.st40{fill:#004e4a}.st41{fill:#008288}.st42{fill:#ef7b22}.st43{fill:#f59722}.st47{fill:#f9c5c8}.st48{fill:#616364}.st49{fill:#2f3081}.st51{fill:#4361a9}</style><g id="Background"><ellipse class="st0" cx="946.35" cy="538.81" rx="18.78" ry="19.39"/><ellipse transform="rotate(-14.28 277.731238 223.268728)" class="st0" cx="277.73" cy="223.28" rx="44.84" ry="34.77"/><path class="st0" d="M969.55 647.65c-3.46-49.16-32.12-70.6-66.13-78.37 30.41-51.55 83.83-185.74-85.12-309.11-135.52-98.96-208.6 17.76-208.6 17.76s19.54-95.58-92.1-102.06c-111.64-6.48-142.25 63.23-204.44 88.76-62.19 25.53-81.86-23.91-191.35 33.63-109.49 57.54 28.46 180.78-14.75 203.48-43.21 22.7-91.83 74.58-93.63 132.94-1.8 58.37 70.22 51.88 81.03 147.53 1.99 17.6 6.85 30.14 13.57 38.94 2.87-55.82 180.12-100.84 398.39-100.84 220.06 0 398.46 45.76 398.46 102.22 0 .18-.02.35-.03.53 44.39-39.72 69.91-101.33 64.7-175.41z"/><path class="st1" d="M506.42 720.31c-245.56 0-444.97 45.02-448.2 100.84-.03.46-.08.91-.08 1.37 0 56.45 200.7 102.22 448.27 102.22 246.8 0 447-45.48 448.24-101.69 0-.18.03-.35.03-.53.01-56.44-200.69-102.21-448.26-102.21z"/></g><g id="Earth"><path class="st2" d="M696.1 700.26c-5.9-10.4 30.35-33.81 21.83-59.8-4.58-13.96-19.45-20.67-18.04-36.07.92-10.05 7.92-14.33 5.7-18.04-3.33-5.56-21.14.66-50.31 7.59-51.19 12.17-62.34 8.68-67.4 6.65-10.2-4.11-17.46-11.14-22.42-17.59-122.43-16.73-224.27-98.09-270.01-208.58-.01 0-.01 0-.02.01-25.6 11.07-27.58 36.19-43.59 34.88 0 0-1.79-.15-22.78-11.39-2.58-23.18-5.93-28.25-8.54-28.48-7.31-.63-21.89 35.39-9.97 49.84 4.12 4.99 9.85 5.53 11.39 11.39 2.03 7.73-6.77 11.25-7.12 19.93-.56 14.17 22.36 17.47 25.63 35.6 2.26 12.49-7.13 19.2-2.85 25.63 5.14 7.71 19.65-.41 37.02 2.85 22.34 4.18 26.82 22.94 62.65 59.8 12.28 12.63 24 24.69 41.29 37.02 40.18 28.64 64.68 26.12 71.2 44.14 7.06 19.53-9.95 44.5-25.63 56.96-23.49 18.66-51.74 15.19-59.45 14.24-4.28-.53-8.34-1.34-12.24-2.44 49.53 27.79 106.64 43.65 167.47 43.65 73.6 0 141.78-23.2 197.63-62.68-11.5.52-19.26-1.28-21.44-5.11z"/><path class="st2" d="M224.44 573.06c3.14-16.03 14.03-20.85 12.1-37.02-2.3-19.34-18.86-20.82-22.43-44.14-1.83-11.95 1.47-18.43-3.92-30.97-3.33-7.74-6.66-10.12-10.68-16.38-9.07-14.14-9.06-28.56-9.61-40.94-.62-13.87-2.21-31.21-4.71-52.5-5.27 23.88-8.07 48.69-8.07 74.15 0 105.86 48 200.5 123.41 263.38-9.11-9.35-19.01-20.44-30.54-33.36-30.66-34.35-50.46-57.17-45.55-82.22z"/><path class="st3" d="M558.46 501.86c10.69-12.86 25.35-12.25 31.33-27.53 3.46-8.86-2.52-13.24.95-20.88 4.34-9.57 15.19-9.62 33.7-16.61 32.68-12.35 40.14-27.78 52.68-22.78 9.25 3.68 6.77 12.7 18.04 18.99 17.3 9.65 43.06-.52 43.19-6.17.07-2.98-6.99-4.27-6.64-7.12.42-3.56 11.54-2.9 24.21-8.07 6.22-2.54 20.31-8.29 23.73-20.41 2.74-9.72-1.77-22.16-8.07-23.73-6.88-1.72-12.16 10.42-18.51 8.54-5.58-1.65-9.54-13.38-6.64-22.78.88-2.87 2.32-5.21 4.04-7.2-3.82 1.25-7.67 2.41-11.57 3.48.49 2.63.4 5.26-1.01 7.99-3.29 6.34-9.6 5.27-10.92 10.92-1.93 8.31 10.41 16.27 8.07 19.93-1.23 1.92-5.76 1.53-9.02.47-11.05-3.6-10.3-16-20.41-23.73-11.83-9.05-29.6-4.88-29.9-2.85-.39 2.61 27.52 5.4 29.43 16.61.26 1.52.25 4.45-1.42 5.7-2.39 1.77-6.97-.79-9.97-2.37-11.97-6.32-21.38-11.28-29.43-10.44-6.18.65-10.29 4.7-18.51 12.82-5.05 4.98-10.36 10.36-11.87 18.51-1.04 5.62.91 6.22 0 10.92-2.02 10.43-14.29 21.29-27.53 20.41-1.68-.11-9.67-.65-15.19-7.12-5.03-5.9-6.76-15.27-3.32-21.83 5.99-11.46 23.9-7.14 27.53-17.09 2.51-6.88-5.38-10.82-3.32-21.36 1.17-5.97 4.15-7.03 8.49-14.75-47.87-10.73-90.43-35.5-123.12-69.77-6.22.06-12.19 1.13-16.92 5.74-8.37 8.14-4.08 18.8-12.46 22.78-7.32 3.48-18.82-.73-23.85-8.19-7.27-10.77-.24-27.11 3.56-35.95 6.37-14.81 12.92-17.37 11.39-24.56-2.22-10.4-18.51-12.53-17.44-21 .4-3.19 2.36-6.39 8.15-10.65-1.36-3.15-2.65-6.33-3.88-9.54-6.01.76-13.02 2.3-20.45 5.95-4.94 2.43-18.63 9.15-19.93 19.93-1.02 8.4 6.51 10.77 7.12 19.93 1.16 17.46-24.23 37.43-34.17 32.75-1.29-.6-2.27-1.6-5.59-9.06-6.32-14.22-6.75-19.59-10.08-26.54-1.66-3.46-9.41-19.63-19.93-19.93-13.35-.39-22.09 24.98-22.78 27.05-3.48 10.44-6.02 28.28 1.42 32.75 5.41 3.25 10.4-4.01 21.36-4.27 19.92-.48 35.16 22.73 39.87 29.9 9.49 14.45 18.14 37.1 11.39 42.72-2.88 2.4-11.45-.27-28.48-5.7-17.68-5.64-22.94-8.59-27.05-5.7-5.69 4-.3 12.94-5.7 21.36-6.67 10.41-19.8 4.43-37.55 12.1C341.2 484.91 443.03 566.27 565.46 583c-4.07-5.29-6.61-10.19-7.95-12.79-10.35-20.06-13.8-50.61.95-68.35zM415.59 108.86c-53.12 39.44-66.1 54.97-62.65 62.65 3.72 8.29 25.96 7.14 27.05 15.66.89 6.93-13.21 12.48-11.39 18.51 1.21 4 8.48 5.03 11.51 5.46 5.43.77 16.53.61 19.82-5.46 3.45-6.36-5.61-11.97-4.27-22.78 1.09-8.79 8.6-17.43 17.09-19.93 7.46-2.2 14.37.75 23.73 7.22-4.26-18.06-6.52-36.89-6.52-56.25 0-6.64.27-13.22.79-19.73-.5.13-1 .27-1.5.41-1.56 3.61-5.6 8.26-13.66 14.24z"/><path d="M436.48 170.19c3.93 2.71 8.27 6.03 13.29 9.87 9.56 7.31 16.99 13 15.66 17.09-1.23 3.77-8.77 2.67-19.42 4.02 1.23 3.21 2.52 6.39 3.88 9.54.01-.01.03-.02.04-.03 20.49-15.03 57.76-20.45 71.2-4.98 2.61 3.01 4.86 7.42 9.97 8.54 7.66 1.68 14.19-5.7 16.73-3.56 1.81 1.53-.08 6.48-2.14 11.75-6.14 15.71-9.76 23.87-11.75 29.19-6.68 17.87-1.21 20.28-6.41 25.99-7.18 7.88-19.03 4.83-30.07 4.94 32.69 34.27 75.25 59.04 123.12 69.77.33-.58.66-1.2 1-1.86 5.6-10.85 3.27-13.93 6.64-19.93 8.55-15.2 29.57-6.29 42.24-20.88 9.65-11.11 9.69-30.35 1.9-41.77-5.57-8.17-15.75-13.2-18.51-10.92-2.88 2.38 4.73 10.7 4.27 24.68-.04 1.33-.89 20.44-12.34 25.63-9.9 4.49-23.99-3.13-30.85-12.34-15.06-20.22-3.06-58.61 19.93-72.62 9.28-5.65 23.98-9.55 29.9-3.8 5.86 5.7.34 18.19 5.7 20.88 3.27 1.65 9.4-.98 11.39-5.22 3.23-6.88-6.7-13.17-9.02-27.05-2.01-12.05 4.26-14.63 3.8-24.68-.73-15.77-16.8-23.19-47.94-49.84-22.18-18.98-33.26-28.47-31.8-33.7.67-2.38 3.31-4.35 7.49-5.91-27.03-6.85-55.33-10.5-84.48-10.5-30.84 0-60.73 4.1-89.16 11.74-.52 6.51-.79 13.09-.79 19.73.01 19.34 2.27 38.17 6.53 56.23z" fill="#70cbff"/><path d="M769.2 328.62c-.15-6.17-9.06-12.86-17.56-12.34-7.4.45-13.46 6.28-15.66 12.34-2.93 8.07 1.72 14.53 2.91 20.96 3.9-1.07 7.76-2.23 11.57-3.48 7.02-8.09 18.91-10.26 18.74-17.48z" fill="#5ba7dc"/><path class="st6" d="M857.92 482.47c-62.27 63.97-149.3 103.72-245.63 103.72-15.89 0-31.52-1.11-46.83-3.2 4.97 6.45 12.22 13.48 22.42 17.59 5.06 2.04 16.2 5.52 67.4-6.65 29.17-6.93 46.98-13.15 50.31-7.59 2.22 3.7-4.77 7.98-5.7 18.04-1.41 15.4 13.46 22.11 18.04 36.07 8.52 26-27.74 49.41-21.83 59.8 2.18 3.83 9.93 5.63 21.44 5.11 73.02-51.6 124.95-131.05 140.38-222.89zM620.58 352.31c-4.34 7.73-7.32 8.79-8.49 14.75-2.06 10.53 5.84 14.48 3.32 21.36-3.63 9.94-21.53 5.63-27.53 17.09-3.44 6.57-1.71 15.93 3.32 21.83 5.52 6.47 13.51 7.01 15.19 7.12 13.24.88 25.51-9.98 27.53-20.41.91-4.69-1.04-5.3 0-10.92 1.5-8.15 6.82-13.53 11.87-18.51 8.22-8.11 12.33-12.17 18.51-12.82 8.05-.84 17.46 4.13 29.43 10.44 2.99 1.58 7.57 4.15 9.97 2.37 1.68-1.24 1.68-4.18 1.42-5.7-1.91-11.21-29.82-14-29.43-16.61.3-2.03 18.07-6.2 29.9 2.85 10.11 7.73 9.36 20.13 20.41 23.73 3.25 1.06 7.79 1.44 9.02-.47 2.35-3.66-10-11.62-8.07-19.93 1.31-5.65 7.63-4.58 10.92-10.92 1.42-2.73 1.5-5.36 1.01-7.99-20.59 5.63-42.25 8.66-64.63 8.66-18.43.01-36.39-2.04-53.67-5.92z"/><linearGradient id="SVGID_1_" gradientUnits="userSpaceOnUse" x1="548.5514" y1="440.9934" x2="862.702" y2="440.9934"><stop offset=".0628" stop-color="#d4ebf9"/><stop offset=".8991" stop-color="#fff"/></linearGradient><path d="M837.38 295.79c-24.89 22.35-54.4 39.65-86.92 50.32-1.72 1.99-3.16 4.33-4.04 7.2-2.9 9.4 1.07 21.13 6.64 22.78 6.36 1.88 11.64-10.26 18.51-8.54 6.3 1.57 10.81 14.01 8.07 23.73-3.42 12.12-17.51 17.87-23.73 20.41-12.66 5.17-23.78 4.51-24.21 8.07-.34 2.85 6.71 4.14 6.64 7.12-.13 5.65-25.89 15.82-43.19 6.17-11.27-6.28-8.78-15.3-18.04-18.99-12.55-5-20.01 10.44-52.68 22.78-18.51 6.99-29.36 7.05-33.7 16.61-3.47 7.64 2.51 12.03-.95 20.88-5.97 15.28-20.64 14.67-31.33 27.53-14.75 17.73-11.3 48.29-.95 68.35 1.34 2.6 3.88 7.5 7.95 12.79 15.31 2.09 30.94 3.2 46.83 3.2 96.33 0 183.36-39.75 245.63-103.72 3.13-18.61 4.78-37.71 4.78-57.21.01-45.82-9-89.53-25.31-129.48z" fill="url(#SVGID_1_)"/><linearGradient id="SVGID_2_" gradientUnits="userSpaceOnUse" x1="596.7774" y1="225.614" x2="837.3785" y2="225.614"><stop offset=".0628" stop-color="#d4ebf9"/><stop offset=".8991" stop-color="#fff"/></linearGradient><path d="M596.91 98.9c-1.46 5.23 9.62 14.72 31.8 33.7 31.14 26.65 47.21 34.07 47.94 49.84.46 10.05-5.81 12.63-3.8 24.68 2.31 13.88 12.25 20.17 9.02 27.05-1.99 4.24-8.12 6.87-11.39 5.22-5.36-2.69.17-15.18-5.7-20.88-5.92-5.76-20.62-1.85-29.9 3.8-22.99 14.01-35 52.4-19.93 72.62 6.86 9.21 20.95 16.83 30.85 12.34 11.45-5.19 12.3-24.3 12.34-25.63.45-13.98-7.15-22.3-4.27-24.68 2.76-2.28 12.94 2.75 18.51 10.92 7.79 11.42 7.75 30.66-1.9 41.77-12.67 14.6-33.69 5.68-42.24 20.88-3.38 6.01-1.05 9.08-6.64 19.93-.34.66-.68 1.28-1 1.86 17.27 3.87 35.23 5.93 53.67 5.93 22.38 0 44.04-3.03 64.63-8.66-1.2-6.44-5.84-12.9-2.91-20.96 2.2-6.06 8.26-11.89 15.66-12.34 8.51-.52 17.41 6.17 17.56 12.34.18 7.22-11.72 9.39-18.74 17.49 32.52-10.67 62.03-27.97 86.92-50.32-40.71-99.7-126.99-175.94-232.98-202.81-4.19 1.55-6.84 3.53-7.5 5.91z" fill="url(#SVGID_2_)"/><path class="st6" d="M352.45 724.4c-18.42-10.33-35.79-22.31-51.91-35.75 18.3 18.79 33.39 30.54 51.91 35.75z"/><path class="st6" d="M424.14 712.6c15.68-12.46 32.69-37.43 25.63-56.96-6.52-18.02-31.02-15.5-71.2-44.14-17.3-12.33-29.02-24.39-41.29-37.02-35.83-36.87-40.31-55.62-62.65-59.8-17.38-3.25-31.88 4.87-37.02-2.85-4.29-6.43 5.1-13.14 2.85-25.63-3.27-18.12-26.19-21.43-25.63-35.6.35-8.69 9.15-12.2 7.12-19.93-1.54-5.86-7.27-6.4-11.39-11.39-11.92-14.45 2.66-50.47 9.97-49.84 2.62.23 5.96 5.3 8.54 28.48 20.99 11.24 22.78 11.39 22.78 11.39 16.01 1.31 17.99-23.81 43.59-34.88.01 0 .01 0 .02-.01-16.71-40.37-25.95-84.61-25.95-131.01 0-19.49 1.65-38.6 4.78-57.21-43.65 44.84-75.12 101.59-89.09 164.91 2.5 21.29 4.09 38.63 4.71 52.5.55 12.38.54 26.8 9.61 40.94 4.01 6.26 7.35 8.63 10.68 16.38 5.39 12.54 2.09 19.02 3.92 30.97 3.56 23.32 20.12 24.8 22.43 44.14 1.92 16.17-8.96 21-12.1 37.02-4.91 25.05 14.9 47.87 45.57 82.23 11.53 12.92 21.43 24.01 30.54 33.36 16.12 13.44 33.49 25.42 51.91 35.75 3.91 1.1 7.97 1.91 12.24 2.44 7.69.95 35.94 4.42 59.43-14.24z"/><linearGradient id="SVGID_3_" gradientUnits="userSpaceOnUse" x1="269.5069" y1="234.5232" x2="446.0081" y2="234.5232"><stop offset=".0628" stop-color="#d4ebf9"/><stop offset=".8991" stop-color="#fff"/></linearGradient><path d="M333.01 362.32c5.39-8.42.01-17.35 5.7-21.36 4.11-2.9 9.37.06 27.05 5.7 17.03 5.43 25.6 8.09 28.48 5.7 6.74-5.62-1.9-28.26-11.39-42.72-4.71-7.17-19.95-30.39-39.87-29.9-10.96.27-15.95 7.52-21.36 4.27-7.44-4.46-4.91-22.31-1.42-32.75.69-2.08 9.43-27.44 22.78-27.05 10.53.31 18.28 16.47 19.93 19.93 3.33 6.95 3.75 12.32 10.08 26.54 3.32 7.46 4.3 8.46 5.59 9.06 9.94 4.68 35.34-15.29 34.17-32.75-.61-9.16-8.14-11.53-7.12-19.93 1.3-10.79 14.99-17.51 19.93-19.93 7.43-3.65 14.43-5.19 20.45-5.95-3.83-10.03-7.03-20.36-9.53-30.97-9.36-6.47-16.27-9.42-23.73-7.22-8.49 2.5-16 11.15-17.09 19.93-1.34 10.81 7.72 16.42 4.27 22.78-3.29 6.07-14.38 6.23-19.82 5.46-3.03-.43-10.3-1.45-11.51-5.46-1.82-6.03 12.28-11.58 11.39-18.51-1.1-8.52-23.34-7.38-27.05-15.66-3.44-7.68 9.54-23.21 62.65-62.65 8.06-5.98 12.1-10.63 13.66-14.24-59.75 16.35-112.99 48.45-154.97 91.58-3.13 18.61-4.78 37.71-4.78 57.21 0 46.4 9.24 90.65 25.95 131.01 17.76-7.69 30.89-1.71 37.56-12.12z" fill="url(#SVGID_3_)"/><path class="st6" d="M465.43 197.15c1.33-4.09-6.1-9.77-15.66-17.09-5.02-3.84-9.36-7.15-13.29-9.87 2.5 10.61 5.7 20.95 9.53 30.97 10.65-1.35 18.19-.24 19.42-4.01z"/><linearGradient id="SVGID_4_" gradientUnits="userSpaceOnUse" x1="441.0721" y1="261.502" x2="497.462" y2="261.502"><stop offset=".0628" stop-color="#d4ebf9"/><stop offset=".8991" stop-color="#fff"/></linearGradient><path d="M441.74 221.35c-1.06 8.48 15.23 10.6 17.44 21 1.53 7.19-5.02 9.75-11.39 24.56-3.8 8.84-10.83 25.19-3.56 35.95 5.03 7.45 16.53 11.67 23.85 8.19 8.37-3.99 4.09-14.64 12.46-22.78 4.73-4.6 10.7-5.67 16.92-5.74-19.83-20.79-36.02-45.08-47.57-71.84-5.79 4.27-7.75 7.47-8.15 10.66z" fill="url(#SVGID_4_)"/><linearGradient id="SVGID_5_" gradientUnits="userSpaceOnUse" x1="449.8878" y1="239.7248" x2="548.5513" y2="239.7248"><stop offset=".0628" stop-color="#d4ebf9"/><stop offset=".8991" stop-color="#fff"/></linearGradient><path d="M527.53 277.6c5.2-5.7-.27-8.12 6.41-25.99 1.99-5.32 5.61-13.48 11.75-29.19 2.06-5.26 3.95-10.22 2.14-11.75-2.54-2.14-9.07 5.24-16.73 3.56-5.11-1.12-7.35-5.54-9.97-8.54-13.44-15.46-50.71-10.04-71.2 4.98-.01.01-.03.02-.04.03 11.56 26.76 27.74 51.05 47.57 71.84 11.04-.11 22.89 2.94 30.07-4.94z" fill="url(#SVGID_5_)"/><g><path d="M214.95 451.3l-.25-1.39c.04-.01 3.76-.67 9.6-2.3l.38 1.36c-5.92 1.64-9.7 2.32-9.73 2.33zm19.23-5.28l-.46-1.33c3.11-1.07 6.22-2.24 9.23-3.47l.54 1.31c-3.04 1.24-6.17 2.42-9.31 3.49zm18.38-7.55l-.62-1.27c2.99-1.45 5.92-3 8.7-4.59l.7 1.22c-2.8 1.62-5.76 3.18-8.78 4.64zm17.22-9.91l-.79-1.17c2.76-1.88 5.4-3.85 7.88-5.87l.89 1.09c-2.51 2.05-5.19 4.05-7.98 5.95zm15.37-12.59l-1-1c2.35-2.34 4.56-4.78 6.56-7.27l1.1.88c-2.03 2.53-4.27 5.01-6.66 7.39zm12.44-15.5l-1.2-.75c1.73-2.77 3.29-5.67 4.63-8.6l1.28.59c-1.36 2.99-2.95 5.94-4.71 8.76zm8.27-18.04l-1.35-.42c.95-3.07 1.72-6.27 2.29-9.49l1.39.25c-.58 3.28-1.36 6.53-2.33 9.66zm3.45-19.53l-1.41-.08c.09-1.63.14-3.31.14-4.98 0-1.58-.04-3.21-.12-4.82l1.41-.07c.08 1.64.13 3.29.13 4.89-.01 1.71-.05 3.41-.15 5.06zm-2.36-19.64c-.46-3.15-1.08-6.39-1.83-9.65l1.38-.32c.76 3.29 1.38 6.57 1.85 9.76l-1.4.21z" fill="#447ebf"/></g></g><g id="Protection"><path class="st13" d="M202.54 382.59l-27.66-10.61c-5.22-2-6.44-11.51-2.72-21.2l7.74-20.18c3.72-9.69 10.98-15.94 16.2-13.94l27.66 10.61c5.22 2 6.44 11.51 2.72 21.2l-7.74 20.18c-3.72 9.69-10.98 15.94-16.2 13.94zm-11.4-52.99c-1.37-.53-3.29 1.12-4.26 3.67l-7.74 20.18c-.98 2.55-.66 5.05.72 5.58l27.66 10.61c1.37.53 3.29-1.12 4.26-3.67l7.74-20.18c.98-2.55.66-5.05-.72-5.58l-27.66-10.61zM298.6 417.73l-52.07-13.91c-9.82-2.62-15.18-14.59-11.95-26.68l6.73-25.18c3.23-12.09 13.85-19.79 23.67-17.16l52.07 13.91c9.82 2.62 15.18 14.59 11.95 26.68l-6.73 25.18c-3.23 12.09-13.85 19.78-23.67 17.16zm-37.94-66.78c-2.58-.69-5.38 1.34-6.23 4.52l-6.73 25.18c-.85 3.18.56 6.33 3.15 7.02l52.07 13.91c2.58.69 5.38-1.34 6.23-4.52l6.73-25.18c.85-3.18-.56-6.33-3.15-7.02l-52.07-13.91z"/><path class="st14" d="M260.36 380.77l-56.94-19.64c-1.76-.61-2.7-2.54-2.09-4.3l4.53-13.13c.61-1.76 2.54-2.7 4.3-2.09l56.94 19.64c1.76.61 2.7 2.54 2.09 4.3l-4.53 13.13c-.61 1.75-2.54 2.69-4.3 2.09zM379.53 396.51l-77.49-8.74c-2.08-.23-3.58-2.12-3.35-4.2l1.46-12.97c.23-2.08 2.12-3.58 4.2-3.35l77.49 8.74c2.08.23 3.58 2.12 3.35 4.2l-1.46 12.97c-.24 2.08-2.13 3.59-4.2 3.35zM190.06 351.93l-14.39-3.75c-4.16-1.08-6.68-5.37-5.59-9.53 1.08-4.16 5.37-6.68 9.53-5.59l18.46 4.51c-.17 3.49-.34 7.41-.51 9.63l.09 5.37c-.09.58-3.43.44-7.59-.64z"/><path class="st13" d="M816.03 373.44l-7.74-20.18c-3.72-9.69-2.5-19.2 2.72-21.2l27.66-10.61c5.22-2 12.48 4.25 16.2 13.94l7.74 20.18c3.72 9.69 2.5 19.2-2.72 21.2l-27.66 10.61c-5.22 2-12.49-4.25-16.2-13.94zm-.06-28.44c-1.37.53-1.69 3.03-.72 5.58l7.74 20.18c.98 2.55 2.89 4.2 4.26 3.67l27.66-10.61c1.37-.53 1.69-3.03.72-5.58l-7.74-20.18c-.98-2.55-2.89-4.2-4.26-3.67L815.97 345zM712.5 405.36l-6.73-25.18c-3.23-12.09 2.13-24.06 11.95-26.68l52.07-13.91c9.82-2.62 20.44 5.07 23.67 17.16l6.73 25.18c3.23 12.09-2.13 24.06-11.95 26.68l-52.07 13.91c-9.83 2.63-20.44-5.07-23.67-17.16zm9.54-35.71c-2.58.69-4 3.84-3.15 7.02l6.73 25.18c.85 3.18 3.64 5.21 6.23 4.52l52.07-13.91c2.58-.69 4-3.84 3.15-7.02l-6.73-25.18c-.85-3.18-3.64-5.21-6.23-4.52l-52.07 13.91z"/><path class="st14" d="M774.41 385.56l56.94-19.64c1.76-.61 2.7-2.54 2.09-4.3l-4.53-13.13c-.61-1.76-2.54-2.7-4.3-2.09l-56.94 19.64c-1.76.61-2.7 2.54-2.09 4.3l4.53 13.13c.61 1.75 2.54 2.69 4.3 2.09zM655.24 401.3l77.49-8.74c2.08-.23 3.58-2.12 3.35-4.2l-1.46-12.97c-.23-2.08-2.12-3.58-4.2-3.35l-77.48 8.74c-2.08.23-3.58 2.12-3.35 4.2l1.46 12.97c.23 2.08 2.11 3.59 4.19 3.35zM844.71 356.72l14.39-3.75c4.16-1.08 6.68-5.37 5.59-9.53-1.08-4.16-5.37-6.68-9.53-5.59l-18.46 4.51c.17 3.49.34 7.41.51 9.63l-.09 5.37c.09.58 3.43.44 7.59-.64z"/><path class="st15" d="M456 321.65c-.56.12-1.12.23-1.69.35.57-.11 1.13-.23 1.69-.35zM481.54 314.18c-4.51 1.7-9.34 3.32-14.46 4.76 5.11-1.45 9.95-3.06 14.46-4.76z"/><path d="M668.85 296.39c-83.46 9.67-148.87-39.92-148.87-39.92s-65.41 49.59-148.87 39.92c0 0-25.68 225.38 148.87 263.63 174.55-38.25 148.87-263.63 148.87-263.63zM612.5 474.98c-19.08 28.74-48.21 52.64-92.52 62.35-148.45-32.53-126.62-224.22-126.62-224.22 10.33 1.2 20.33 1.32 29.89.67l1.98 1.44-1.98-1.44c56.11-3.83 96.73-34.62 96.73-34.62s55.63 42.17 126.62 33.95c0 0 10.74 94.32-34.1 161.87z" fill="#4c4c4c"/><path class="st15" d="M467.08 318.94c-1.59.45-3.22.87-4.86 1.28 1.64-.41 3.27-.83 4.86-1.28zM481.54 314.18c23.68-8.92 38.44-20.11 38.44-20.11s-14.77 11.19-38.44 20.11z"/><path class="st1" d="M519.98 279.16s-40.62 30.79-96.73 34.62l1.98 1.44-1.98-1.44c-9.56.65-19.56.53-29.89-.67 0 0-21.84 191.69 126.62 224.22 44.31-9.71 73.45-33.61 92.52-62.35 44.83-67.55 34.09-161.87 34.09-161.87-70.98 8.22-126.61-33.95-126.61-33.95zm80.93 189.45c-16.89 24.82-42.42 45.37-80.93 53.81V294.07s-14.77 11.18-38.44 20.11c-4.51 1.7-9.34 3.32-14.46 4.76-1.59.45-3.22.87-4.86 1.28 1.64-.41 3.27-.84 4.86-1.28 5.12-1.44 9.95-3.06 14.46-4.76 23.68-8.92 38.44-20.11 38.44-20.11s49.2 37.3 111.99 30.03c0 0 9.64 84.68-31.06 144.51zM454.31 322c.57-.11 1.13-.23 1.69-.35-.56.12-1.12.24-1.69.35z"/><path class="st17" d="M519.98 294.07V522.42c38.5-8.44 64.04-28.99 80.93-53.81 40.7-59.83 31.06-144.51 31.06-144.51-62.78 7.27-111.99-30.03-111.99-30.03z"/><path d="M568.66 382.81h-.22v-13.76c0-27.27-20.03-49.58-44.5-49.58-24.48 0-44.5 22.31-44.5 49.58v13.76h-.22c-6.27 0-11.4 5.13-11.4 11.4v71.47c0 6.27 5.13 11.4 11.4 11.4h89.45c6.27 0 11.4-5.13 11.4-11.4v-71.47c-.01-6.27-5.14-11.4-11.41-11.4zm-79.9 0v-14.06c0-21.55 15.83-39.18 35.17-39.18 19.34 0 35.17 17.63 35.17 39.18v14.06h-70.34z" opacity=".82" fill="#aeadad"/><path class="st14" d="M519.83 315.36c-24.48 0-44.5 22.31-44.5 49.58v13.76h9.33v-14.06c0-21.55 15.83-39.18 35.17-39.18 19.34 0 35.17 17.63 35.17 39.18v14.06h9.33v-13.76c0-27.27-20.03-49.58-44.5-49.58z"/><path class="st19" d="M519.83 401.95c-7.73 0-14 6.27-14 14 0 5.87 3.62 10.89 8.74 12.97v20.79h10.52v-20.79c5.12-2.08 8.74-7.1 8.74-12.97-.01-7.73-6.27-14-14-14z"/><path class="st19" d="M564.55 378.7h-89.44c-6.27 0-11.4 5.13-11.4 11.4v71.47c0 6.27 5.13 11.4 11.4 11.4h89.45c6.27 0 11.4-5.13 11.4-11.4V390.1c-.01-6.27-5.14-11.4-11.41-11.4zm-39.46 50.22v20.79h-10.52v-20.79c-5.12-2.08-8.74-7.1-8.74-12.97 0-7.73 6.27-14 14-14s14 6.27 14 14c-.01 5.87-3.62 10.89-8.74 12.97z"/><path d="M533.82 415.95c0-7.73-6.27-14-14-14s-14 6.27-14 14c0 5.87 3.62 10.89 8.74 12.97v17.43c1.72.29 3.47.44 5.26.44 1.79 0 3.54-.15 5.26-.44v-17.43c5.13-2.08 8.74-7.1 8.74-12.97z" fill="#ffc28c"/><path d="M514.56 446.35v3.36h10.52v-3.36c-1.72.29-3.47.44-5.26.44-1.78 0-3.54-.15-5.26-.44z" fill="#c66049"/></g><g id="People"><path class="st22" d="M179.81 530.94c-1.07-.6-8.19 9.38-8.19 9.38l-.89-2.2c-1.25-4.79-4.09-1.8-4.09-1.8s3.03 7.38 3.38 9.78c.16 1.05.21 2.71.22 4.24.26-.41.49-.65.67-.65l5.96 3.74c2.55-3.16 6.11-8.01 7.21-11.72 1.78-5.98-3.2-10.17-4.27-10.77z"/><path class="st23" d="M170.24 550.34c-2.77 4.37-9.42 29.93-9.42 29.93-5.87-11.97-26.67-33.76-26.67-33.76l.18.92c.01.02 10.41 13.03 12.07 35.44.2 2.75-5.51 6.9-5.39 9.72 5.65 6.25 20.02 14.26 20.46 14.56 16.03 10.96 15.48-53.68 15.48-53.68l-.09-.06-5.96-3.74c-.17.03-.4.26-.66.67z"/><path class="st24" d="M64.44 581.19c1.2-11.11.6-15.62 5.41-23.43 7.58-12.32 8.11-7.51 11.11-7.21 1.43.14 3.89 1.1 6.43 1.78l6.55.36c-5.46 2.02-9.49 20.18-6.35 25.33 1.19 1.95-5.43-1.05-1.78 5.41.76 10.14 1.7 21.34 2.72 30.72-.72 3.59-1.29 5.94-1.56 6.08-1.2.6-7.81 2.4-6.01 4.81 1.8 2.4 1.8 5.71 7.21 3.6.68-.27 1.35-.86 2.01-1.69.13.84.27 1.64.41 2.37.44 2.36 1.43 6.05 2.55 9.94-5.59 1.16-14.53 11.97-20.56-1.69 1.55-.84.88-2.02.88-2.02s-5.11-12.91-5.11-16.52c0-3.6-2.4-15.62-2.4-15.62-.15.05-.33.11-.52.18-.64-4.45-1.17-8.71-1.6-12.62.6-.94-.07-3.47.61-9.78zM117.65 797.83l.75 2.41s5.01 10.3 3.9 11.69c-1.11 1.39-12.53 1.11-13.92-.84-1.39-1.95 1.67-8.35 1.67-8.35l.59-4.9c1.91.14 4.96.07 7.01-.01zM138.89 658.08c3.98-.54 7.46-1.13 9.48-1.73 1.81-.54 3.13-1.05 4.1-1.55l40.35 140.33c-.91.45-3.27 1.27-5.77 2.08l1.8 3.59s20.6-2.51 21.44 1.39c.84 3.9.28 8.35-9.19 7.8-9.47-.56-18.93-3.34-18.93-3.34v-7.89c-1.64.51-2.8.86-2.8.86l-47.91-106.24.04-.35 7.39-34.95z"/><path class="st25" d="M105.08 548.91c1.91.84 9.67 4.61 12.52 5.93 2.86 1.32 5.93 3.74 7.69 1.1-.88 2.42 2.64 1.54 3.52.66.78-.78 2.6-6.95 2.84-10.47 2.46 7.53 9.59 27.93 10.58 31.16 1.2 3.9 3 11.71 3 11.71s.23-.52.5-1.26c.07.62.14 1.25.21 1.9-1.24-.55 3.61 26.38 3.67 27.24.73 10.97-17.42 14.8-23.91 18.31 3.65-2.41-26.9-.75-26.9-.75-1.04-1.04-2.22-65.51-9.26-78.1.27-3.85 12.68 9.3 12.44 7.12-.51-4.76-2.37-9.98-4.76-13.74.22-.83 1.44-3.65 7.86-.81z"/><path class="st25" d="M125.92 543.82s1.76 3.52 1.62 6.6c-.33-1.93-1.12-4.33-1.62-6.6zM123.7 553.12l2.08 1.13c.2-.01.36-.03.53-.07-.29.36-.51.4-1 1.76.2-.32-.43-1.41-1.61-2.82zM121.14 602.32c-1.12.4-1.9.53-2.18.25 0 0 .83.06 2.18-.25zM88.53 614.16c-1.02-9.38-1.96-20.58-2.72-30.72 1.94 3.43 4.09 7.2 6.31 11.02-1.27 7.31-2.58 14.71-3.59 19.7zM90.18 626.96c3.57-4.55 6.62-16.37 7.89-22.49 5.85 9.57 11.31 17.57 13.83 18.48 3.57 1.3 16.44-8.4 26.56-16.71 1.76.07 5.39.15 9.32-.2.96 8.55 1.8 15.8 1.91 16.25.21.82 1.31 14.94 1.87 22.26-2.26 1.39-20.59 5.65-23.62 6.08-2.96.42-27.96.03-30.29 3.34-.97-3.01-2.88-9.06-4.52-14.71-1.12-3.88-2.11-7.57-2.55-9.94-.13-.72-.27-1.52-.4-2.36z"/><path class="st22" d="M100.35 509.49c.03-.17.07-.34.1-.51v.02c-.04.16-.07.32-.1.49zM100.12 512.54c-.01-.5 0-1 .04-1.5.01.08.04.16.05.24-.03.4-.06.82-.09 1.26z"/><path class="st24" d="M133.69 511.98v-.12c-.06-2.43-.67-4.71-1.65-6.77l-.81 1.19-.64.15c-1.43 1.14-3.88 1.71-7.57 1.8-2.21.06-4.79-.25-7.23-.82-3.29 1.94-4.67 4.58-5.27 7.01-.02.17-.25 2.79-.23 3.69.03 1.25-.2 2.42-.62 3.43-.26-.14-.54-.27-.82-.37-1.08-.39-1.48-2.1-1.63-3.22.19-.69.29-1.47.27-2.31-.07-2.59-1.26-4.67-2.68-4.63-1.41.04-2.5 2.17-2.44 4.76.06 2.28.99 4.16 2.18 4.56l1.71 1.98.46.53.08 4.75c-.42.35-.89.53-1.35.25-1.43-.84-3.75-5.44-3.75-5.44-.65-1.12-1.12-2.52-1.41-4.04-.32-1.64-.29-3.91-.17-5.83.03-.44.06-.86.09-1.26-.02-.08-.04-.16-.05-.24v-.01c.01-.08.02-.17.03-.25.04-.44.09-.87.16-1.29.03-.17.07-.33.1-.49v-.02c.01-.1.02-.17.02-.17h.01c.06-.28.12-.56.2-.83.05-.19.11-.38.16-.57.09-.3.19-.6.3-.9.07-.18.13-.36.2-.54.13-.33.28-.65.44-.97.06-.13.12-.27.19-.4.22-.43.46-.85.72-1.26.09-.14.18-.27.28-.4.19-.28.37-.55.57-.81.12-.16.25-.32.38-.48.19-.23.38-.45.57-.66.14-.16.29-.31.44-.46.2-.21.42-.41.63-.61.15-.14.3-.28.45-.41.27-.23.55-.45.84-.66.18-.14.37-.27.56-.4.31-.21.63-.42.96-.62.19-.11.38-.21.57-.31.17-.09.35-.2.52-.28.39-.27.83-.52 1.28-.76l.04-.07s.13-.05.34-.12c1.04-.5 2.23-.9 3.52-1.18 3.27-1.03 7.76-2.26 9.99-1.99 3.74.44 12.96 3.74 12.96 3.74l-4.84 7.18c.83 2.59 1.88 6.58 1.34 8.89-.21.89-.36 1.56-.48 2.07.07-1.04.1-1.99.08-2.8.01-.08 0-.14 0-.21z"/><path class="st22" d="M127.54 550.42c-.03.54-.1 1.07-.27 1.57-.48 1.44-.75 1.91-.97 2.19-.16.04-.33.06-.53.07l-2.08-1.13c-2.17-2.58-6.22-6.25-10.48-8.39-3.99-2-5.32-3.83-5.75-4.97l-.58-11.08-.05.06-.02-1.15-.08-4.75-.46-.53-1.71-1.98c-1.19-.39-2.12-2.27-2.18-4.56-.07-2.59 1.02-4.73 2.44-4.76 1.41-.04 2.61 2.04 2.68 4.63.02.84-.08 1.63-.27 2.31.15 1.12.55 2.83 1.63 3.22.28.1.55.23.82.37.42-1.01.65-2.18.62-3.43-.02-.89.21-3.52.23-3.69.6-2.43 1.98-5.07 5.27-7.01 2.44.57 5.02.88 7.23.82 3.68-.09 6.13-.66 7.57-1.8l.64-.15.81-1.19c.98 2.06 1.59 4.34 1.65 6.77v.12c0 .07.01.13.01.2.02.8-.01 1.75-.08 2.8-.47 6.73-.75 17.17-4.83 20.35-.63.49-3.41.73-3.43 1.44-.12 3.18.12 3.37.12 3.37-.05 1.1.15 2.37.45 3.69.48 2.26 1.27 4.66 1.6 6.59z"/><path class="st26" d="M115.14 660.53c3.17-.28 14.75-1.23 23.75-2.44l-7.4 34.94-.04.35-11.56 101.89-.1 2.47s-.89.05-2.15.09c-2.06.07-5.11.15-7 .02-.97-.07-1.64-.19-1.71-.39-.28-.84-6.68-47.05-6.13-59.58.47-10.61-2.32-61.16-3.19-76.43 3.31.86 10.88-.52 15.53-.92zM98.07 604.47c-1.27 6.11-4.32 17.94-7.89 22.49-.65.83-1.33 1.42-2.01 1.69-5.41 2.1-5.41-1.2-7.21-3.6-1.8-2.4 4.81-4.2 6.01-4.81.27-.14.84-2.49 1.56-6.08 1.01-4.99 2.32-12.39 3.59-19.7 1.96 3.38 3.98 6.78 5.95 10.01zM146 587.01c-.09.26-.18.51-.26.74-.28.74-.5 1.26-.5 1.26s-1.8-7.81-3-11.71c-.99-3.22-8.12-23.63-10.58-31.16.03-.44.04-.84.01-1.18-.04-.63-.31-1.26-.71-1.87.63-.45 3.28.24 6.16 2.07 0 0 .33.78.86 2.17 2.13 5.54 7.55 20.9 8.75 36.27.07.84-.32 2.24-.73 3.41z"/><path class="st26" d="M62.64 553.26c4.01-10.95 21.66-14.39 30.92-13.67-4.05 9.76 3.63 10.36 3.63 10.36s.01-.09.05-.23c2.39 3.76 6.06 11.11 6.43 32.03.04 2.19-6.46 27.54-6.73 31.39-4.32-7.72-3.33-53.92-3.85-54.75-1.05-1.66-1.87-3.23-3.09-3.86-.4-.69-.77-1.31-1.1-1.85-.5-.1-1-.22-1.5-.36-2.54-.68-5-1.64-6.43-1.78-3-.3-3.53-5.11-11.11 7.21-4.81 7.81-4.2 12.31-5.41 23.43-.68 6.3-.01 8.83-.62 9.79-.46.73-1.67.55-4.79.42-7.21-.28-.9-25.81 3.6-38.13zM68.35 619.04c0 3.6 5.11 16.52 5.11 16.52s.67 1.18-.88 2.02c-.52.28-1.29.53-2.43.68-4.51.6-6.61-13.22-9.01-22.83-2.2-8.82 2.16-11.06 4.29-11.83.19-.07.37-.13.52-.18-.01 0 2.4 12.01 2.4 15.62z"/><path class="st23" d="M113.21 544.73c4.26 2.13 8.31 5.8 10.48 8.39 1.18 1.41 1.82 2.5 1.6 2.82-1.76 2.64-4.83.22-7.69-1.1-2.86-1.32-10.62-5.09-12.52-5.93-6.43-2.84-7.64-.02-7.86.82-.03.14-.05.23-.05.23s-7.67-.61-3.63-10.36c.11-.27.19-.51.32-.79 4.83-10.55 13.18-5.27 13.18-5.27l.22 5.05s-.1.45.18 1.19c.45 1.13 1.78 2.96 5.77 4.95z"/><path class="st23" d="M131.66 546.13c-.24 3.52-2.06 9.69-2.84 10.47-.88.88-4.39 1.76-3.52-.66.5-1.36.71-1.4 1-1.76.23-.28.5-.76.97-2.19.16-.49.24-1.03.27-1.57.14-3.08-1.62-6.6-1.62-6.6l-.45-3.69.49-1.55s3.48 2.09 5.01 4.5c.39.61.66 1.25.71 1.87.01.34.01.74-.02 1.18zM127.94 650.64c3.03-.43 21.36-4.69 23.62-6.08.04-.02.08-.05.11-.07 1.76-1.32 3.52 3.95 3.52 6.15 0 1.59-.13 2.84-2.71 4.16-.98.5-2.29 1.01-4.1 1.55-2.02.61-5.5 1.2-9.48 1.73-9 1.22-20.58 2.17-23.75 2.44-4.65.4-12.22 1.79-15.51.92-.28-.08-.55-.16-.77-.27-1.58-.81-1.7-4.23-1.39-6.79.02-.14.09-.28.18-.41 2.31-3.3 27.32-2.91 30.28-3.33z"/><path d="M52.42 656.69l16.95-11.03-4.94-7.59-13.86 9.01-3.1 2.02-3.1 2.02c3.63 4.14 6.74 6.42 8.05 5.57z" fill="#3d64ae"/><path d="M33.01 633.65l3.1-2.02 3.1-2.02 13.86-9.01-4.94-7.59-16.95 11.03c-1.31.86-.48 4.63 1.83 9.61z" fill="#203b70"/><path d="M242.25 514.38c-.76-1.23 3.02-4.17 2.87-5.83l-21 21.98-4.18 4.37-2.26 2.36c.97.25 2.32.07 3.73-.1 2.19-.26 4.5-.51 5.68.92.53.64.79 1.56.84 2.53l1.38-2.1 15.54-23.75c-1.22.22-2.28.15-2.6-.38z" fill="#e5f1fa"/><path d="M211.11 511.92c.75 1.66-.86 3.78-2.35 5.79-1.04 1.41-2.01 2.75-2.07 3.85l3.71-1.33 5.69-2.05 28.63-10.31c-1.47-1.01-6.41.77-7.1-.61-.19-.38-.02-.91.34-1.5l-27.06 4.43-1.33.22c.72.41 1.28.92 1.54 1.51z" fill="#fcd3b2"/><path d="M212.42 523.34c2.53-.25 5.3-.66 6.97-.08.54.19.96.47 1.23.9.25.4.32.87.27 1.39-.18 1.74-1.77 4.02-3.03 6.14-1.16 1.95-2.04 3.76-1.26 4.88.25.36.63.57 1.09.69l2.26-2.36 4.18-4.37 21-21.98c-.01-.13-.04-.25-.1-.36-.07-.13-.17-.23-.3-.32l-28.63 10.31-5.69 2.05-3.71 1.33c-.02.31.03.6.18.86.68 1.26 2.99 1.17 5.54.92z" fill="#f2e6d6"/><path d="M38.13 642.76c2.09 3.21 4.25 6.07 6.25 8.36l3.1-2.02 3.1-2.02 13.86-9.01-11.37-17.47-13.86 9.01-3.1 2.02-3.1 2.02c1.29 2.76 3.03 5.89 5.12 9.11z" fill="#1d439a"/><path class="st25" d="M237.62 507.26c.69 1.38 5.63-.4 7.1.61.12.09.23.19.3.32.06.11.09.23.1.36.14 1.67-3.63 4.6-2.87 5.83.32.53 1.39.6 2.61.38l7.42-11.34-14.32 2.35c-.37.58-.53 1.12-.34 1.49z"/><path d="M227.1 538.08c-1.18-1.43-3.5-1.19-5.68-.92-1.41.17-2.76.35-3.73.1l-1.61 1.68-1.18 1.24-134.26 87.35 4.94 7.59 138.59-90.17 1.63-1.06 2.14-3.27c-.05-.98-.31-1.9-.84-2.54z" fill="#03bdeb"/><path transform="rotate(-33.05 75.018141 636.568638)" fill="#eaeaea" d="M65.34 632.07h19.33v9.05H65.34z"/><path transform="rotate(-33.05 58.71238 611.505983)" fill="#c3c3c3" d="M49.03 607.01h19.33v9.05H49.03z"/><path d="M69.27 610.06l134.26-87.35.21-.07 2.96-1.07c.06-1.1 1.03-2.44 2.07-3.85 1.48-2.01 3.1-4.14 2.35-5.79-.27-.59-.83-1.1-1.55-1.5l-5.01.82-4.19 2.72-136.03 88.5 4.93 7.59z" fill="#3453a4"/><path d="M214.89 540.17l1.18-1.24 1.61-1.68c-.46-.12-.83-.33-1.09-.69-.78-1.11.1-2.93 1.26-4.88 1.26-2.12 2.85-4.4 3.03-6.14.05-.52-.02-.99-.27-1.39-.26-.43-.69-.71-1.23-.9-1.67-.58-4.44-.17-6.97.08-2.55.25-4.86.34-5.55-.91-.15-.26-.2-.55-.18-.86l-2.96 1.07-.21.07-134.24 87.36 11.37 17.47 134.25-87.36z" fill="#377abd"/><path transform="rotate(-33.05 66.86313 624.03182)" fill="#d8d8d7" d="M57.19 613.65h19.33v20.84H57.19z"/><path class="st22" d="M120.48 605.11l-.15.05 2.46 8.09c1.09-.13 2.32-.29 3.73-.49.87-.12 1.77-.25 2.77-.4 12.17-1.84 8.62-6.9 8.62-9.81s-12.03-1.38-12.03-1.38 2.74-5.83 1.78-6.29c-.45-.21-1.87 1.94-3.27 4.3-1.6 2.7-3.16 5.67-3.16 5.67l-.75.26z"/><path class="st23" d="M122.1 615.86c.75-.66 1.18-1.05 1.18-1.05l-.48-1.56-2.46-8.09-.89-2.92-21.79 9.15c-2.09-22.67-3.07-54.07-6.13-57.49-.31-.35-.64-.41-1-.14-27.08 20.55-10.11 64.67-2.73 75.71 1.2 1.79 2.95 2.61 5.03 2.73 9.17.53 24.87-12.51 29.27-16.34z"/><g><path class="st39" d="M910.42 708.6s2.14 28.72-1.88 43.7c-4.02 14.98-2.52 42.11-2.52 42.11l.57 3.58s-10.72 5.86-12.26 4.72c-1.53-1.14 6.13-8.96 6.13-8.96l-5.17-86.95 15.13 1.8zM867.6 700.08s-7.21 7.98-6.82 12.87c.38 4.88-5.26 31.61-8.9 39.1-3.64 7.49-7.98 41.42-8.37 42.23-.14.3-.68 3.55-1.55 4.74-1.52 2.08-10.61 2.69-13.95 1.32-2.82-1.16 7.78-4.2 8.37-6.59 2.15-8.7 8.41-27.27 10.66-34.68 2.87-9.44 9.96-56.18 9.96-56.18l10.6-2.81z"/><path class="st40" d="M906.59 797.99s2.87 5.7 1.72 6.51c-1.15.81-26.05 8.16-26.49 3.18-.21-2.44 13.66-8.39 13.66-8.39s-2.68 3.09-1.15 3.42c1.54.33 12.26-4.72 12.26-4.72zM843.35 795.62s2.87 5.7 1.72 6.51c-1.15.81-26.05 8.16-26.49 3.18-.21-2.44 13.66-8.39 13.66-8.39s-2.68 3.09-1.15 3.42c1.54.33 12.26-4.72 12.26-4.72zM893.78 671.87c.58-1.96-.14-3.96 1.98-5.89 1.08-.99 2.62-1.68 3.89-2.47 1.23-.76 2.39-1.53 3.5-2.34-.09.13-.17.27-.26.4-1.98 2.89-4.17 5.67-6.73 8.21-.73.72-1.61 1.38-2.38 2.09z"/><path class="st40" d="M845.64 721.27c5.1-23.54 21.12-91.32 21.12-91.32l37.15-13.35s6.11 12.52 9.07 23.69c-1.25.06-2.47.61-3.25 1.88-2.91 4.72-7.01 9.05-11.57 12.71-3.29 2.64-7.54 4.24-10.34 7.34-1.44 1.59-2.61 4.01-3.22 6.62l-.26.19s-18.32 45.12-20.62 61.33c-2.16 15.2-13.35 60.29-13.35 60.29l-13.65-.5c.02-.01 5.34-52.34 8.92-68.88z"/><path class="st41" d="M903.91 616.6l-25.34 2-11.81 11.36s12.04 13.86 17.6 39.07c3.41 15.44 5.04 46.94 6.68 62.59 1.59 15.2 6.23 60.8 6.23 60.8l14.54-1.26s3.83-31.06 1.48-66.09c-2.5-37.34 3.31-77.88 2.12-82.92-2.31-9.79-11.5-25.55-11.5-25.55z"/><g><path class="st22" d="M913.78 654.08s-5.34 14.03-4.01 19.04c1.34 5.01 8.02-3.67 8.35-7.01.33-3.34-1-11.02-1-11.02l-3.34-1.01zM835.8 570.19s0-4.21-1.26-4.84c-1.26-.63-6.74-4.84-7.58-6.11-.84-1.26-4-9.69-1.9-9.27 2.11.42 9.06 6.95 9.06 6.95s-1.47-4.63-.84-5.48c.63-.84 4.21 5.06 4.63 6.11.42 1.05 1.47 13.06 1.47 13.06l-3.58-.42zM887.82 505.53c-1.47 1.9-9.27 16.64-8.85 21.06.42 4.42.42 8.64 6.74 11.58l-11.79 18.75-4 16.01 20.01.21s14.74-6.11 14.74-8.42c0-2.32-5.06-25.28-5.06-25.28l4-28.43-12.22-7.37-2.85 1.51-.72.38z"/><path class="st40" d="M898.98 517.96s-5.05 18.75-3.37 26.12c1.69 7.37 4.81 29.84 4.81 29.84l17.04 18.04s18.39 1.2 28.71-8.28c10.32-9.48 22.33-58.34-7.16-55.61 0 0 4.21-4.42-2.53-9.9s-16.43-5.9-16.43-5.9 1.68-15.59-17.69-17.06c-19.38-1.47-18.96 9.9-18.96 9.9s-20.64 27.8-3.58 41.91l5.9-8.85s-8-5.27-6.74-11.58c1.26-6.32 8.85-21.06 8.85-21.06s1.04 8.85 11.15 12.43z"/><path class="st42" d="M880.24 559.03c4.18 1.5 12.64-6.32 17.27-12.01 0 0 7.79 5.48 13.06 6.74 0 0-1.07 12.72-3.8 30.84-1.61 10.66 2 27.39 2 27.39s3.19 23.42 2.77 22.79c-.34-.5-33.45 10.08-45.14 0-3-2.59 3.64-28.08 3.58-26.81-.45 8.49.14-9.34-2.38-13.34-2.53-4-6.11-21.06-3.37-26.12 2.74-5.05 8.21-16.64 8.21-16.64l7.37-4.84c.01 0-4.84 10.11.43 12z"/><path class="st43" d="M906.99 567.67c.21-1.05 0-14.53 3.58-13.9 3.58.63 11.16 7.16 11.79 18.75.63 11.58-3.24 85.91-3.24 85.91l-7.68-1.67s-4.88-74.98-4.25-80.87c.64-5.91-.2-8.22-.2-8.22zM872.44 551.87c-2.53.42-13.69 4.42-14.74 13.06-1.05 8.64-4.21 35.81-4.21 35.81l-11.16-31.17-8.21-.63s4.42 36.23 14.53 45.49c10.11 9.27 14.53-6.53 14.53-6.53l5.27-17.69 3.99-38.34z"/></g></g><g><ellipse transform="rotate(-67.697 575.589947 565.298922)" cx="575.57" cy="565.3" rx="16.77" ry="16.77" fill="#c1e6f8"/><path d="M578.15 546.62c-10.06-2.03-19.86 4.47-21.89 14.53-2.03 10.06 4.47 19.86 14.53 21.89 4.4.89 8.76.14 12.43-1.82l10.25 15.45c.68 1.02 3.02 2.68 4.04 2 1.02-.68.25-3.55-.43-4.57l-8.68-13.08-1.55-2.34c2.89-2.58 5-6.08 5.83-10.17 2.04-10.05-4.47-19.85-14.53-21.89zm-6.76 33.47c-8.42-1.7-13.87-9.91-12.17-18.33 1.7-8.42 9.91-13.87 18.33-12.17 8.42 1.7 13.87 9.91 12.17 18.33-1.7 8.42-9.91 13.87-18.33 12.17z" fill="#1f3d70"/><path d="M597.48 598.7c-1.02.68-2.39.4-3.07-.62l-8.28-12.48c-.68-1.02-.4-2.39.62-3.07 1.02-.68 2.39-.4 3.07.62l8.28 12.48c.68 1.02.4 2.4-.62 3.07z" fill="#4f8ecb"/><path class="st17" d="M581.28 557.25c-.86 1.96-3.15 2.85-5.11 1.98-1.96-.86-2.85-3.15-1.98-5.11.86-1.96 3.15-2.85 5.11-1.98 1.96.86 2.85 3.15 1.98 5.11z"/><ellipse transform="rotate(-72.626 583.154535 560.91533)" class="st17" cx="583.19" cy="560.93" rx="2.23" ry="2.23"/><g><path class="st47" d="M643.65 818.6l-.94 12.55-6.27-.63-.63-12.86zM681.74 810.96l4.62 11.7-5.92 2.17-6.16-11.3z"/><path class="st40" d="M645.53 827.7l-10.35 1.57s-10.35 6.9-14.42 7.21c-4.08.31-8.15 4.08-4.08 4.7 4.08.63 30.1-1.25 30.1-1.25l-1.25-12.23zM659.46 712.24s-15.94 46.48-14.37 62.15c1.57 15.68 1.69 45.15 1.69 45.15l-14.74-.31s-5.64-49.54-5.64-58.94 13.3-86.52 13.3-86.52l19.76 38.47zM687.26 820.8l-10.66 4.08s-.63 7.52-4.7 8.47c-4.08.94-10.35 4.08-9.72 6.58.63 2.51 18.81-1.25 18.81-1.25l11.91-9.41-5.64-8.47z"/><path class="st41" d="M673.25 674.87s5.47 4.95 5.81 12.11c.87 18.12-2.6 50.64-.8 54.68 2.51 5.64 9.63 72.55 9.63 72.55l-14.11 3.45s-22.16-69.75-24.35-85.42c-2.19-15.68-10.58-57.32-10.58-57.32l34.4-.05z"/><path class="st47" d="M629.99 562.63s-4.08 24.45 11.6 24.45l-.63 16.93 14.42-6.27-.94-37.31-19.12-.63-5.33 2.83z"/><path class="st40" d="M642.27 563.55s-18.12.86-18.43-2.58c-.31-3.45-.44-17.47 15.55-12.14 15.99 5.33 21.95 5.33 20.38 12.85-1.57 7.52-4.39 16.62-4.39 16.62l-3.14-1.25-1.88-7.84s4.69-2.19 1.88-6.27c-5.15-7.48-5.5 10.43-5.5 10.43l-4.47-9.82z"/><path class="st23" d="M655.7 589.59l-15.68 6.58s-6.61 11.02-6.88 21.12c-.24 9.12 3.05 16.69 3.96 24.12 2.18 17.78 6.66 14.69 2.65 26.23-3.75 10.79-7.03 14.54-7.03 14.54l45.37-4.48-7.33-19.55-1.22-32.98-13.84-35.58z"/><path class="st25" d="M650.75 621.59c5.97-2.89 12.69-4.61 18.29-8.16-.31-3.48-.7-5.99-1.11-6.91-1.57-3.45-7.84-11.6-10.97-13.48 0 0-15.23-1.31-8.65 20.64.83 2.82 1.66 5.45 2.44 7.91z"/><path class="st40" d="M642.45 559.31s23.66-2.25 7.89 14.27c-15.78 16.53 7.14 32.68 10.89 36.81 3.76 4.13-2.63 20.66 3.38 22.91s35.98 34.24 31.18-5.63c-4.82-39.97-21.19-28.39-25.87-45.25-5.45-19.59-7.91-46.03-27.84-33.63l-7.89 4.51 8.26 6.01z"/><path class="st40" d="M652.39 549.28s-7.89-9.77-2.63-11.64c5.26-1.88 16.53 2.25 10.52 7.89-6.01 5.63-7.89 3.75-7.89 3.75z"/><path class="st25" d="M649.2 544.59s6.19 2.59 9.21 2.3c0 0 2.45 3.74-2.16 3.16s-10.21-1.87-9.49-3.45c.72-1.58.86-2.58 2.44-2.01z"/></g><path class="st47" d="M584.75 583.42c-1.13 0-1.58 7.7-.45 8.83 1.13 1.13 4.08 3.62 5.43 4.08 1.36.45 2.85 3.06 2.85 3.06l3.48-3.42-1.88-3.26s.91-3.66 0-5.25c-.91-1.58-2.54-1.93-2.54-1.93l.55 1.71s-.42 3.21-1.33 2.76c-.9-.46-6.11-6.58-6.11-6.58z"/><path class="st25" d="M590.64 599.5s4.98-5.79 6.45-5.38 23.66 28.25 26.83 27.57c0 0 22.87-24.9 24.68-24.45 1.81.45 12 19.47 10.41 20.83-1.58 1.36-37.58 20.83-43.24 16.98-5.66-3.86-25.13-35.55-25.13-35.55z"/></g><g><path class="st48" d="M504.78 744.82l-.31.2zM484.84 767.85h-.02l.01-.01z"/><path class="st49" d="M376.3 850.98s-1.26 11.61.88 14.39c1.25 1.62 23.72 2.73 24.56.63.88-2.2-3.99-6.96-10.07-8.82-6.09-1.85-4.83-6.72-4.83-6.72l-10.54.52zM308.53 838.01s-8.74 10.06-7.68 14.56c1.06 4.5 21.55 13.22 21.55 13.22s5.33-3.07-.42-9.86c-9.23-10.91-5.77-14.74-5.77-14.74l-7.68-3.18z"/><path d="M386.36 717.3s8.21 47.12 5.82 75.18c-2.38 28.06-3.18 60.09-3.18 60.09l-14.82.79s-3.18-68.03-5.82-74.12c-2.65-6.09-7.41-24.62-7.41-24.62l-4.24 1.32s-1.59 33.88-5.56 40.77c-3.97 6.88-32.82 48.71-32.82 48.71l-11.12-6.62s24.35-51.62 23.56-55.06c-.79-3.44-.79-58.24-.79-58.24l24.35-2.91 32.03-5.29z" fill="#4161aa"/><path class="st43" d="M370.17 611.52s33.85 12.85 37.29 43.29-29.38-5.75-29.38-5.75l-2.96 57.26s9.61-15.38-6.53-14.85 2.64-26.48 2.64-26.48l-1.06-53.47z"/><path class="st42" d="M366.02 607.92s-7.12 4.93-11.33 4.57c-4.2-.37-10.05-5.3-10.05-5.3s-15.18 3.66-22.12 20.28l-1.85 6.68 7.39 91.53c-1.97 1.68 39.42 3.17 58.53-5.37 1-.45 0-1.32 0-1.32s-6.88-81.27-6.88-87.36c-.01-6.08-2.23-23.34-13.69-23.71z"/><path class="st22" d="M360.9 607.92l-.18-5.3s8.59-2.01 10.23-8.4c1.64-6.39 2.37-19.73 2.37-19.73l-6.58-8.95-8.22-.73-8.4 8.22-5.66 6.21-.25 13.07 6.27 5.01-.18 9.86-8.22 2.01s-.55 9.86 11.87 8.77c12.42-1.1 12.97-8.4 12.97-8.4l-6.02-1.64zM382.39 675.05c1.17 1.39.98 3.49-.41 4.66l-6.49 5.44c-1.39 1.17-3.49.98-4.66-.41s-.98-3.49.41-4.66l6.49-5.44c1.4-1.16 3.49-.98 4.66.41z"/><path class="st43" d="M324.97 625.89s5.61-4.63 12.73-2.8 4.38 17.72 4.38 17.72-10.59 29.96-12.24 40.73c-1.22 7.99 26.25-.19 42.13-5.23 1.54-.49 3.24 1.83 3.24 1.83-.09.06 1.79 7.31 1.72 7.39-8.67 9.67-53.62 36.06-61.98 8.14-8.36-27.94-.34-46.09 6.44-63.08l3.58-4.7z"/><path class="st22" d="M381.99 674.65c1.17 1.39.98 3.49-.41 4.66l-6.49 5.44c-1.39 1.17-3.49.98-4.66-.41s-.98-3.49.41-4.66l6.49-5.44c1.39-1.17 3.49-.98 4.66.41z"/><path class="st43" d="M324.57 625.48s5.61-4.63 12.73-2.8 4.38 17.72 4.38 17.72-10.59 29.96-12.24 40.73c-1.22 7.99 26.25-.19 42.13-5.23 1.54-.49 3.24 1.83 3.24 1.83-.09.06 1.79 7.31 1.72 7.39-8.67 9.67-53.62 36.06-61.98 8.14-8.36-27.94-.34-46.09 6.44-63.08l3.58-4.7z"/><path class="st51" d="M386.17 669.47l57.29-.4c1.4-.01 2.54-1.16 2.53-2.56l5.16-40.79c-.01-1.4-1.16-2.54-2.56-2.53l-57.29.4c-1.4.01-2.54 1.16-2.53 2.56l-5.16 40.79c.01 1.4 1.16 2.54 2.56 2.53z"/><path d="M390.22 669.44l57.29-.4c1.4-.01 2.54-1.16 2.53-2.56l5.16-40.79c-.01-1.4-1.16-2.54-2.56-2.53l-57.29.4c-1.4.01-2.54 1.16-2.53 2.56l-5.16 40.79c0 1.41 1.16 2.54 2.56 2.53z" fill="#62a1d4"/><path class="st51" d="M448.92 672.49H347.13c-1.09 0-1.99-.89-1.99-1.99 0-1.09.89-1.99 1.99-1.99h101.79c1.09 0 1.99.89 1.99 1.99-.01 1.1-.9 1.99-1.99 1.99z"/><path d="M427.02 647.21c.02 2.56-1.66 4.64-3.74 4.65-2.09.01-3.79-2.05-3.81-4.6-.02-2.56 1.66-4.64 3.74-4.65 2.09-.02 3.79 2.04 3.81 4.6z" fill="#377bbb"/><path class="st22" d="M371.18 685.42l.93.49c1.48.78 3.33.21 4.12-1.27l12.13-8.17c.78-1.48 2.88-7.28 1.4-8.06l-12.1 4.56c4.03-5.26 2.98-7.36-3.77.79l-3.99 7.55c-.78 1.48-.21 3.33 1.28 4.11z"/><path class="st43" d="M324.57 625.48s5.61-4.63 12.73-2.8 4.38 17.72 4.38 17.72-10.59 29.96-12.24 40.73c-1.22 7.99 26.25-.19 42.13-5.23 1.54-.49 3.24 1.83 3.24 1.83-.09.06 1.79 7.31 1.72 7.39-8.67 9.67-53.62 36.06-61.98 8.14-8.36-27.94-.34-46.09 6.44-63.08l3.58-4.7z"/><path class="st49" d="M366.64 572.33l6.34 4.63 4.63-17.31-31.69-3.9s-7.67 10.47-8.29 14.62c-.85 5.75 5.12 22.67 5.12 22.67l4.63-.73-2.44-9.99s.77-5.17 3.17-4.63c3.77.85 1.46 8.75 1.95 8.29 1.71-1.6 6.58-13.89 6.58-13.89l10 .24z"/><path class="st22" d="M454.09 640.12l-2.55 15.33s-12.78-11.49 2.55-15.33z"/></g></g></svg>