<svg xmlns="http://www.w3.org/2000/svg" viewBox="0 0 1000 1000"><style>.st1{fill:#2c7}.st5{fill:#616161}.st6{fill:#4c4c4c}.st7{fill:#b9ddff}.st8{fill:#aad0f9}.st9{fill:#e1e1e1}.st11{fill:#fff}.st12{fill:#7ab0f6}.st16{fill:#f60}.st18{fill:#fac5ca}.st19{fill:#3888c2}.st20{fill:#34b1eb}.st21{fill:#25228a}.st22{fill:#ff3784}.st23{fill:#ff769d}.st24{fill:#e9eaee}.st26{fill:#ff7a00}.st30{fill:#2f3081}.st33{fill:#f9c4c8}.st34{fill:#004e4a}.st36{fill:#f17599}.st37{fill:#f17b21}.st39{fill:#ed2c65}.st40{fill:#f9c4c9}.st41{fill:#008389}</style><g id="People"><path d="M200.74 977.72c-20.08-11.11-91.51-.11-102.47-131.22S14.28 724.27 16.11 644.26s51.12-151.12 94.94-182.23c43.82-31.11-96.07-200.05 14.96-278.93 111.02-78.87 130.97-11.09 194.03-46.09s94.1-130.56 207.3-121.67c113.2 8.89 93.39 139.91 93.39 139.91s74.1-159.99 211.52-24.34c217.67 214.86 71.34 453.66 71.34 453.66L793.9 568.7s182.58-82.23 191.71 93.34c9.13 175.57-74.86 300.02-189.88 306.69-115.03 6.66-594.99 8.99-594.99 8.99z" fill="#fbfbfb"/><path class="st1" d="M289.45 738.37l-12.07-.35s-16.48-90.27-29.81-116.47c0 0-131.27 14.74-163.75-79.1 0 0 96.92-44.64 162.16 64.6 0 0-16.57-87.18-49.42-168.64 0 0-96.47 29.17-121.17-55.15 0 0 56.39-35.51 108.33 12.46 0 0-22.23-65.67-42.42-98.26 0 0-73.07 20.57-104.2-50.52 0 0 53.75-13.91 92.98 21.3l-35.25-68.12S28.57 160 36.75 86.96c0 0 71.83 21.71 65.4 104.09l35.07 74.3s2.17-74.25 54.7-80.97c0 0 12.49 89.13-40.43 109.25 0 0 34.24 68.09 47.85 119.06 0 0-14.35-94.34 62.83-117.89 0 0 32.14 71.12-53.19 132.62 0 0 26.96 76.13 46.25 173.71 0 0-29.53-91.69 55.81-153.18 0 0 60.21 75.04-46.39 175.13-.01 0 17.56 53.15 24.8 115.29z"/><path d="M480.49 426.35l-5.12-1.38s2.17-40.24-.84-52.79c0 0-57.57-7.1-61.86-50.5 0 0 45.95-9.17 62.67 44.14 0 0 1.82-38.93-3.89-77.07 0 0-44.18 2.61-46.12-35.92 0 0 27.71-9.41 45 16.38 0 0-2.79-30.32-8.09-46.3 0 0-33.31 1.33-39.35-32.21 0 0 24.38-.45 37.54 18.59l-8.1-32.69s-24.2-23.9-13.26-54.26c0 0 28.46 16.6 17.31 51.13l7.39 35.31s8.51-31.49 31.63-29c0 0-3.76 39.34-28.42 42.53 0 0 7.67 32.57 8.28 55.73 0 0 3.5-41.76 38.87-43.94 0 0 6.47 33.66-36.26 51.21 0 0 3.74 35.27 2.02 78.91 0 0-3.25-42.17 39.47-59.73 0 0 18.05 38.19-37.69 70.06-.01.03 2.07 24.52-1.18 51.8z" fill="#30d9a0"/><path d="M685.76 673.73l-6.38-7.73s47.39-59.65 56.47-82.29c0 0-80.97-73.96-40.1-145.55 0 0 80.87 36.15 48.28 136.64 0 0 45.41-58.01 78.35-123.07 0 0-70.96-44.32-31.78-105.86 0 0 53.01 15.82 51.44 74.5 0 0 28.88-49.79 38.2-80.22 0 0-52.79-34.41-25.4-92.72 0 0 38.07 25.98 37.52 69.73l23.29-59.26s-11.15-63.33 38.95-98.15c0 0 25.7 56.75-29.29 97.76l-27.26 62.53s47.58-39.23 80.49-10.08c0 0-48.86 56.53-90.36 34.46 0 0-23.82 58.61-48.23 94.98 0 0 51.1-60.54 108-25.19 0 0-26.87 58.96-111.94 39.26 0 0-32.83 58.46-83.25 123.86 0 0 41.15-68.57 126.22-48.87 0 0-13.97 78.64-134.78 66.76.03-.01-23.57 40.02-58.44 78.51z" fill="#14a359"/><path class="st1" d="M532.15 553.17l-7.32-7.1s41.18-65.64 47.81-89.55c0 0-90.18-65.63-56.94-142.61 0 0 85.82 27.43 64.21 132.67 0 0 39.36-63.76 65.33-133.23 0 0-76.73-36.8-44.06-103.42 0 0 55.37 10.02 60.39 69.5 0 0 23.58-53.59 29.58-85.39 0 0-57.24-28.83-36.12-90.86 0 0 41.41 21.97 45.79 66.26l16.86-62.53S699.27 44.15 745.99 3.3c0 0 32.38 54.46-18.58 102.12l-20.5 66.28s43.67-45.02 80.23-19.27c0 0-43.01 62.64-87.46 45.02 0 0-17.47 61.93-38.05 101.44 0 0 44.83-66.95 106.33-37.63 0 0-20.51 62.63-108.72 52.3 0 0-26.59 62.8-70.19 134.58 0 0 33.86-73.95 122.07-63.63 0 0-5.26 81.06-128.71 82.67-.01.03-19.36 43.15-50.26 85.99z"/><path d="M476.57 805.43l-3.47-5.69s36.83-34.84 44.94-48.9c0 0-46.38-56.34-12.73-99.66 0 0 49.88 31.42 18.96 94.55 0 0 35.37-33.95 63.19-73.7 0 0-42.58-35.87-10.98-72.72 0 0 33.43 15.41 26.88 53.91 0 0 23.71-30.09 32.71-49.25 0 0-31.54-27.63-8.01-63.47 0 0 22.64 20.69 18.16 49.47l20.92-36.85s-1.39-42.77 34.89-61c0 0 11.6 39.8-28.49 61.65L649.7 592.4s35.03-21.37 53.97.93c0 0-37.5 32.64-62.77 14.2 0 0-21.21 36.37-40.7 58.03 0 0 39.35-35.08 73.52-6.44 0 0-23.24 36.31-77.43 15.34 0 0-27.12 35.43-66.49 73.76 0 0 33.55-41.3 87.74-20.32 0 0-16.6 50.49-95.07 31.3 0 0-19.31 24.15-45.9 46.23z" fill="#9fdaaf"/><path class="st5" d="M623.36 887.98v-88.36h-173.3v88.36c-16.34 10.48-35.72 16.64-56.58 16.64 0 3.94 3.19 7.14 7.14 7.14H672.8c3.94 0 7.14-3.2 7.14-7.14-20.85 0-40.24-6.15-56.58-16.64z"/><path class="st6" d="M449.26 779.23h174.78v49.16H449.26zM908.8 755.9V363.78c0-23.65-19.17-42.82-42.82-42.82H207.44c-23.65 0-42.82 19.17-42.82 42.82V755.9H908.8z"/><path class="st5" d="M908.8 755.9v5.46c0 23.65-19.17 42.82-42.82 42.82H207.44c-23.65 0-42.82-19.17-42.82-42.82v-5.46H908.8z"/><path class="st7" d="M202.85 359.19h667.72v358.48H202.85z"/><ellipse transform="rotate(-22.5 291.256211 441.861907)" class="st8" cx="291.27" cy="441.88" rx="56.75" ry="56.75"/><path class="st8" d="M578.9 431.56H416.38c-6.38 0-11.61-5.22-11.61-11.61 0-6.38 5.22-11.61 11.61-11.61H578.9c6.38 0 11.61 5.22 11.61 11.61s-5.23 11.61-11.61 11.61zM578.9 480.57H416.38c-6.38 0-11.61-5.22-11.61-11.61 0-6.38 5.22-11.61 11.61-11.61H578.9c6.38 0 11.61 5.22 11.61 11.61s-5.23 11.61-11.61 11.61zM584.67 529.59H410.61c-3.21 0-5.83-2.63-5.83-5.83v-11.55c0-3.21 2.63-5.83 5.83-5.83h174.07c3.21 0 5.83 2.63 5.83 5.83v11.55c0 3.2-2.63 5.83-5.84 5.83zM558.26 588.92H251.29c-6.38 0-11.61-5.22-11.61-11.61 0-6.38 5.22-11.61 11.61-11.61h306.98c6.38 0 11.61 5.22 11.61 11.61-.01 6.39-5.23 11.61-11.62 11.61zM558.26 637.93H251.29c-6.38 0-11.61-5.22-11.61-11.61 0-6.38 5.22-11.61 11.61-11.61h306.98c6.38 0 11.61 5.22 11.61 11.61-.01 6.39-5.23 11.61-11.62 11.61z"/><g><path class="st9" d="M776.06 802.22H496.43c0 19.54 15.98 35.52 35.52 35.52h279.64c-19.54 0-35.53-15.99-35.53-35.52z"/><path d="M847.01 311.45c0-12.66 10.19-23.04 22.77-23.39H556.45c-.22-.01-.43-.03-.65-.03-.22 0-.43.03-.65.03-12.58.35-22.77 10.72-22.77 23.39v.48l-.05.05v490.23h243.73c0 19.54 15.99 35.52 35.52 35.52 19.54 0 35.52-15.99 35.52-35.52V322.68l1.14-1.72h-1.23v-9.51zM667.57 710.62c0-2.83 2.31-5.14 5.14-5.14h141.63c2.83 0 5.14 2.31 5.14 5.14 0 2.83-2.31 5.14-5.14 5.14H672.71c-2.83 0-5.14-2.31-5.14-5.14zm5.14-162.19h141.63c.19 0 .36.04.55.06h.06c2.66 0 4.82 2.16 4.82 4.82 0 1.16-.43 2.21-1.11 3.05-.92 1.42-2.5 2.36-4.31 2.36H672.71c-2.83 0-5.14-2.31-5.14-5.14s2.31-5.15 5.14-5.15zm0 18.28h141.63c2.83 0 5.14 2.31 5.14 5.14 0 2.83-2.31 5.14-5.14 5.14H672.71c-2.83 0-5.14-2.31-5.14-5.14 0-2.83 2.31-5.14 5.14-5.14zm0 23.41h141.63c.5 0 .98.1 1.44.23 2.26.39 3.99 2.36 3.99 4.73 0 1.4-.61 2.66-1.57 3.54-.94 1.08-2.31 1.78-3.85 1.78H672.71c-2.83 0-5.14-2.31-5.14-5.14 0-2.82 2.31-5.14 5.14-5.14zm0 25.13h1.69c.35-.08.72-.14 1.1-.14h9.02v.14h15.73c0-.05-.01-.09-.01-.14h114.7c2.66 0 4.82 2.16 4.82 4.82 0 .89-.26 1.71-.68 2.43-.78 1.86-2.61 3.17-4.74 3.17H672.71c-2.83 0-5.14-2.31-5.14-5.14s2.31-5.14 5.14-5.14zm0 70.81h141.63c2.83 0 5.14 2.31 5.14 5.14 0 2.83-2.31 5.14-5.14 5.14h-84.37c.1.06.19.12.28.18H675.5c-.43 0-.85-.08-1.25-.18h-1.54c-2.83 0-5.14-2.31-5.14-5.14 0-2.82 2.31-5.14 5.14-5.14zm142.23-172.7H675.5c-2.66 0-4.82-2.16-4.82-4.82s2.16-4.82 4.82-4.82h139.44c2.66 0 4.82 2.16 4.82 4.82s-2.16 4.82-4.82 4.82zm-143.57-30.29l20.78-41.17 15.51 30.72 10.14-20.09 15.41 30.54h-61.84zm18.13-187.79c1.44 0 2.61 1.17 2.61 2.61s-1.17 2.61-2.61 2.61-2.61-1.17-2.61-2.61 1.17-2.61 2.61-2.61zm-15.49 63.89h100.76c2.66 0 4.82 2.16 4.82 4.82s-2.16 4.81-4.82 4.81H674.01c-2.66 0-4.82-2.16-4.82-4.81 0-2.67 2.16-4.82 4.82-4.82zm0 18.73h155.86c2.66 0 4.82 2.16 4.82 4.82s-2.16 4.82-4.82 4.82H674.01c-2.66 0-4.82-2.16-4.82-4.82 0-2.67 2.16-4.82 4.82-4.82zm117.72 378.67H674.87c-2.31 0-4.19-1.88-4.19-4.19 0-2.31 1.88-4.19 4.19-4.19h116.86c2.32 0 4.19 1.88 4.19 4.19.01 2.31-1.87 4.19-4.19 4.19zm23.21-18.26H675.5c-2.66 0-4.82-2.16-4.82-4.82s2.16-4.82 4.82-4.82h139.44c2.66 0 4.82 2.16 4.82 4.82s-2.16 4.82-4.82 4.82z" fill="#fefaf6"/><circle class="st11" cx="689.5" cy="297.89" r="2.61"/><path class="st12" d="M814.94 503.72H675.5c-2.66 0-4.82 2.16-4.82 4.82s2.16 4.82 4.82 4.82h139.44c2.66 0 4.82-2.16 4.82-4.82s-2.16-4.82-4.82-4.82z"/><path class="st7" d="M674.01 387.53h155.86c2.66 0 4.82-2.16 4.82-4.82s-2.16-4.82-4.82-4.82H674.01c-2.66 0-4.82 2.16-4.82 4.82s2.16 4.82 4.82 4.82z"/><path d="M674.01 368.8h100.76c2.66 0 4.82-2.16 4.82-4.81 0-2.66-2.16-4.82-4.82-4.82H674.01c-2.66 0-4.82 2.16-4.82 4.82 0 2.65 2.16 4.81 4.82 4.81z" fill="#4baafc"/><path fill="#fe920d" d="M692.15 441.91l-20.78 41.16h31.01l5.28-10.44z"/><path class="st12" d="M733.21 483.07l-15.41-30.53-10.14 20.09-5.28 10.44h10.55z"/><path class="st7" d="M791.73 748.19H674.87c-2.31 0-4.19 1.88-4.19 4.19 0 2.31 1.88 4.19 4.19 4.19h116.86c2.32 0 4.19-1.88 4.19-4.19.01-2.32-1.87-4.19-4.19-4.19z"/><path class="st12" d="M814.94 728.67H675.5c-2.66 0-4.82 2.16-4.82 4.82s2.16 4.82 4.82 4.82h139.44c2.66 0 4.82-2.16 4.82-4.82s-2.16-4.82-4.82-4.82z"/><path d="M933.54 763.24c.01-.01.03-.02.05-.04.03-.03.05-.07.08-.1-.05.05-.08.1-.13.14z" fill="#0f3872"/><path class="st9" d="M870.43 288.03c-.22 0-.43.03-.65.03-12.58.35-22.77 10.72-22.77 23.39v9.51h18.98c10.64 0 20.37 3.89 27.86 10.32v-19.83c-.01-12.88-10.54-23.42-23.42-23.42z"/><path class="st12" d="M667.57 553.57c0 2.83 2.31 5.14 5.14 5.14h141.63c1.8 0 3.39-.95 4.31-2.36.69-.83 1.11-1.88 1.11-3.05 0-2.66-2.16-4.82-4.82-4.82h-.06c-.18-.02-.36-.06-.55-.06H672.71c-2.83.01-5.14 2.33-5.14 5.15zM672.71 576.99h141.63c2.83 0 5.14-2.31 5.14-5.14 0-2.83-2.31-5.14-5.14-5.14H672.71c-2.83 0-5.14 2.31-5.14 5.14 0 2.83 2.31 5.14 5.14 5.14zM672.71 600.4h141.63c1.54 0 2.91-.7 3.85-1.78.96-.88 1.57-2.13 1.57-3.54 0-2.38-1.72-4.34-3.99-4.73-.46-.14-.93-.23-1.44-.23H672.71c-2.83 0-5.14 2.31-5.14 5.14 0 2.83 2.31 5.14 5.14 5.14zM672.71 625.53h141.63c2.13 0 3.97-1.31 4.74-3.17.42-.72.68-1.54.68-2.43 0-2.66-2.16-4.82-4.82-4.82h-114.7c0 .05 0 .09.01.14h-15.73v-.14h-9.02c-.38 0-.74.05-1.1.14h-1.69c-2.83 0-5.14 2.31-5.14 5.14s2.31 5.14 5.14 5.14zM672.71 696.34h1.54c.4.11.81.18 1.25.18h54.75c-.1-.06-.19-.12-.28-.18h84.37c2.83 0 5.14-2.31 5.14-5.14 0-2.83-2.31-5.14-5.14-5.14H672.71c-2.83 0-5.14 2.31-5.14 5.14 0 2.83 2.31 5.14 5.14 5.14zM819.47 710.62c0-2.83-2.31-5.14-5.14-5.14H672.71c-2.83 0-5.14 2.31-5.14 5.14 0 2.83 2.31 5.14 5.14 5.14h141.63c2.82 0 5.13-2.31 5.13-5.14z"/></g><g><path class="st16" d="M627.48 305.67l37.37 10.65-47.58 100.02-28.09-.13-47.94-55.59 32.87-13.31c.95 1.28 19 25.58 20.04 25.59.07-1.55 31.67-63.95 33.33-67.23z"/></g><g><path class="st16" d="M627.48 488.75l37.37 10.65-47.58 100.02-28.09-.13-47.94-55.59 32.87-13.31c.95 1.28 19 25.58 20.04 25.59.07-1.55 31.67-63.95 33.33-67.23z"/></g><g><path class="st16" d="M627.48 641.55l37.37 10.65-47.58 100.02-28.09-.13-47.94-55.59 32.87-13.31c.95 1.28 19 25.58 20.04 25.59.07-1.55 31.67-63.95 33.33-67.23z"/></g><g><path d="M125.94 907.09c-7.95 26.08-11.71 39.48-11.5 40.96.11.8.8 1.4 1.6 1.4.07 0 .15-.01.24-.02.81-.11 1.41-.82 1.4-1.63v-.15l.02-.15c.13-1 .52-4.04 11.46-39.81l.46-1.52h78.13l-.84 2.77c-7.57 24.87-11.14 37.66-10.94 39.11.11.8.8 1.4 1.61 1.4.07 0 .15-.01.23-.02.81-.11 1.41-.82 1.4-1.63v-.15l.02-.15c.65-5.07 13.85-48.4 39.24-128.8l.27-.87.82-.41c.56-.28.92-.83.92-1.45 0-.25-.07-.51-.21-.77l-.44-.8.28-.87c8-25.33 17.03-53.74 26.82-84.44l.12-.38.25-.31c.16-.2.34-.51.36-.91l-.04-.57.12-.37c16.78-52.58 35.66-111.43 53.18-165.72.13-.41.1-.85-.1-1.24s-.53-.67-.95-.81c-.41-.13-.85-.1-1.23.1-.39.2-.68.54-.81.95l-.26.81c-.97 3-4.56 14.13-9.92 30.8l-.48 1.49h-78.11l.9-2.81c3.23-10.02 6.38-19.81 9.44-29.29.13-.41.1-.85-.1-1.24s-.53-.67-.95-.81c-.41-.13-.85-.1-1.23.1-.39.2-.67.54-.81.95-.18.55-10.31 31.95-24.61 76.49l-.24.74-.65.42c-.47.3-.75.81-.75 1.36 0 .2.04.4.12.6l.29.72-.24.74c-12.62 39.31-24.46 76.34-35.2 110.05-21.57 67.72-37.53 118.47-47.45 150.83l-.28.91-.86.41c-.58.27-.94.83-.94 1.46 0 .28.08.56.24.82l.49.82-.29.89zm166.94-269.78l-1.65-.08c-.06 0-.11-.01-.17-.01h-76.27l.9-2.81c4-12.46 7.95-24.75 11.81-36.74l.48-1.49h78.11l-.9 2.81c-3.43 10.65-7.42 23.08-11.81 36.75l-.5 1.57zm-14.16 44.19H200.6l.9-2.8c3.94-12.32 7.88-24.6 11.78-36.74l.48-1.49h78.12l-.9 2.8c-3.71 11.56-7.67 23.9-11.78 36.74l-.48 1.49zm-14.16 44.28h-78.12l.89-2.8c3.89-12.18 7.81-24.46 11.74-36.74l.48-1.49h78.12l-.9 2.8c-3.82 11.95-7.76 24.26-11.74 36.73l-.47 1.5zm-14.11 44.29h-78.11l.89-2.8c3.83-12.04 7.74-24.32 11.7-36.74l.48-1.49h78.12l-13.08 41.03zm-14.04 44.28H158.3l.88-2.8c3.74-11.85 7.64-24.14 11.64-36.74l.48-1.5h78.11l-.89 2.8c-4.21 13.25-8.08 25.46-11.64 36.73l-.47 1.51zm-13.94 44.28h-78.11l.87-2.79c3.62-11.56 7.5-23.87 11.58-36.79l.54-1.71 1.78.23 76.24.03-.88 2.8c-4.31 13.65-8.15 25.85-11.55 36.73l-.47 1.5zm-91.86 44.29l.86-2.78c3.33-10.83 7.17-23.18 11.41-36.75l.47-1.51h78.11l-.87 2.79c-4.41 14.13-8.25 26.5-11.4 36.78l-.62 1.74-1.82-.25-76.14-.02z" fill="#005ef0"/></g><g><path transform="rotate(18.738 386.721355 940.103231)" class="st18" d="M382.81 934.93h7.95v10.34h-7.95z"/><path class="st19" d="M412.94 784.96c-1.13.09 10.19 57.84 5.1 75.39-5.1 17.55-23.21 81.24-23.21 81.24l-15.85-5.1s8.49-51.24 11.32-63.41c2.83-12.17-9.06-44.44-9.06-44.44L392 783.91l20.94 1.05z"/><path class="st20" d="M356.61 784.48s.28 32.84.85 56.61c.57 23.78-1.98 102.47-1.98 102.47l11.89-.28 29.72-158.8h-40.48z"/><path class="st21" d="M362.01 948.65c2.63 0 5.25-.42 6.02 0 .76.42 14.83 5.59 15 6.78s2.03 3.05-2.8 2.97c-4.83-.08-22.12 1.36-23.22.76-1.1-.59-.59-10 .34-10.34.93-.34 4.66-.17 4.66-.17zM384.99 942.91c2.51.77 5.15 1.13 5.75 1.76.61.63 11.1 5.76 13.05 7.96.59.66 2.03 2.8-2.97 3.39-1.8.21-6.47.1-10.18-.81-6.16-1.52-12.96-3.16-13.51-3.71-.88-.89 2.36-9.74 3.35-9.79s4.51 1.2 4.51 1.2z"/><path class="st18" d="M447.19 753.25s11.89-2.55 12.46-1.42c.57 1.13-1.42 2.83-1.42 2.83s10.47 0 11.04 1.42c.57 1.42-9.62 9.34-19.53 8.21-9.91-1.13-17.55-7.08-17.55-7.08l8.21-4.25 6.79.29z"/><path class="st22" d="M381.43 688.9c2.29.57 14.34 7.36 12.08 12.83s9.06 28.5 9.06 28.5l38.88 21.14-8.3 9.62s-48.88-12.27-50.58-18.49c-1.7-6.23-10.95-17.17-6.79-35.1 4.14-17.93-2.66-20.58 5.65-18.5z"/><path class="st18" d="M378.52 678.2l5.3-11.29 1.54-3.59-3.25-7.18 14.19-8.38 15.91-.68 2.39 5.3s-.86 26.51-10.09 26.34c-9.24-.17-11.12-.68-11.12-.68l-.68 3.25 2.05 3.25s-9.58 1.71-14.71-.86c-5.12-2.58-1.53-5.48-1.53-5.48z"/><path class="st19" d="M398.03 649.26s16.83 4.83 17.88 1.81c1.05-3.02 1.91-8.62 1.91-8.62s-9.4-.42-14.41-2.45c-5.01-2.03-20.79-7.3-22.18 3.92-1.39 11.22.17 27.26.17 27.26l3.5-1.15.35-10.95s.9-6.11 3.86-4.21c2.97 1.9-.95 25.99-.95 25.99s12.88 6.86 17.14 4.56c4.26-2.3 6.39-14.2 6.39-14.2s-7.61-1.01-9.79 1.08-7.48-.98-7.48-.98l3.61-22.06z"/><path class="st23" d="M393.88 683.05s8.49 6.23 9.44 8.49c.94 2.26 8.78 76.81 8.78 76.81l3.53 27.51-61.69-1.33s12.59-98.65 13.34-99.59c.75-.94 11.32-16.23 12.64-15.85 1.32.37 6.41 5.28 13.96 3.96z"/><path class="st20" d="M431.8 719.77v5.13c8.16 0 15.46 3.65 20.37 9.4 5.75 4.91 9.4 12.21 9.4 20.37 0 14.78-11.99 26.77-26.77 26.77-1.01 0-2.01-.06-3-.17v2.3c17.62 0 31.9-14.28 31.9-31.9 0-17.62-14.28-31.9-31.9-31.9z"/><path class="st7" d="M432.45 726.67V728c.77-.07 1.56-.1 2.35-.1 3.28 0 6.41.59 9.32 1.67.12-.16.34-.21.51-.11.14.08.21.23.19.38 2.7 1.09 5.17 2.6 7.35 4.46-4.91-5.75-12.21-9.4-20.37-9.4v1.12c.36 0 .65.3.65.65z"/><path class="st20" d="M431.8 778.44v2.83c.98.11 1.98.17 3 .17 14.78 0 26.77-11.99 26.77-26.77 0-8.16-3.65-15.46-9.4-20.37 3.99 4.68 6.4 10.74 6.4 17.37 0 14.79-11.98 26.77-26.77 26.77z"/><path class="st11" d="M444.77 729.99l-1.05 1.81c-.11.19-.35.25-.54.14-.19-.11-.25-.35-.14-.54l1.05-1.81c.01-.01.02-.02.02-.03-2.9-1.08-6.04-1.67-9.32-1.67-.79 0-1.58.04-2.35.1v2.1c0 .36-.29.65-.65.65v17.02l3.78-10.38-2.27 12.89c.09.09.16.2.23.31.5.87.2 1.97-.66 2.47-.09.05-.19.1-.28.13l-.79.37v19.02c.36 0 .65.29.65.65v3.44c0 .36-.29.65-.65.65v1.12c14.78 0 26.77-11.99 26.77-26.77 0-6.63-2.41-12.7-6.4-17.37-2.18-1.86-4.65-3.37-7.35-4.46-.01.06-.02.12-.05.16zm12.68 21.68c0 .36-.29.65-.65.65h-3.44c-.36 0-.65-.29-.65-.65 0-.36.29-.65.65-.65h3.44c.36.01.65.3.65.65zm-5.78-11.92l1.81-1.05c.19-.11.43-.04.54.14.11.19.04.43-.14.54l-1.81 1.05c-.19.11-.43.04-.54-.14-.12-.19-.05-.43.14-.54zm-.15 23.31c.11-.19.35-.25.54-.14l1.81 1.05c.19.11.25.35.14.54-.11.19-.35.25-.54.14l-1.81-1.05c-.18-.11-.25-.35-.14-.54zm-6.89 10.83c-.19.11-.43.04-.54-.14l-1.05-1.81c-.11-.19-.04-.43.14-.54.19-.11.43-.04.54.14l1.05 1.81c.11.19.04.43-.14.54z"/><path class="st20" d="M414.43 772.04c-5.75-4.91-9.4-12.21-9.4-20.37 0-14.78 11.99-26.77 26.77-26.77v-5.13c-17.62 0-31.9 14.28-31.9 31.9 0 17.62 14.28 31.9 31.9 31.9v-2.3c-6.94-.77-13.07-4.19-17.37-9.23z"/><path class="st7" d="M405.03 751.67c0 8.16 3.65 15.46 9.4 20.37-1.86-2.18-3.37-4.65-4.46-7.35-.15.02-.3-.05-.38-.19-.1-.18-.05-.4.11-.51-1.08-2.9-1.67-6.04-1.67-9.32 0-.79.04-1.57.1-2.35 0 0 0-.01-.01-.01h-1.3c-.33 0-.62-.23-.66-.56-.05-.39.26-.73.64-.73h1.48c1.62-11.87 11.01-21.26 22.88-22.87v-1.48c0-.36.29-.65.65-.65v-1.12c-14.79 0-26.78 11.99-26.78 26.77zm7.05-11.38c-.11.19-.35.25-.54.14l-1.81-1.05c-.19-.11-.25-.35-.14-.54s.35-.25.54-.14l1.81 1.05c.18.11.25.35.14.54zm6.89-10.83c.19-.11.43-.04.54.14l1.05 1.81c.11.19.04.43-.14.54-.19.11-.43.04-.54-.14l-1.05-1.81c-.11-.19-.04-.43.14-.54z"/><path class="st20" d="M414.43 772.04c4.3 5.04 10.43 8.46 17.37 9.23v-2.83c-6.63 0-12.69-2.41-17.37-6.4z"/><path class="st11" d="M431.8 777.32c-.36 0-.65-.29-.65-.65v-3.44c0-.36.29-.65.65-.65v-19.02l-17.71 8.25 16.71-11.71c.06-.05.12-.09.19-.14l.8-2.21v-17.02c-.36 0-.65-.29-.65-.65v-1.96c-11.87 1.62-21.26 11.01-22.88 22.87 0 0 0 .01.01.01h1.93c.33 0 .63.24.67.56.05.39-.26.73-.64.73h-2.1l-.01.01c-.07.77-.1 1.56-.1 2.35 0 3.28.59 6.41 1.67 9.32.01-.01.02-.02.03-.02l1.8-1.04c.18-.1.41-.07.53.1.14.19.08.46-.12.57l-1.81 1.05c-.05.03-.1.04-.15.05 1.09 2.7 2.6 5.17 4.46 7.35 4.68 3.99 10.74 6.4 17.37 6.4v-1.11zm-11.24-5.39l-1.05 1.81c-.11.19-.35.25-.54.14-.19-.11-.25-.35-.14-.54l1.05-1.81c.11-.19.35-.25.54-.14.18.11.25.36.14.54z"/><path class="st20" d="M432.45 728v-1.33c0-.36-.29-.65-.65-.65v2.04c.21-.02.43-.04.65-.06z"/><path class="st20" d="M431.8 730.75c.36 0 .65-.29.65-.65V728c-.22.02-.43.04-.65.06v2.69zM431.8 726.02c-.36 0-.65.29-.65.65v1.48c.21-.03.43-.06.65-.08v-2.05z"/><path class="st20" d="M431.8 730.75v-2.69c-.22.02-.43.05-.65.08v1.96c0 .36.29.65.65.65zM419.88 731.81c.11.19.35.25.54.14.19-.11.25-.35.14-.54l-1.05-1.81c-.11-.19-.35-.25-.54-.14-.19.11-.25.35-.14.54l1.05 1.81zM443.72 771.54c-.11-.19-.35-.25-.54-.14-.19.11-.25.35-.14.54l1.05 1.81c.11.19.35.25.54.14.19-.11.25-.35.14-.54l-1.05-1.81zM409.58 764.5c.08.14.23.21.38.19-.09-.23-.19-.47-.27-.71-.16.12-.21.34-.11.52z"/><path class="st20" d="M411.93 763.6c.19-.11.25-.35.14-.54-.11-.19-.35-.25-.54-.14l-1.81 1.05c-.01.01-.02.02-.03.02.09.24.18.47.27.71.05-.01.1-.02.15-.05l1.82-1.05zM451.52 740.29c.11.19.35.25.54.14l1.81-1.05c.19-.11.25-.35.14-.54-.11-.19-.35-.25-.54-.14l-1.81 1.05c-.18.11-.25.35-.14.54zM431.15 773.24v3.44c0 .36.29.65.65.65v-4.73c-.36-.01-.65.28-.65.64zM432.45 776.68v-3.44c0-.36-.29-.65-.65-.65v4.73c.36 0 .65-.29.65-.64zM452.72 751.67c0 .36.29.65.65.65h3.44c.36 0 .65-.29.65-.65 0-.36-.29-.65-.65-.65h-3.44c-.36.01-.65.3-.65.65zM406.8 751.03c-.38 0-.69.34-.64.73.04.33.34.56.66.56h1.31c.04-.43.08-.86.14-1.28 0 0 0-.01-.01-.01h-1.46z"/><path class="st20" d="M410.88 751.59c-.04-.33-.34-.56-.67-.56h-1.93-.01c-.06.42-.11.85-.14 1.28 0 0 0 .01.01.01h2.1c.38 0 .69-.34.64-.73zM411.93 739.75l-1.81-1.05c-.19-.11-.43-.04-.54.14s-.04.43.14.54l1.81 1.05c.19.11.43.04.54-.14.12-.19.05-.43-.14-.54zM451.67 763.6l1.81 1.05c.19.11.43.04.54-.14.11-.19.04-.43-.14-.54l-1.81-1.05c-.19-.11-.43-.04-.54.14-.12.19-.05.43.14.54zM420.41 771.4c-.19-.11-.43-.04-.54.14l-1.05 1.81c-.11.19-.04.43.14.54.19.11.43.04.54-.14l1.05-1.81c.12-.19.05-.44-.14-.54zM444.63 729.46c-.18-.1-.4-.05-.51.11.24.09.47.18.71.27.01-.15-.06-.3-.2-.38zM443.04 731.41c-.11.19-.04.43.14.54.19.11.43.04.54-.14l1.05-1.81c.03-.05.04-.1.05-.15-.23-.09-.47-.19-.71-.27-.01.01-.02.02-.02.03l-1.05 1.8zM431.39 753.02c-.7-.19-1.11-.9-.92-1.6.02-.07.05-.15.08-.21l.45-1.23c-.07.04-.13.09-.19.14l-16.71 11.71 17.71-8.25v-.51c-.14 0-.28-.01-.42-.05z"/><path class="st20" d="M432.99 752.1c-.15.56-.64.94-1.19.97v.51l.79-.37c.1-.04.19-.08.28-.13.87-.5 1.16-1.61.66-2.47-.07-.11-.14-.22-.23-.31l-.28 1.59c0 .06-.01.13-.03.21zM431.07 749.93c.23-.13.48-.21.73-.23v-1.93l-.8 2.21c.02-.02.04-.03.07-.05zM433.31 750.28l2.27-12.89-3.78 10.38v1.93c.56-.05 1.12.16 1.51.58z"/><path class="st20" d="M430.47 751.42c-.19.7.23 1.41.92 1.6.14.04.27.05.41.04v-.54c-.47 0-.85-.38-.85-.85s.38-.85.85-.85v-1.12c-.25.02-.5.1-.73.23-.02.01-.05.03-.07.04l-.45 1.23c-.03.08-.06.15-.08.22z"/><path class="st20" d="M431.8 749.7v1.12c.47 0 .85.38.85.85s-.38.85-.85.85v.54c.55-.03 1.04-.41 1.19-.97.02-.07.03-.15.04-.22l.28-1.59c-.39-.42-.95-.63-1.51-.58z"/><path class="st24" d="M432.65 751.67c0-.47-.38-.85-.85-.85v1.7c.47 0 .85-.38.85-.85z"/><path class="st24" d="M430.95 751.67c0 .47.38.85.85.85v-1.7c-.47 0-.85.38-.85.85z"/><path class="st18" d="M412.09 768.35s11.89-2.55 12.46-1.42c.57 1.13-1.42 2.83-1.42 2.83s10.47 0 11.04 1.42c.57 1.42-9.62 9.34-19.53 8.21-9.91-1.13-17.55-7.08-17.55-7.08l8.21-4.25 6.79.29z"/><path class="st22" d="M377.84 679.46c2.29.57 5.85 5.47 3.59 10.95-2.26 5.47-13.96 54.92-13.96 54.92l38.88 21.14-8.3 9.62s-48.88-12.27-50.58-18.49c-1.7-6.23.75-27.74 4.91-45.67 4.14-17.94 17.16-34.54 25.46-32.47z"/></g><g><path class="st18" d="M460.27 266.63c-.21 2.55-.64 4.8-1.14 6.71v16.72l3.39-1.29c11.15-10.49 11.86-24.29 10.98-32.68l-13.37 1.73c.35 3.25.35 6.19.14 8.81z"/><path d="M387.82 309.67c-5.94.64-11.46 1.39-16.47 2.24.14.3.22.47.22.47l-.36.28c2.95-.53 6.35-.42 9.16.09 5.99 1.09 14.7 3.08 14.7 3.08l.1.86 11.59-.73-.03-.25s.27-.17.77-.47c-6.29-1.39-12.18-2.93-16.92-4.61-.93-.33-1.85-.65-2.76-.96z" fill="#ffdeed"/><path class="st18" d="M404.81 284.37l.42-3.19.03-1.47c-.59-.58-2.78-3.04-3.06-7.93-.08-1.39 1.06-7.09 1.37-8.89l-13.39.39c-.45 5.64.37 12.18 4.36 18.28 3.34.76 6.78 1.72 10.27 2.81z"/><path class="st26" d="M409.21 264.54h8.03c-.6-.2-1.13-.59-1.47-1.2-.99-1.82-2.41-3.31-3.83-4.8-1.24-3.63-3.49-9.38-3.49-9.38l.45 6.19-.61 1.1.15 1.32.77 6.77zM458.44 264.54l-.18-9.25 2.73 1.4c.21.11.42-.14.28-.33-1.39-1.94-2.88-5.67-3.73-7.06-.57-.93-.87-1.99-1.18-3.03-.03-.1-.18-.49-.32-.87-.18.42-.33.82-.24.6-.25.59-.24 1.37-.28 1.99-.1 1.55-.05 3.11-.01 4.67.09 3.19.43 6.51-.3 9.65-.52 2.21-3.11 2.45-4.63 1.22-2.45-1.98-5.58-3.28-7.7-5.55-3.02 1.79-6.31 3.11-9.56 4.41-1.48.59-2.95-.65-3.41-1.94-.18-.5-.33-1-.46-1.51-2.45 1.55-5.06 2.36-7.46 1.39-.42 1.02-.88 2.03-1.43 3-.34.6-.88 1-1.49 1.2h39.37z"/><path class="st19" d="M433.44 279.78c0-1.1-.89-2-2-2-1.1 0-2 .89-2 2 0 1.1.89 2 2 2 1.11 0 2-.89 2-2z"/><path class="st18" d="M457.58 322.08l17.19.53-.73-5.99.9-.22.01-.32-10.63-1.9c-1.67.36-3.44.73-5.29 1.12l-1.45 6.78zM395.17 316.69l.62 5.13-.76.19 12.61.74-.88-6.79z"/><path class="st19" d="M387.82 309.67c.91.31 1.83.63 2.76.96 4.74 1.67 10.63 3.22 16.92 4.61 3.18-1.95 15.85-9.56 30.35-16.25-10.47-5-23.35-10.61-35.66-14.5-.12-.04-.24-.08-.36-.11-3.49-1.1-6.93-2.05-10.26-2.81-4.73-1.09-9.22-1.78-13.29-1.94-4.87-.19-9.12.39-12.43 2-2.28 1.11-4.12 2.71-5.4 4.88-4.07 6.93-1.8 11.08 4.24 14.48.75.42 1.55.83 2.41 1.23 5.28 2.47 12.56 4.66 20.72 7.45zM434.98 320.2c12.61 1.9 22.38 2.96 22.38 2.96l.23-1.08 1.45-6.78c-7.41 1.54-16.03 3.29-24.06 4.9z"/><path class="st20" d="M498.47 281.78c-3.97-1.39-9.15-.99-14.95.37-1.81.42-3.69.94-5.6 1.53-4.63 1.42-9.52 3.23-14.41 5.09l-3.39 1.29c-2.52.96-5.02 1.91-7.48 2.79-4.94 1.78-9.97 3.91-14.79 6.14-14.49 6.69-27.17 14.3-30.35 16.25-.5.31-.77.47-.77.47l.03.25.88 6.79.36 2.76s12.53-2.43 26.98-5.32c8.03-1.6 16.66-3.35 24.06-4.9 1.85-.39 3.62-.76 5.29-1.12 6.93-1.49 12.06-2.67 13.35-3.18 1-.39 2.79-1.09 4.99-2.03 5.7-2.41 14.19-6.4 19.19-10.81.83-.73 1.56-1.47 2.16-2.21 1.52-1.87 2.27-3.78 1.78-5.64-.15-.58-.33-1.13-.52-1.65-.68-1.82-1.62-3.27-2.77-4.4-.44-.44-.92-.82-1.43-1.17-.7-.48-1.47-.87-2.28-1.18l-.33-.12z"/><path class="st21" d="M474.77 322.61s8.71 2 14.7 3.08c5.99 1.09 14.7.36 15.97-4.54 1.27-4.9-5.08-7.8-7.44-8.71-2.36-.91-19.6 3.08-19.6 3.08l-3.46.86-.9.22.73 6.01zM395.17 316.69l-.1-.86s-8.71-2-14.7-3.08c-2.8-.51-6.2-.62-9.16-.09-.51.09-1.01.2-1.49.34-2.66.73-4.75 2.09-5.32 4.29-1.27 4.9 5.08 7.8 7.44 8.71 2.36.91 19.6-3.08 19.6-3.08l3.6-.9.76-.19-.63-5.14z"/><path d="M406.06 265.25l1.71-7.85.53-.95.61-1.1-.45-6.19s2.25 5.75 3.49 9.38c1.42 1.49 2.83 2.98 3.83 4.8.33.61.87 1 1.47 1.2h1.83c.61-.2 1.15-.6 1.49-1.2.54-.97 1.01-1.98 1.43-3 2.4.97 5.01.16 7.46-1.39.13.5.28 1.01.46 1.51.46 1.29 1.93 2.53 3.41 1.94 3.25-1.31 6.54-2.63 9.56-4.41 2.12 2.27 5.25 3.57 7.7 5.55 1.52 1.23 4.11.99 4.63-1.22.74-3.14.39-6.46.3-9.65-.04-1.55-.09-3.12.01-4.67.04-.62.03-1.4.28-1.99-.09.21.05-.18.24-.6.14.39.29.78.32.87.32 1.04.62 2.1 1.18 3.03.85 1.39 2.34 5.12 3.73 7.06.14.19-.08.44-.28.33l-2.73-1.4.18 9.25h.11l-.01-.95-.04-5.42 1 1.26-.37 3.97 16.24-1.61s-3.74-16.46-5.46-20.09c-.93-1.95-3.24-6.06-3.97-7.44-3.46-6.57-25.49-11.65-27.45-11.93l-.07.66c-.3 2.69-1.66 5.03-3.63 6.62-.27.24-.55.46-.85.65-.18.11-.37.21-.56.3-1.43.79-3.06 1.24-4.79 1.24-3.92 0-7.37-2.3-8.96-5.69l-.43-1.64s-.65.73-.86.77c-.17.03-.39.08-.68.13-3.43.7-14.61 3.11-17.43 5.53-.28.24-.56.5-.84.77-7.61 7.32-9.01 23.42-10.57 29.43-.42 1.59-.62 2.55-.62 2.55l17.85 1.59z" fill="#ff9a00"/><path class="st18" d="M439.83 209.65v.67l.07-.67h-.07z"/><path class="st18" d="M431.08 223.97c-.87.47-1.83.75-2.9.77-1.23.01-2.31-.35-3.26-.94-6.8-1.47-6.8-7.35-6.8-7.35v-8.54c1.23.38 1.14 1.9 1.14 1.9 0 4.36 1.61 4.17 1.61 4.17s1.99-.19 2.18-2.56c.19-2.37 2.09-2.84 2.09-2.84h7.59c2.84 0 2.66 5.03 4.08 5.03s1.71-2.28 1.71-3.79c0-1.52 1.33-1.99 1.33-1.99v1.14c.2-.1.44-.22.7-.4 2.19-1.45 2.54-7.39 1.47-7.79-1.07-.4-.98 1.17-1.1 3.59-.06 1.19-.61 1.67-1.16 1.84v-11.27c-.71-.68-1.36-1.53-1.89-2.52-.02-.04-.04-.07-.06-.11-.07-.13-.14-.26-.2-.39-.07-.15-.14-.31-.21-.47-.01-.03-.02-.05-.03-.07-.29-.7-.5-1.4-.65-2.09-.02-.09-.04-.17-.05-.26-2.25.53-4.82.84-7.54.84-3.23 0-6.24-.43-8.77-1.16-.01.08-.03.16-.04.24-.11.68-.29 1.37-.55 2.07-.06.17-.12.34-.19.5 0 .01-.01.02-.01.03-.08.18-.16.37-.25.54-.07.15-.15.3-.23.44-.02.03-.03.06-.05.09-.57 1.05-1.27 1.94-2.03 2.63v10.98c-.55-.18-1.1-.65-1.16-1.84-.12-2.42-.02-3.99-1.1-3.59-1.07.4-.72 6.34 1.47 7.79.31.2.56.34.79.44v.68h-.07l2.14 11.33.12 3.84c.14 1.02.01.38.43 1.27 1.59 3.4 5.04 5.69 8.96 5.69 1.73 0 3.37-.45 4.79-1.24.5-.28.97-.6 1.42-.95 1.97-1.59 3.33-3.93 3.63-6.62l.07-.66.23-2.06c-1.13 1.56-3.37 3.17-7.65 3.66zM443.92 191.46v-.15c.01.06 0 .11 0 .15z"/><path d="M431.08 223.97c-.86.1-1.79.15-2.82.15-1.27 0-2.38-.12-3.35-.33.95.6 2.03.95 3.26.94 1.08-.01 2.04-.3 2.91-.76z" fill="#d4a9ae"/><path class="st18" d="M443.93 191.75c0 .16 0 .32-.01.48.01-.17.01-.33.01-.48zM443.92 192.38c0 .12-.01.24-.02.37.01-.13.01-.25.02-.37zM412.83 192.24c0-.17-.01-.33-.01-.49 0 .16 0 .32.01.49zM412.85 192.78c-.01-.13-.01-.26-.02-.39.01.12.01.25.02.39z"/><path d="M416.93 209.65h.07v-.68c-.22-.1-.48-.24-.79-.44-2.19-1.45-2.54-7.39-1.47-7.79 1.07-.4.98 1.17 1.1 3.59.06 1.19.61 1.67 1.16 1.84v-10.98c.76-.69 1.46-1.58 2.03-2.63.02-.03.03-.06.05-.09.08-.15.15-.29.23-.44.09-.18.17-.36.25-.54 0-.01.01-.02.01-.03.07-.17.13-.34.19-.5.26-.7.44-1.39.55-2.07.01-.08.03-.16.04-.24 2.53.73 5.54 1.16 8.77 1.16 2.72 0 5.28-.3 7.54-.84.02.08.04.17.05.26.14.69.35 1.39.65 2.09.01.03.02.05.03.07.07.16.14.32.21.47.06.13.13.26.2.39.02.04.04.07.06.11.54.99 1.18 1.84 1.89 2.52v11.27c.55-.18 1.1-.65 1.16-1.84.12-2.42.02-3.99 1.1-3.59 1.07.4.72 6.34-1.47 7.79-.27.18-.5.31-.7.4v-1.14s-1.33.47-1.33 1.99-.28 3.79-1.71 3.79c-1.42 0-1.23-5.03-4.08-5.03h-7.59s-1.9.47-2.09 2.84c-.19 2.37-2.18 2.56-2.18 2.56s-1.61.19-1.61-4.17c0 0 .09-1.52-1.14-1.9v8.54s0 5.88 6.8 7.35c.97.21 2.08.33 3.35.33 1.03 0 1.96-.06 2.82-.15 4.28-.49 6.52-2.1 7.65-3.71.88-1.25 1.1-2.5 1.1-3.25v-6.69-.67h.07c.96-.04 1.83-.47 2.5-1.14.06-.06.12-.12.18-.19.03-.03.06-.07.09-.11.08-.1.15-.19.22-.3.54-.79.86-1.79.83-2.87l.04-2.71v-.02l.06-4.46.07-5.03v-.09c.01-.13.01-.25.02-.37 0-.05 0-.1.01-.15 0-.16.01-.33.01-.48v-.01-.27-.15c0-.09-.01-.19-.01-.28l.01-.51h-.02c-.04-.8-.14-1.59-.3-2.35-.83-4.05-3.23-7.53-6.54-9.76-.28-.19-.56-.36-.85-.53-.01 0-.01-.01-.02-.01-.14-.08-.27-.16-.42-.24-.06-.03-.12-.06-.19-.1-.03-.01-.05-.03-.08-.04-.19-.1-.37-.19-.57-.28-.04-.02-.09-.04-.13-.06-.13-.06-.26-.12-.4-.18-.04-.02-.09-.03-.13-.05-.06-.03-.13-.05-.19-.07l-.39-.15c-.04-.01-.07-.02-.11-.04-.08-.03-.16-.05-.24-.08-.15-.05-.31-.1-.46-.15-.1-.03-.19-.06-.29-.08-.12-.03-.24-.07-.36-.1-.02-.01-.05-.01-.07-.02-.11-.03-.23-.05-.35-.08l-.39-.09c-.13-.03-.27-.05-.4-.07-.12-.02-.23-.04-.35-.06-.15-.02-.31-.04-.47-.06-.1-.01-.2-.03-.3-.04-.19-.02-.38-.03-.57-.04-.07 0-.14-.01-.21-.02-.26-.01-.53-.02-.79-.02-.27 0-.53.01-.79.02-.07 0-.14.01-.21.02-.19.01-.38.02-.57.04-.1.01-.2.02-.3.04-.16.02-.31.04-.47.06-.12.02-.23.04-.35.06-.13.02-.27.04-.4.07l-.39.09c-.12.03-.23.05-.35.08-.02.01-.05.01-.07.02-.12.03-.24.07-.36.1-.1.03-.2.05-.29.08-.08.02-.15.05-.22.07-.08.03-.16.05-.24.08-.08.03-.16.05-.24.08-.17.06-.33.12-.49.19-.06.03-.13.05-.19.07-.18.07-.35.15-.53.23-.04.02-.09.04-.13.06-.19.09-.38.18-.57.28-.03.01-.05.03-.08.04l-.6.33c-.01 0-.01.01-.02.01-3.53 2.07-6.17 5.48-7.22 9.54-.26 1-.42 2.04-.47 3.1l-.02-.01.01.5c0 .09-.01.19-.01.28V191.64c0 .16 0 .32.01.49 0 .05 0 .1.01.15 0 .13.01.26.02.39v.04l.08 5.78.09 6.45c-.01 2.61 1.75 4.67 3.95 4.71z" fill="#3d3dae"/><path class="st11" d="M402.29 279.71c-.01.49-.02.99-.03 1.47-.02 1.14-.05 2.25-.07 3.3 12.31 3.89 25.18 9.49 35.66 14.5 4.82-2.23 9.85-4.35 14.79-6.14 2.45-.89 4.96-1.83 7.48-2.79v-25.52H402.59l-.03 2.19c-.03 1.65-.08 4.09-.14 6.82-.05 1.98-.09 4.1-.13 6.17zm27.16.07c0-1.1.89-2 2-2 1.1 0 2 .89 2 2 0 1.1-.89 2-2 2-1.11 0-2-.89-2-2z"/></g><g><path class="st30" d="M826.8 949.88c-3.48 1.97-8.69 4.81-12.91 6.59-6.98 2.94-5.18 6.6-3.31 7.72 1.87 1.12 22.1-.25 27.19-5.49.99-1.02 1.06-2.93.88-4.59-3.65-1.18-10.94-3.55-11.78-3.83-.03-.01-.05-.15-.07-.4zM882.58 951.97c-2.89 2.3-6.67 4.9-10.23 6.15-6.8 2.39-4.63 5.68-2.76 6.8s20.47-.42 24.99-5.57c.94-1.07.01-4.21-1-6.84-2.32-.08-9.63-.35-10.89-.35-.03 0-.07-.08-.11-.19z"/><path d="M853.99 786.83l.37 20.09s-17.37-1.89-19.68-1.98c-1.18 19.18-8.36 137.25-7.87 144.94.02.25.04.4.07.41.84.28 8.13 2.64 11.78 3.83 1.24.4 2.06.67 2.06.67l23.72-137.48-6.26-31.09-4.19.61z" fill="#2a70b6"/><path d="M874.62 783.75l-16.45 2.45 6.26 31.09s16.08 129.34 18.15 134.67c.04.11.08.19.11.19 1.26 0 8.57.26 10.89.35.44.02.72.03.72.03l1.5-143.35-20.38-3.06-.8-22.37z" fill="#6690bf"/><path class="st33" d="M767.87 755.66l-5.73-1.51-5.4 6.28 2.39 3.18 2.78 6.75 5.56.4 6.36 1.19.79-5.16 4.44-3.7-1.49-10.01zM729.19 778.59c.73 3.67 1.61 8.07 2.59 12.97.15-1.62.11-3.24-.31-4.66-.66-2.2-1.06-4.02-1.31-5.43-.34-1.91-.41-3.02-.41-3.02l-.56.14zM691.65 941.66l-.52 3.79s9.65 5.34 11.03 5c1.38-1.21-5.52-9.48-5.52-9.48l.09-1.71-4.98-.51c-.05 1.84-.1 2.91-.1 2.91zM747.92 941.53c.05.12.16.74.31 1.51 1.26.69 9.58 5.22 10.85 4.9 1.38-.34-1.03-3.62-1.03-3.62s.46.23 1.2.63c-2.13-1.27-4.65-2.71-4.92-3.98-.24-1.12-.53-2.41-.86-3.8l-6.14.27c.32 2.39.52 3.92.59 4.09z"/><path class="st34" d="M691.14 945.46s-2.59 6.03-1.55 6.89c1.03.86 23.45 8.64 23.84 3.36.19-2.58-12.29-8.88-12.29-8.88s2.41 3.27 1.03 3.62c-1.38.35-11.03-4.99-11.03-4.99zM759.09 947.94c-1.27.32-9.59-4.21-10.85-4.9-.1-.06-.18-.1-.18-.1s-2.59 6.03-1.55 6.89c1.03.86 23.45 8.64 23.84 3.37.16-2.08-7.97-6.6-11.09-8.26-.74-.39-1.2-.63-1.2-.63s2.41 3.29 1.03 3.63zM729.19 778.59c-1.35-6.76-2.21-11-2.21-11s-10.83 14.67-15.84 41.35c0 0 16.49 47.76 18.56 64.92 1.94 16.09 12.02 63.82 12.02 63.82l5.61-.24 6.14-.27.53-.02s-4.79-55.4-8.01-72.9c-2.87-15.58-9.59-49.48-14.21-72.69-.97-4.9-1.85-9.3-2.59-12.97z"/><path d="M726.99 767.58l-7.87-.66-.86-5.24h-.01v.12l-6.95-.22-1.49-.02-.26 4.57-20.94-1.75c-2.18 5.21-4.45 11.32-5.41 16.1-1.07 5.34 4.16 48.26 1.91 87.78-2.11 37.09 1.34 69.96 1.34 69.96l5.31.54 4.98.51 2.79.29s4.18-48.27 5.61-64.36c1.47-16.57 2.94-49.91 6.01-66.26 5-26.69 15.84-41.36 15.84-41.36z" fill="#008288"/><path class="st33" d="M869.67 681.93l.19-10.26-.67.95-2.78-6.36c6.36-2.78 5.56-9.93 2.78-11.52-2.78-1.59-4.77 5.56-4.77 5.56l-2.78-2.38-.8-9.07-4.43-4.09-7.95-.66s-3.3.61-6.69.93v4.55c0 1.19-4.77 27.02 11.13 25.83l1.56 8.02 5.59 1.12 9.62-2.62zM698.73 657.92c-1.05 3.93.66 5.78 1.95 6.59l1.23.57s5.13 14.83.16 20.13c-.23.24-.47.48-.74.72.81.11 1.84.25 2.97.44.2.03.4.07.61.11-.01-.02-.02-.07-.02-.07.12.09.25.15.38.22.06.03.12.06.18.1 1.93 1.14 4.05 1.54 5.35 1.67l2.64-12.2c13.91-.4 8.74-25.83 8.74-25.83l-1.99-5.56-15.5 12.71s-4.37-5.56-5.96.4z"/><path class="st11" d="M871.4 681.46l-.19.05.2.04zM853.99 786.83l4.18-.62 16.45-2.46-3.65-102.18-1.3.36-9.62 2.61-5.59-1.12-2.35-.47z"/><path class="st36" d="M890.34 693.27c.39-1.96 2.05-5.79 4.19-6.67l-23.12-5.04-.2-.04-.24-.05v.12l3.65 102.18.8 22.37 20.38 3.06 3.46.52.22-17.62c-1.46-14.82-3.85-38.04-5.55-49.51-2.61-17.65-3.92-47.69-3.59-49.32zM831.99 732.73c-.06.13-.13.26-.2.4.07-.14.13-.27.2-.4zM826.27 743.24c-.09.16-.18.31-.28.47.09-.16.18-.31.28-.47zM825.01 745.32c-.06.09-.11.17-.17.26.06-.09.11-.17.17-.26zM824.02 746.85c-.11.17-.22.33-.33.5.11-.16.22-.33.33-.5zM823.04 748.31l-.36.51c.11-.17.23-.34.36-.51zM827.3 741.47c-.11.2-.22.39-.34.59.12-.2.23-.4.34-.59zM830.82 735.01c-.07.13-.13.25-.2.38.07-.14.13-.25.2-.38zM829.11 738.21c-.1.19-.21.39-.32.58.11-.19.22-.38.32-.58zM828.25 739.79c-.12.21-.24.42-.35.63.11-.21.23-.42.35-.63zM822.06 749.65c-.12.15-.23.31-.35.45.11-.15.23-.3.35-.45zM794.57 762.93c-1.14.41-2.26.8-3.34 1.18 1.08-.38 2.2-.78 3.34-1.18zM831.48 733.73c-.07.14-.14.28-.22.43.08-.16.15-.29.22-.43zM801.62 760.37c-1.18.44-2.37.88-3.55 1.31 1.18-.44 2.37-.87 3.55-1.31zM789.65 764.65c-1.03.36-2.02.7-2.93 1.01.91-.31 1.89-.65 2.93-1.01zM821.08 750.86c-.1.11-.2.24-.29.34.09-.11.19-.23.29-.34zM817.83 753.49c-.93.52-2.08 1.09-3.38 1.69 1.3-.6 2.45-1.17 3.38-1.69zM813.09 755.79c-.94.41-1.94.84-2.99 1.27 1.05-.44 2.05-.86 2.99-1.27zM829.91 736.74c-.06.12-.13.25-.2.37.06-.12.13-.25.2-.37z"/><path class="st33" d="M902.5 805.52c-1.8 3.37-5.44 10.86-2.67 11.47 3.58.79 12.71-.79 12.71-2.78 0-1.58 1.01-6.94 1.42-9.05l-11.46.36z"/><path class="st34" d="M695.91 734.84c-.56-3.13-2.47-11.2-4.55-19.69-2.12-2.68-4.03-5.4-5.56-8.06-3.65-6.35-3.62-11.38-2.41-17.24.1-.49.66-.71 1.51-.72l14.69-3.41s.69.07 1.75.21c.26-.24.51-.48.74-.72 4.97-5.3-.16-20.13-.16-20.13l-1.23-.57c-1.29-.81-3-2.66-1.95-6.59 1.59-5.96 5.96-.4 5.96-.4l15.5-12.71.4-3.18c-2.19-3.28-5.41-5.89-18.51-6.6-.22-.06-.39-.14-.63-.2-9.6-2.32-12.58 2.65-12.58 2.65s-12.25 15.89-19.54 35.1c-7.29 19.21 8.61 12.25-1.66 43.38-9.86 29.9 16.33 24.66 28.09 23.62.28-1.85.36-3.48.14-4.74z"/><path class="st37" d="M711.71 688.34c-.04.04-.09.08-.14.12.24.01.42.01.42.01-.09-.04-.2-.2-.28-.13zM717.26 722.73c2.5 2.71 5.16 5.23 7.89 7.57l-.75-15.11 1.55-5.86c1.55-5.86-13.27-20.51-13.96-20.85 0 0 3.8 19.95 4.89 29.48.14 1.22.27 2.85.38 4.77zM718.24 761.69l.87 5.24 7.87.66-1.06-21.57c-3.37-1.76-6.21-3.38-8-4.64.23 9.93.31 19.2.32 20.31zM709.55 766.13l.26-4.57 1.49.02-1.5-.05s.57-10.27.44-26.8c-5.48-4.94-12.98-12.12-18.88-19.59 2.08 8.5 3.99 16.56 4.55 19.69.22 1.26.14 2.89-.15 4.73-1.49 9.49-8.57 24.69-8.57 24.69l1.42.12 20.94 1.76zM705.27 686.62c.06.04.12.07.18.1-.06-.04-.12-.07-.18-.1zM704.91 686.47c-.2-.04-.41-.07-.61-.11-1.13-.19-2.16-.34-2.97-.44-1.06-.14-1.75-.21-1.75-.21l-14.69 3.41c4.15-.06 15.71 5.39 19.92 15.04 1.3 2.98 2.86 5.83 4.61 8.53-1.38-15.59-4.33-25.61-4.51-26.22z"/><path class="st11" d="M709.8 761.53l1.5.05 6.95.22v-.12c-.01-1.11-.09-10.38-.32-20.32-.44-.31-.83-.6-1.13-.87-1.18-1.03-3.58-3.08-6.56-5.77.12 16.54-.44 26.81-.44 26.81zM705.27 686.62c-.13-.08-.26-.14-.38-.22 0 0 .02.05.02.07.18.61 3.13 10.63 4.51 26.23 2.32 3.59 4.98 6.93 7.84 10.03-.11-1.92-.24-3.55-.38-4.78-1.09-9.53-4.89-29.48-4.89-29.48s-.17 0-.42-.01c-.2-.01-.46-.03-.78-.06-1.3-.13-3.42-.53-5.35-1.67-.05-.04-.11-.07-.17-.11z"/><path d="M763.25 752.86s-17.68-6.45-34.27-19.43c-.16-8.69-.05-16.52.6-21.35 2.24-16.72-9.65-21.03-11.2-21.89l-6.38-1.72c.69.34 15.51 14.99 13.96 20.85l-1.55 5.86.75 15.11c-2.73-2.34-5.39-4.87-7.89-7.57-2.87-3.1-5.52-6.44-7.84-10.03-1.75-2.71-3.31-5.55-4.61-8.53-4.21-9.65-15.77-15.1-19.92-15.04-.85.01-1.41.24-1.51.72-1.21 5.86-1.24 10.89 2.41 17.24 1.53 2.66 3.44 5.38 5.56 8.06 5.9 7.46 13.4 14.64 18.88 19.59 2.98 2.69 5.38 4.73 6.56 5.77.3.26.69.56 1.13.87 1.79 1.27 4.63 2.89 8 4.64l1.06 21.57s.85 4.25 2.21 11l.55-.14s.07 1.11.41 3.02l1.31.08s-1.28-16.36-2.03-33.74c11.89 5.96 27.31 12.62 27.31 12.62l5.39-6.28 1.11-1.28z" fill="#f6981f"/><path class="st30" d="M856.42 644.76l4.43 4.09.8 9.07 2.78 2.38s1.99-7.15 4.77-5.56c2.78 1.59 3.58 8.74-2.78 11.52l2.78 6.36.67-.95 4.9-7s8.34-8.34 4.77-20.66c-.07-10.68-23.11-14.48-38.67-19.12-15.56-4.64-7.62 17.55-6.29 19.54.65.97 3.98.91 7.21.6 3.4-.33 6.69-.93 6.69-.93l7.94.66z"/><path class="st39" d="M831.83 711.75c-.05-3.66-.15-7.29-.34-10.92-.4-2.21-.74-4.43-1.02-6.66-.09.1-.17.2-.22.29-.43.7-1.55 2.93-3.09 6.03-1.09 2.22-2.4 4.87-3.82 7.73-1.14 2.28-2.34 4.69-3.57 7.1-1.84 3.61-3.74 7.23-5.51 10.42-.3.53-.59 1.05-.88 1.56-2.59 4.55-4.84 7.99-6.18 8.89-.89.6-2.51 1.43-4.56 2.39-.34.16-.69.32-1.06.49-.73.33-1.49.68-2.29 1.03s-1.62.72-2.47 1.08c-.85.37-1.71.74-2.58 1.11-8.28 3.51-17.25 7.01-17.25 7.01l.56 3.77 1.49 10.02.73 4.89s2.8-.91 6.92-2.32c.92-.31 1.9-.65 2.93-1.01.52-.18 1.04-.36 1.58-.55 1.08-.38 2.2-.77 3.34-1.18 1.15-.41 2.32-.83 3.49-1.26 1.18-.43 2.37-.86 3.55-1.31 2.96-1.1 5.87-2.23 8.49-3.31 1.05-.43 2.05-.86 2.99-1.27.47-.21.92-.41 1.36-.61 1.31-.6 2.45-1.17 3.38-1.69.93-.52 1.65-.99 2.09-1.4.28-.25.57-.56.87-.89.1-.11.2-.23.29-.34.21-.24.41-.49.63-.76.12-.15.23-.3.35-.45.2-.27.41-.54.62-.83.12-.17.24-.33.36-.51.22-.31.43-.63.65-.95.11-.17.22-.33.33-.5.27-.41.55-.84.82-1.27.06-.09.11-.17.17-.26.33-.53.66-1.07.98-1.61.09-.16.19-.31.28-.47.23-.39.47-.79.7-1.18.11-.2.23-.39.34-.59.2-.35.4-.7.59-1.05.12-.21.24-.42.35-.63.19-.34.37-.67.55-.99.11-.19.21-.39.32-.58.21-.38.4-.74.59-1.1.07-.12.14-.25.2-.37.25-.47.49-.92.71-1.35.07-.13.13-.25.2-.38.15-.29.3-.58.44-.85.08-.15.15-.29.22-.43.11-.21.21-.41.3-.59l.2-.4c.03-.06.07-.13.09-.18 1.19-6.86-.11-13.92-.21-20.81z"/><path class="st36" d="M853.99 786.83l-1.89-103.88s-5.9 2.48-11.59 5.25c-.02.01-.05.02-.07.04-.36.17-.71.35-1.07.52-.01.01-.02.01-.03.02-4.01 1.99-7.7 4.06-8.87 5.41.27 2.23.61 4.45 1.02 6.66.19 3.62.29 7.26.34 10.92.1 6.89 1.4 13.95.25 20.8.35-.69.56-1.12.56-1.12l.16 6.41 1.69 67.1c.04 0 .13.01.19.01 2.31.09 19.68 1.98 19.68 1.98l-.37-20.12z"/><path class="st39" d="M915.31 805.12s-1.47-57.65-2.77-64.18c-1.31-6.53-2.29-53.54-16.98-54.52-.35-.02-.7.05-1.03.18-2.14.88-3.8 4.71-4.19 6.67-.33 1.63.98 31.67 3.59 49.3 1.7 11.47 4.09 34.69 5.55 49.51.78 7.95 1.3 13.5 1.3 13.5l1.71-.05 11.46-.36 1.36-.05z"/></g><g><path class="st40" d="M140.26 686.09l-9.3 5.35 3.81 6.97 11-7.4z"/><path class="st34" d="M176.06 577.66s-8.07 11.85-8.05 33.48c.02 21.64 4.89 26.7-8.18 42.13-16.71 19.73-23.27 30.69-23.27 31.91 0 1.22 8.42 11.02 8.42 11.02s37.97-35.69 40.94-43.04c2.97-7.35 13.57-42.06 13.57-42.06l-9.39-29.79-14.04-3.65zM134.77 698.41s8.05 11.9.01 15.19l-8.9-20.11 5.07-2.06 3.82 6.98z"/><path class="st40" d="M216.49 702.41l-.41 12.73-5.49 2.47-.44-14.78z"/><path class="st41" d="M215.95 576.8s11.01 11.48 12.73 41.86c1.72 30.38-8.8 87.04-8.8 87.04l-13.54.01s-.05-49.67 1.63-62.4c0 0-19.49-34.46-22.46-44.31-2.97-9.85.83-20.12.83-20.12l29.61-2.08z"/><path class="st34" d="M231.15 721.28s.84-7.8-16.08-6.14l-5.08.79.01 6.19 21.15-.84z"/><path class="st40" d="M203.48 486.04s6.96-15.92-8.63-19.89l8.63 19.89zM158.85 559.7s-5.8 33.93-8.67 33.93-9.97 11.22-12.43 11.62c-2.46.4-4.93-9.55-1.65-11.54 3.28-1.99 10.66-4.39 10.66-4.39l12.09-29.62zM229.7 485.57s11.4-6.7 11.39-11.08c0-4.38 1.7-44.21.06-45-1.64-.79 2.04-5.97-1.24-7.56-3.28-1.59-6.97-3.18-8.62-7.95s-3.69-.39-1.64 5.17c2.06 5.57-2.04 9.55 4.52 13.13 0 0 11.52 37.79 4.96 44.96l-9.43 8.33z"/><path class="st23" d="M244.48 431.88c-.41-1.19-10.12 3.28-10.12 3.28s-.03 29.6-4.8 38.3c-3.82 6.97-14.48 18.39-27.3 24.91 0 0-34.44 11.18-39.35 23.91-4.91 12.74-15.48 65.62-15.48 65.62l5.63 3.81s6.58-28.04 11.43-34.91c3.81-5.39 10.17-11.99 10.17-11.99s-.21 31.56-1.44 34.35c-1.23 2.79 35.68 2.35 46.75-2.43 0 0-7.26-31.87-7.69-48.19 0 0 30.88-34.64 34.53-52.01 2.49-11.82-2.33-44.65-2.33-44.65z"/><path class="st41" d="M188.69 460.18c-3.69-.79-24.02 1.78-20.06 31.46 1.71 12.86 11.85 24.85 26.45 14.47 16.13-11.47 7.58-16.5 7.16-28.04-.42-11.53-13.55-17.89-13.55-17.89z"/><path class="st41" d="M176.69 476.89c0-2.64 3.17-9.24-3.19-11.88-6.35-2.63-8.17-9.23-12.25-3.51-4.08 5.73-13.59 11.46-11.78 14.97 1.82 3.52 1.37 11 4.55 12.32 3.18 1.32 8.17 2.63 12.7 1.31s5.45 3.96 7.71-.45c2.27-4.4 2.26-12.76 2.26-12.76z"/><path class="st23" d="M174.28 466.69s3.13 5.78.86 11.57-6.52 9.38-6.52 9.38 6.53 1.92 10.22-8c3.68-9.93-4.56-12.95-4.56-12.95z"/></g></g></svg>