<svg xmlns="http://www.w3.org/2000/svg" viewBox="0 0 1000 1000"><style>.st1{fill:#2c7}.st2{fill:#30d9a0}.st3{fill:#fbbb82}.st4{fill:#fff}.st5{fill:#4c4c4c}.st11{fill:#ffdfbe}.st12{fill:#25228a}.st13{fill:#ffc6ca}.st15{fill:#ff9a00}.st16{fill:#3888c2}.st17{fill:#34b1eb}.st18{fill:#ff7a00}.st19{fill:#fac5ca}.st20{fill:#ff3784}.st23{fill:#0062c7}.st25{fill:#e1e1e1}</style><path d="M936.15 403.88c13.56-70.75 1.32-168.13-113.8-260.03-136-108.57-209.34 19.48-209.34 19.48s19.61-104.87-92.42-111.98c-87.36-5.55-125.28 39.74-167.33 73.24-42.84-10.83-78.74-18.95-101.47-22.31C138.63 85.56 44.66 167.96 36.94 308.61c-2.96 53.99 22.68 82.81 55.39 97.83-5.56 7.55-11.89 17.03-18.1 28.27-31.4 29.5-58.25 72.83-59.58 120.03-.98 34.7 19.8 48.51 40.77 70.58 8.03 25.08 20.56 51.56 38.94 79.17.63 3.87 1.17 7.89 1.61 12.12 5.6 54.21 33.85 64.72 62.59 63.43 95.67 85.54 166.56 21.81 183.43 3.73.87.09 1.74.17 2.63.26-4.64 20.01-16.36 98.92 79.31 123.89 109.9 28.68 149.32-40.99 214.33-56.62s78.09 41.81 194.18.64c38.26-13.57 50.79-40.09 52.03-70.14 59.51-41.01 95.8-117.5 89.67-212.83-.49-7.68-1.5-14.75-2.96-21.24 6.04-12.3 10.42-25.56 12.51-39.63 6.62-44.48-27.54-61-47.54-104.22z" fill="#fbfbfb" id="Background"/><g id="Leaves"><path class="st1" d="M354.14 835.12l-13-.82s-14.46-97.99-27.88-126.73c0 0-142.15 11.08-173.74-91.34 0 0 106.19-44.6 172.56 75.65 0 0-14.68-94.65-47.11-183.74 0 0-105.13 27.93-128.69-63.94 0 0 62.14-36.23 116.41 17.42 0 0-21.57-71.66-42.15-107.55 0 0-79.58 19.5-110.55-58.33 0 0 58.49-13.03 99.52 26.39l-35.52-74.78s-70-45.72-58.5-124.21c0 0 76.69 26.06 66.72 114.69l35.1 81.44s5.07-80.01 61.99-85.33c0 0 10.2 96.6-47.63 116.37 0 0 34.44 74.71 47.24 130.19 0 0-12.02-102.3 72.11-124.86 0 0 32.06 77.9-62.26 141.11 0 0 26.29 83.12 43.51 189.09 0 0-28.48-99.99 65.83-163.2 0 0 62.19 83.16-56.47 187.22-.02-.02 16.98 57.96 22.51 125.26zM635.9 696.88l-7.15-5.4s28.86-61.72 32.06-83.31c0 0-85.79-47.55-65.08-118.31 0 0 77.86 14.67 70.35 108.86 0 0 27.47-59.89 42.64-123.32 0 0-70.93-23.84-49.61-85.5 0 0 49.4 2.77 60.2 54.14 0 0 14.79-49.31 16.6-77.71 0 0-53.07-18.98-41.33-75.4 0 0 38.51 14.7 47.11 52.88l7.97-56.39s-22.84-52.79 13.53-93.47c0 0 34.13 44.04-5.2 91.13l-10.74 60.05s33.25-44 67.94-25.47c0 0-30.78 59.31-71.47 48.73 0 0-8.57 55.94-22.26 92.64 0 0 31.9-63.27 88.73-44.32 0 0-11.14 56.87-89.24 57.38 0 0-16.43 57.67-46.74 125.03 0 0 21.57-68.19 99.67-68.7 0 0 4.16 71.31-103.41 86.04.01-.02-12.22 39.7-34.57 80.42zM394.59 452.53l-6.79-3.67s16.52-56.32 16.43-75.12c0 0-79.25-29.29-70.85-92.25 0 0 68.21 2.33 74.11 83.51 0 0 15.58-54.58 20.21-110.57 0 0-63.51-11.04-53.4-66.33 0 0 42.43-4.09 58.33 38.24 0 0 6.16-43.92 3.99-68.34 0 0-47.66-9.24-45.03-58.81 0 0 34.71 7.49 47.01 38.88l-.57-49.05s-26.34-41.97-.68-81.36c0 0 34.81 33.04 7.47 78.27l-1.31 52.54s22.57-41.81 54.52-30.55c0 0-18.47 54.52-54.49 50.82 0 0 .01 48.75-6.86 81.78 0 0 18.9-58.03 69.77-49.32 0 0-2.07 49.88-68.5 60.5 0 0-6.46 51.25-23.48 112.56 0 0 9.47-60.88 75.9-71.5 0 0 12.85 60.18-76.82 86.75-.02.01-5.25 35.44-18.96 73.02z"/><path class="st2" d="M766.31 746.39l7.74-.67s7.44-57.2 15.09-74.11c0 0 84.89 4.41 102.49-55.61 0 0-63.86-24.42-101.98 46.46 0 0 7.61-55.26 25.87-107.54 0 0 63.02 14.74 75.96-39.03 0 0-37.49-20.18-69.2 11.79 0 0 12-41.99 23.83-63.16 0 0 47.68 10.21 65.21-35.5 0 0-35.03-6.74-59.02 16.77l20.27-44s41.19-27.59 33.38-73.08c0 0-45.41 16.25-38.4 67.66l-19.94 47.87s-3.99-46.46-37.99-48.74c0 0-4.91 56.33 29.81 67 0 0-19.63 43.94-26.59 76.39 0 0 5.93-59.67-44.5-71.59 0 0-18.17 45.77 38.83 81.18 0 0-14.67 48.72-23.66 110.6 0 0 15.77-58.56-41.23-93.97 0 0-36.08 49.25 35.94 108.08.01.01-9.42 33.98-11.91 73.2zM149.2 795.17l5.58-4.33s-22.55-47.28-25.06-63.94c0 0 66.9-38.52 50.7-92.96 0 0-60.73 12.89-54.82 85.74 0 0-21.47-45.88-33.33-94.75 0 0 55.32-19.86 38.66-67.23 0 0-38.54 3.11-46.94 43.13 0 0-11.57-37.93-12.99-59.91 0 0 41.39-15.74 32.2-59.24 0 0-30.04 12.14-36.72 41.9l-6.25-43.55s17.79-41.36-10.61-72.18c0 0-26.6 34.8 4.11 70.53l8.41 46.34S36.17 491.26 9.13 506.3c0 0 24.05 45.37 55.78 36.38 0 0 6.71 43.19 17.42 71.37 0 0-24.92-48.42-69.25-32.62 0 0 8.73 43.86 69.65 42.74 0 0 12.85 44.38 36.53 95.99 0 0-16.87-52.43-77.8-51.31 0 0-3.2 55.35 80.72 64.67-.01-.03 9.56 30.52 27.02 61.65z"/></g><g id="Arrows"><path class="st3" d="M520.8 392.72c-9.75-11.04-8.7-28.05 2.34-37.8l54.78-48.4c11.04-9.75 28.05-8.7 37.8 2.34 9.75 11.04 8.7 28.05-2.34 37.8l-54.78 48.4c-11.03 9.75-28.05 8.7-37.8-2.34zM347.75 655.42v-41.21s-25.58-19.89-34.1-44.05c-8.53-24.16 2.84-111.55-12.79-129.31-15.63-17.76-31.97-36.24-14.92-56.13 17.05-19.89 37.66-3.55 37.66-3.55l32.68 27 185.44 168.39v83.84c-.01 0-195.75-6.75-193.97-4.98z"/><path class="st4" d="M342.08 649.44h203.14v20.55H342.08z"/><path class="st5" d="M553.33 992.84l-221.21 1.9-.61-328.87h222.52z"/><path fill="#e3a460" d="M334.77 579.66l42.66 69.03H543l-2-82.56z"/><path class="st5" d="M532.43 176.61H359.36c-16.56 0-29.99 13.09-29.99 29.23v356.94c0 16.14 13.43 29.23 29.99 29.23h173.07c16.56 0 29.99-13.09 29.99-29.23V205.84c0-16.15-13.43-29.23-29.99-29.23z"/><path class="st4" d="M535.27 584.75H356.68c-11.07 0-20.05-8.98-20.05-20.05V204.85c0-11.07 8.98-20.05 20.05-20.05h178.59c11.07 0 20.05 8.98 20.05 20.05V564.7c-.01 11.08-8.98 20.05-20.05 20.05z"/><path fill="#f60" d="M346.89 234.05h198.17V535.4H346.89z"/><circle cx="445.97" cy="561.43" r="15.05" fill="#d0efff"/><path d="M467.32 218.71h-42.7c-2.29 0-4.15-1.86-4.15-4.15s1.86-4.15 4.15-4.15h42.7c2.29 0 4.15 1.86 4.15 4.15s-1.85 4.15-4.15 4.15z" fill="#5cb8f6"/><circle class="st4" cx="445.97" cy="559.05" r="15.05"/><path fill="none" stroke="#ffdd45" stroke-width="9" stroke-miterlimit="10" stroke-dasharray="3,5" d="M360.95 258.04l166.66-1.76 1.52 224.34-166.96-4.58z"/><g><path class="st3" d="M507.5 461.92l-11.76-25.23c-2.99-6.41-.19-14.1 6.23-17.09l81.29-37.88c6.41-2.99 14.1-.19 17.09 6.22l11.76 25.23c2.99 6.41.19 14.1-6.22 17.09l-81.29 37.88c-6.42 2.99-14.11.19-17.1-6.22z"/><path class="st11" d="M506.6 447.17c-4.93-10.58-.31-23.26 10.27-28.19l4.73-2.2c7.47-3.48 16.43-.22 19.91 7.25l5.27 11.31c3.48 7.47.22 16.43-7.25 19.91l-4.73 2.2c-10.59 4.92-23.27.3-28.2-10.28z"/><path class="st3" d="M509.5 521.31l-11.49-24.65c-2.92-6.26-.18-13.78 6.08-16.7l79.41-37.01c6.26-2.92 13.78-.18 16.7 6.08l11.49 24.65c2.92 6.26.18 13.78-6.08 16.7l-79.41 37.01c-6.27 2.92-13.78.18-16.7-6.08z"/><path class="st11" d="M508.61 506.9c-4.82-10.33-.3-22.73 10.03-27.54l4.62-2.15c7.3-3.4 16.05-.21 19.45 7.08l5.15 11.04c3.4 7.3.21 16.05-7.08 19.45l-4.62 2.15c-10.34 4.82-22.73.3-27.55-10.03z"/><path class="st3" d="M521.18 573.04l-10.7-22.96c-2.72-5.83-.17-12.83 5.66-15.55l73.97-34.47c5.83-2.72 12.83-.17 15.55 5.66l10.7 22.96c2.72 5.83.17 12.83-5.66 15.55l-73.97 34.47c-5.83 2.72-12.83.17-15.55-5.66z"/><path class="st11" d="M520.36 559.62c-4.49-9.62-.28-21.17 9.34-25.65l4.3-2.01c6.8-3.17 14.95-.2 18.11 6.6l4.79 10.29c3.17 6.8.2 14.95-6.6 18.11l-4.3 2.01c-9.61 4.48-21.16.27-25.64-9.35z"/></g><g><path class="st11" d="M443.91 522.73c-4.16-10.9-16.49-16.42-27.39-12.26-10.9 4.16-16.42 16.49-12.26 27.39l1.86 4.88c2.94 7.7 11.64 11.59 19.34 8.65l11.65-4.45c7.7-2.94 11.59-11.64 8.65-19.34l-1.85-4.87zM409.68 711.78c-5.68 2.13-7.13 12.99-7.13 12.99s-4.28 8.41 9.93 21.9c14.21 13.5 22.76-2.35 24.2-7.9 1.78-6.87-21.31-29.12-27-26.99z"/><path class="st3" d="M694.89 798.66c-6.64-19.93-8.3-51.48-8.3-61.45 0-7.97-7.8-37.7-10.93-49.32-.27-1.58-.69-3.15-1.28-4.7l-29.33-76.84c-4.98-13.05-19.73-19.65-32.77-14.67-9.54 3.64-15.61 12.52-16.25 22.12l-1.05-2.74c-5.25-13.76-20.81-20.72-34.57-15.47-10.16 3.88-16.6 13.38-17.16 23.63l-.13-.34c-5.25-13.76-20.81-20.72-34.57-15.47-11.57 4.42-18.31 16.12-17.04 27.92l-42.18-110.5c-5.25-13.76-20.81-20.72-34.57-15.47-13.76 5.25-20.72 20.81-15.47 34.57l76.64 200.79-32.94-32.94c-10.42-10.42-27.46-10.42-37.88 0-10.42 10.42-10.42 27.46 0 37.88L466.45 807s36.63 37.33 45.77 37.33c9.13 0 19.93 11.63 23.25 14.95 3.32 3.32 8.3 16.61 8.3 16.61l157.77-57.3-6.65-19.93zM437.12 546.94l-11.65 4.45c-7.7 2.94-16.4-.96-19.34-8.65l-1.86-4.88c-4.16-10.9 1.35-23.23 12.26-27.39 10.9-4.16 23.23 1.36 27.39 12.26l1.86 4.88c2.93 7.69-.96 16.4-8.66 19.33zm-.44 191.84c-1.44 5.54-9.99 21.4-24.2 7.9-14.21-13.5-9.93-21.9-9.93-21.9s1.45-10.86 7.13-12.99c5.69-2.14 28.78 20.11 27 26.99z"/><path class="st4" d="M715.59 829.66l-7.41-16.05-173.5 58.15 5.86 17.85z"/><path class="st5" d="M803.96 993.79L730.24 824.6l-198.22 66.34 47.13 106.57z"/></g><g><path class="st4" d="M494.56 349.39c-4.39-3.54-10.17-5.32-17.33-5.32 7.58-6.46 9.59-14.83 6.04-25.13-1.26-3.74-3.11-6.8-5.54-9.19-2.44-2.38-5.36-4.08-8.78-5.07-3.42-.99-7-1.51-10.74-1.57-3.75-.05-7.96.26-12.63.95l-5.22-21.89-13.37 3.19 5.07 21.28c-2.32.55-5.83 1.45-10.56 2.7l-5.11-21.45-13.37 3.19 5.22 21.89c-1.9.51-4.7 1.21-8.41 2.1l-18.43 4.3 3.39 14.24 9.64-2.3c4.4-1.05 7.45.31 9.14 4.07l5.94 24.93c.58-.14 1.05-.22 1.41-.24l-1.39.33 8.32 34.92c.24 3.06-1.08 4.94-3.98 5.63l-9.64 2.3 1.09 16.53 17.37-4.14c1.1-.26 2.7-.63 4.79-1.1 2.09-.47 3.66-.82 4.7-1.07l5.28 22.15 13.38-3.19-5.22-21.89c2.44-.52 5.99-1.33 10.62-2.44l5.19 21.8 13.38-3.19-5.28-22.15c4.69-1.37 8.8-2.8 12.33-4.31 3.52-1.52 6.81-3.35 9.84-5.51 3.03-2.16 5.44-4.52 7.21-7.09 1.78-2.56 3.03-5.59 3.77-9.07.73-3.48.81-7.32.23-11.53-1.17-8.23-3.95-14.11-8.35-17.66zm-69.08-24.48c.41-.1 1.55-.38 3.42-.86 1.88-.48 3.43-.88 4.68-1.21 1.24-.32 2.93-.65 5.09-.98 2.16-.33 4-.52 5.51-.58 1.52-.05 3.22.05 5.12.3s3.48.73 4.75 1.44c1.27.7 2.44 1.71 3.52 3.02 1.07 1.3 1.84 2.91 2.3 4.82.39 1.62.48 3.16.28 4.62-.2 1.46-.72 2.76-1.55 3.9-.83 1.15-1.71 2.19-2.65 3.11-.94.93-2.22 1.8-3.83 2.61-1.62.81-3.03 1.49-4.25 2.02-1.21.54-2.77 1.07-4.66 1.62-1.9.54-3.33.95-4.31 1.21-.98.26-2.32.58-4.04.96-1.71.38-2.72.6-3 .67l-6.38-26.67zm50.62 50.45c-.23 1.46-.67 2.79-1.3 3.98-.64 1.19-1.57 2.33-2.81 3.42-1.24 1.09-2.47 2.03-3.69 2.81-1.22.78-2.73 1.56-4.53 2.36-1.8.8-3.39 1.44-4.78 1.92-1.38.48-3.05 1-5 1.56-1.95.55-3.47.96-4.57 1.23-1.1.26-2.5.58-4.18.95-1.69.38-2.76.61-3.23.73l-6.99-29.36c.46-.11 1.83-.46 4.11-1.07 2.27-.6 4.13-1.07 5.58-1.42 1.45-.34 3.47-.74 6.06-1.17 2.59-.43 4.79-.68 6.61-.75 1.82-.07 3.85.02 6.07.25 2.23.23 4.1.72 5.63 1.46 1.52.74 2.91 1.82 4.16 3.23 1.26 1.42 2.13 3.17 2.63 5.25.39 1.62.47 3.16.23 4.62zm0 0"/></g></g><g id="People"><path class="st12" d="M785.47 797.91s2.88 5.76-5.56 5.97c-8.44.21-14.41 1.44-14.41 3.91s.41 4.12 7.2 3.7c6.79-.41 25.11.82 25.31-3.5.21-4.32-2.06-13.58-2.06-13.58l-10.48 3.5zM822.93 798.32s2.88 5.76-5.56 5.97c-8.44.21-14.41 1.44-14.41 3.91s.41 4.12 7.2 3.7c6.79-.41 25.11.82 25.31-3.5.21-4.32-2.06-13.58-2.06-13.58l-10.48 3.5z"/><path class="st13" d="M805.43 545.04L800.32 557v16.8l-13.71.67.67-12.63s-9.41.27-9.68-5.78c-.27-6.05 1.61-22.04 1.61-22.04l22.85-.4 3.37 11.42z"/><path d="M799.25 546.25c.67-.13 3.09-.13 3.23 2.15s-1.75 3.49-3.23 3.36c-1.48-.13.27 7.26.27 7.26l2.82-.27s7.66-5.11 8.2-13.71c.54-8.6 3.36-19.89-3.09-21.9-6.45-2.02-19.75 1.48-23.25-1.21-3.49-2.69-13.57-6.99-14.24.67-.67 7.66 6.99 14.78 11.02 13.98 4.03-.81 18.01-2.28 18.54 0 .53 2.28-.27 9.67-.27 9.67z" fill="#0b52ff"/><path class="st15" d="M779.5 576.98s-9.26 18.21-10.39 22.23c-1.13 4.01-5.66 13.58-8.33 12.55-2.68-1.03-11.83-43.01-11.83-43.01l-9.16-1.96s-.21 17.7.21 25.83 2.78 37.87 14.61 39.82 25.62-8.23 25.62-8.23l-.73-47.23z"/><path class="st16" d="M777.65 658.79s-10.08 27.58-6.17 56.6c3.91 29.02 11.52 84.58 11.52 84.58l15.85-.21s-2.47-26.75-1.85-79.85c.62-53.1-1.03-57.42-1.03-57.42l-18.32-3.7z"/><path class="st17" d="M788.97 662.91s.21 20.79 3.09 37.46 25.93 99.81 25.93 99.81l19.76-1.03s-5.76-30.46-9.26-54.95c-3.5-24.49-3.5-89.94-3.5-89.94l-36.02 8.65z"/><path class="st18" d="M799.05 567.21s-3.39 3.64-11.73 2.88c-2.26-.21-9.47 3.09-10.5 8.23-1.03 5.14-1.65 83.76-1.65 83.76l50.42 1.65-.62-53.1-17.7-41.16c.01 0-4.31-2.47-8.22-2.26z"/><path class="st13" d="M779.89 644.15s-7.57-4.08-10.61-3.64c-4.51.65-22.47 2.97-19.31 8.19 1.78 2.93 31.66 1.64 31.66 1.64l-1.74-6.19z"/><path class="st15" d="M807.8 567.11c-4.92-.82-12.05 2.53-10.3 8.84 1.75 6.32 16.47 32.73 11.42 44.21-3.79 8.62-11.42 18.01-30.91 21.23l-.81 11.15s21.77 2.69 36.28-8.87c14.51-11.56 20.29-29.16 17.07-45.96-3.22-16.79-14.69-29.26-22.75-30.6z"/><path class="st19" d="M141.33 811.95h7.33v8.39h-7.33z"/><path transform="rotate(18.738 168.415888 811.336315)" class="st19" d="M164.65 806.43h7.64v9.93h-7.64z"/><path class="st16" d="M193.6 662.34c-1.09.09 9.79 55.57 4.9 72.43-4.9 16.86-22.3 78.05-22.3 78.05l-15.23-4.9s8.16-49.22 10.88-60.92c2.72-11.69-8.7-42.7-8.7-42.7l10.33-42.97 20.12 1.01z"/><path class="st17" d="M139.48 661.89s.27 31.55.82 54.39c.54 22.84-1.9 98.45-1.9 98.45l11.42-.27 28.55-152.56h-38.89z"/><path class="st12" d="M144.67 819.61c2.52 0 5.05-.41 5.78 0 .73.41 14.25 5.37 14.41 6.51.16 1.14 1.95 2.93-2.69 2.85-4.64-.08-21.25 1.3-22.31.73-1.06-.57-.57-9.61.33-9.93.9-.33 4.48-.16 4.48-.16zM166.74 814.1c2.41.74 4.95 1.09 5.53 1.69.58.6 10.66 5.53 12.53 7.65.56.64 1.95 2.69-2.85 3.26-1.73.21-6.21.1-9.78-.78-5.91-1.46-12.45-3.03-12.98-3.57-.85-.85 2.26-9.35 3.22-9.4.95-.06 4.33 1.15 4.33 1.15z"/><path class="st19" d="M226.5 631.88s11.42-2.45 11.97-1.36c.54 1.09-1.36 2.72-1.36 2.72s10.06 0 10.61 1.36c.54 1.36-9.25 8.97-18.76 7.89-9.52-1.09-16.86-6.8-16.86-6.8l7.89-4.08 6.51.27z"/><path class="st20" d="M170.9 576.63c2.2.55 13.78 7.07 11.6 12.33-2.18 5.26 8.7 27.38 8.7 27.38l37.35 20.31-7.98 9.25s-46.96-11.78-48.59-17.77c-1.63-5.98-10.52-16.5-6.53-33.72 4-17.24-2.53-19.78 5.45-17.78z"/><path class="st19" d="M160.53 559.78l5.09-10.84 1.48-3.45-3.12-6.9 13.64-8.05 15.28-.66 2.3 5.09s-.82 25.47-9.69 25.3c-8.87-.16-10.68-.66-10.68-.66l-.66 3.12 1.97 3.12s-9.2 1.64-14.13-.82c-4.93-2.46-1.48-5.25-1.48-5.25z"/><path d="M179.27 531.98s16.17 4.64 17.18 1.74c1.01-2.9 1.84-8.28 1.84-8.28s-9.03-.4-13.85-2.35c-4.82-1.95-19.97-7.02-21.31 3.76-1.34 10.78.17 26.19.17 26.19l3.36-1.11.33-10.52s.86-5.87 3.71-4.05c2.85 1.83-.91 24.97-.91 24.97s12.37 6.59 16.46 4.38c4.09-2.21 6.14-13.64 6.14-13.64s-7.31-.97-9.41 1.04c-2.1 2.01-7.18-.95-7.18-.95l3.47-21.18z" fill="#2075ff"/><path d="M175.29 564.44s8.16 5.98 9.07 8.16c.91 2.18 8.43 73.79 8.43 73.79l3.39 26.43-59.27-1.28s12.09-94.77 12.82-95.68c.73-.91 10.88-15.59 12.15-15.23 1.26.37 6.16 5.08 13.41 3.81z" fill="#ff769d"/><path class="st19" d="M192.78 646.39s11.42-2.45 11.97-1.36c.54 1.09-1.36 2.72-1.36 2.72s10.06 0 10.61 1.36c.54 1.36-9.25 8.97-18.76 7.89-9.52-1.09-16.86-6.8-16.86-6.8l7.89-4.08 6.51.27z"/><path class="st20" d="M159.88 561c2.2.55 5.62 5.26 3.44 10.52s-13.42 52.76-13.42 52.76l37.35 20.31-7.98 9.25s-46.96-11.78-48.59-17.77c-1.63-5.98.73-26.65 4.71-43.87 4-17.24 16.51-33.2 24.49-31.2z"/><path class="st19" d="M305.25 251.94l-.92 12.29-6.15-.61-.61-12.6zM362.23 244.45l4.52 11.47-5.8 2.12-6.04-11.08z"/><path class="st12" d="M307.09 260.85l-10.14 1.54s-10.14 6.76-14.14 7.07c-4 .31-7.99 4-4 4.61 4 .61 29.5-1.23 29.5-1.23l-1.22-11.99z"/><path class="st16" d="M376.77 162.95s-53.99 7.07-52.46 22.44c1.54 15.37-15.99 67.47-15.99 67.47l-14.44-.31s10.18-65.9 10.18-75.11c0-9.22 50.58-29.55 50.58-29.55l22.13 15.06z"/><path class="st18" d="M374 64.6l-15.37 6.45s-11.75 63.08-8.91 72.84c2.77 9.53 14.14 7.99 14.14 7.99l29.5-1.23L390.9 115 374 64.6z"/><path class="st19" d="M348.8 38.17s-4 23.97 11.37 23.97l-.61 16.6 14.14-6.15-.92-36.57-18.75-.61-5.23 2.76z"/><path class="st12" d="M362.94 37.56s-16.9 3.69-17.21.31c-.31-3.38-3.38-18.44 12.29-13.22s21.51 5.22 19.98 12.6c-1.54 7.38-4.3 16.29-4.3 16.29l-3.07-1.23-1.84-7.68s5.84-3.38 1.84-6.15c-4-2.77-4.61 2.15-4.61 2.15l-3.08-3.07zM367.64 254.09l-10.45 4s-.61 7.38-4.61 8.3c-4 .92-10.14 4-9.53 6.45.61 2.46 18.44-1.23 18.44-1.23l11.68-9.22-5.53-8.3z"/><path class="st19" d="M330.36 134.37c-.21.03-.62.03-.95.04-.36 0-.71 0-1.07-.03-.72-.03-1.45-.09-2.16-.19-1.44-.19-2.84-.5-4.18-.94-1.33-.46-2.56-1.07-3.69-1.82-1.11-.76-2.02-1.73-2.81-2.81l-.14-.19c-.76-1.03-2.22-1.25-3.25-.49-.93.69-1.2 1.94-.68 2.94.89 1.72 2.05 3.34 3.49 4.66 1.43 1.3 3.03 2.37 4.71 3.23 1.68.83 3.42 1.47 5.19 1.96.89.25 1.78.45 2.68.62.45.09.91.16 1.37.23.49.06.89.12 1.5.16l.23.01c2.05.12 3.8-1.44 3.92-3.49s-1.44-3.8-3.49-3.92c-.22-.01-.46 0-.67.03z"/><path class="st15" d="M375.23 67.98s-20.9-2.46-14.44 19.05c6.45 21.51 16.9 30.43 2.15 35.34-14.75 4.92-34.11 10.76-34.11 10.76l1.23 11.68s64.23 3.07 65.46-12.91c1.23-15.98-7.99-47.33-9.53-50.71-1.54-3.37-7.68-11.36-10.76-13.21z"/><path class="st17" d="M391.21 148.2s9.26 15.82-4.05 24.99c-11.25 7.75-45.53 8.81-44.41 11.35 2.46 5.53 25.49 63.1 25.49 63.1l-13.83 3.38s-34.66-49.83-36.81-65.19c-2.15-15.37 37.96-35.17 37.96-35.17l35.65-2.46z"/><path class="st23" d="M292.94 129.87h58.76c2.01 0 3.66-1.65 3.66-3.66 0-2.01-1.65-3.66-3.66-3.66h-58.76c-2.01 0-3.66 1.65-3.66 3.66 0 2.01 1.65 3.66 3.66 3.66z"/><path class="st23" d="M297.36 123.12l-25.7-51.18c-.91-1.81-3.17-2.57-5.03-1.68-1.86.88-2.64 3.09-1.73 4.9l25.7 51.18c.91 1.81 3.17 2.57 5.03 1.68 1.86-.88 2.64-3.09 1.73-4.9z"/><path fill="#d1d3d4" d="M294.85 595.23l-22.3 49.47-60.54.35 21.14-49.82z"/><path class="st25" d="M165.89 646.49h106.5c1.05 0 1.91-.86 1.91-1.91 0-1.05-.86-1.91-1.91-1.91h-106.5c-1.05 0-1.91.86-1.91 1.91 0 1.05.86 1.91 1.91 1.91z"/><path d="M239.03 647.91l-16.28.43s9.29-15.44 16.28-.43z" fill="#f9c4c8"/><path class="st5" d="M743.6 527.84l-19.04 5.61c-1.82.54-2.88 2.41-2.35 4.19l11.56 39.27c.52 1.78 2.42 2.78 4.25 2.24l19.04-5.61c1.82-.54 2.88-2.41 2.35-4.19l-11.56-39.27c-.52-1.77-2.42-2.78-4.25-2.24z"/><path class="st4" d="M756 572.98l-17.37 5.11c-1.85.54-3.79-.51-4.33-2.36l-10.99-37.31c-.54-1.85.51-3.79 2.36-4.33l17.37-5.11c1.85-.54 3.79.51 4.33 2.36l10.99 37.31c.54 1.85-.51 3.79-2.36 4.33z"/><path d="M754.08 567.65l-16.73 4.93c-1.4.41-2.87-.39-3.28-1.79l-8.27-28.08c-.41-1.4.39-2.87 1.79-3.28l16.73-4.93c1.4-.41 2.87.39 3.28 1.79l8.27 28.08c.41 1.39-.39 2.87-1.79 3.28z" fill="#bd2f7f"/><circle class="st5" cx="746.56" cy="572.97" r="1.73"/><path class="st5" d="M737.81 534.58l-4.7 1.38c-.25.07-.52-.07-.59-.32-.07-.25.07-.52.32-.59l4.7-1.38c.25-.07.52.07.59.32.07.25-.07.52-.32.59z"/><circle class="st4" cx="746.48" cy="572.71" r="1.73"/><g><path class="st4" d="M748.26 549.12c-.83-.34-1.79-.36-2.89-.03.87-1.33.8-2.7-.21-4.12-.36-.51-.78-.9-1.26-1.16-.48-.25-1-.38-1.57-.38-.57 0-1.14.08-1.71.24-.58.16-1.21.4-1.89.71l-1.78-3.11-1.9 1.09 1.73 3.03c-.33.19-.83.48-1.49.89l-1.75-3.05-1.9 1.09 1.78 3.11c-.27.16-.66.4-1.19.7l-2.63 1.49 1.16 2.03 1.37-.79c.63-.36 1.15-.29 1.58.21l2.03 3.55c.08-.05.15-.08.2-.1l-.2.11 2.84 4.97c.17.46.06.8-.36 1.04l-1.37.79.91 2.48 2.47-1.42c.16-.09.38-.22.68-.38.3-.17.52-.29.67-.38l1.8 3.15 1.9-1.09-1.78-3.11c.35-.19.86-.47 1.51-.85l1.78 3.1 1.9-1.09-1.8-3.15c.66-.42 1.22-.82 1.69-1.22.47-.39.89-.82 1.26-1.29.37-.47.63-.94.78-1.41.16-.47.21-.99.17-1.56-.05-.57-.21-1.16-.48-1.77-.53-1.2-1.22-1.98-2.05-2.32zm-11.67-.63c.06-.03.22-.13.48-.29.27-.16.49-.29.66-.4.17-.1.42-.23.73-.38.32-.15.59-.26.82-.34.23-.08.5-.14.8-.18.3-.05.57-.05.79.01.23.05.45.15.67.3.22.15.41.36.57.63.13.23.22.46.25.69.03.23.01.45-.06.67-.07.21-.16.41-.27.6-.1.18-.26.38-.47.57-.21.2-.4.36-.56.5-.16.14-.38.29-.64.46-.27.17-.47.29-.6.38-.14.08-.33.19-.57.33-.24.14-.39.21-.43.24l-2.17-3.79zm10.02 5.43c.03.23.02.46-.02.67-.04.21-.14.43-.28.65-.14.22-.29.42-.44.6-.15.17-.35.36-.59.56-.24.2-.45.37-.64.51s-.42.29-.69.46c-.27.17-.49.3-.64.39-.16.09-.36.2-.6.33s-.39.22-.46.26l-2.39-4.18c.07-.04.26-.15.58-.35.32-.19.58-.35.79-.47.21-.12.5-.27.87-.45.38-.18.7-.32.98-.41.28-.09.59-.17.94-.23s.66-.08.93-.03c.27.04.53.15.78.31.26.16.47.39.64.68.13.24.21.47.24.7zm0 0"/></g><circle class="st25" cx="257.42" cy="618.34" r="5.33"/></g></svg>