<svg xmlns="http://www.w3.org/2000/svg" viewBox="0 0 1000 1000"><style>.st0{fill:#474747}.st3{fill:#ff9300}.st4{fill:#ffbf2b}.st5{fill:#fdd846}.st6{fill:#ffa228}.st7{fill:#fc9302}.st8{fill:#14a359}.st9{fill:#2c7}.st10{fill:#fff}.st11{fill:#e1e1e1}.st12{fill:#34b1eb}.st13{fill:#c66049}.st14{fill:#ff7f5c}.st15{fill:#f60}.st16{fill:#d1d3d4}.st17{fill:#4c4c4c}.st18{fill:#bd2f7f}.st20{fill:#8a8a8a}.st21{fill:#122255}.st22{fill:#1c3172}.st23{fill:#ffb68e}.st26{fill:#ff7a9c}.st27{fill:#ff437f}.st28{fill:#0036ac}.st30{fill:#00c3c4}.st32{fill:#ffc9cf}.st33{fill:#004e47}.st34{fill:#ffb089}.st35{fill:#162653}.st37{fill:#00bdee}.st38{fill:#0095eb}.st39{fill:#0080ff}.st40{fill:#d00035}.st49{fill:#1e246b}</style><path class="st0" d="M191.4 634.56c-28.44 5.03-57.14 8.59-82.17 25.17-26.47 17.54-47.8 42.91-67.8 67.96-12.48 15.63-25.79 34.33-22.19 54.42 4.8 26.75 35.1 37.09 60.36 42.01 38.12 7.43 76.37 14.15 114.72 20.17 44.38 6.96 89.9 12.95 133.86 3.27 50.53-11.12 57.78-42.65 109.28-39.62 46.61 2.74 90.63 33.88 136.79 26.35 31.36-5.12 58.2-27.54 89.32-34.1 40.85-8.62 81.64 11.04 119.7 28.87 38.06 17.82 80.93 34.5 120.34 20.16 30.21-11 52.64-38.76 67.31-68.86 16.4-33.67 24.04-76.96 3.48-107.86-23.9-35.92-72.48-38.17-113.97-36.87-116.18 3.63-232.35 7.25-348.53 10.88-58.09 1.81-116.18 3.63-174.26 5.44-29.04.91-18.03 2.26-47.07 2.72-20.66.32-36.45-8.26-56.5-11.05l-42.67-9.06z" id="Shadows"/><path class="st0" d="M439.38 357.43l-25.99-31.95c1.15-10.16 1.3-20.32.46-30.35l27.49-29.77c1.17-1.26 1.5-3.09.86-4.69l-17.93-44.37c-.62-1.55-2.07-2.62-3.72-2.77l-41.04-3.7c-5.57-6.83-11.74-13.22-18.49-19.08l-1.12-40.49c-.05-1.72-1.09-3.26-2.67-3.96l-43.83-19.23c-1.53-.67-3.31-.42-4.6.63l-31.96 26.01c-9.69-1.1-19.39-1.27-28.96-.55l-29.55-27.75c-1.25-1.18-3.06-1.53-4.67-.89l-44.53 17.54c-1.55.62-2.64 2.04-2.79 3.7l-4.06 41.02c-7.19 5.75-13.9 12.17-20.04 19.22l-40.49 1.08c-1.72.05-3.26 1.09-3.96 2.66l-19.27 43.81c-.67 1.53-.44 3.31.63 4.6l25.99 31.97c-1.28 11.1-1.33 22.19-.23 33.11l-26.98 30.25c-1.15 1.28-1.45 3.12-.76 4.7l18.69 44.05c.65 1.54 2.11 2.59 3.78 2.71l41.11 3c5.08 6.03 10.65 11.7 16.69 16.95l1.11 40.5c.04 1.71 1.07 3.26 2.65 3.95l43.8 19.24c1.54.68 3.31.42 4.61-.62l31.96-26.01c10.62 1.23 21.25 1.32 31.72.37l30.02 27.23c1.28 1.16 3.1 1.47 4.71.82l44.21-18.32c1.55-.64 2.61-2.08 2.74-3.75l3.34-41.08c6.43-5.31 12.47-11.18 18.02-17.58l40.49-1.12c1.73-.05 3.26-1.09 3.96-2.66l19.25-43.82c.65-1.54.41-3.31-.65-4.61zm-225.32 53.38c-56.88-24.96-82.74-91.28-57.79-148.16s91.28-82.74 148.16-57.79c56.88 24.96 82.74 91.28 57.79 148.16-24.96 56.88-91.29 82.75-148.16 57.79z" id="Gear"/><g id="Wallet_Coins"><path d="M412.56 246.48c15.87 8.04 23.75 24.39 19.24 33.3-4.52 8.91-22.63 5.55-38.5-2.49-15.87-8.04-23.49-17.73-18.97-26.64 4.51-8.91 22.36-12.21 38.23-4.17z" fill="#a5e6f1"/><path d="M403.67 207.67c6.08 10.63 9.14 22.21 3.31 25.54-5.83 3.33-17.81-1.94-23.89-12.57-6.08-10.63-6-23.32-.17-26.65 5.82-3.33 14.68 3.05 20.75 13.68z" fill="#4c90c2"/><path class="st3" d="M445.81 228.03c5.02 10.61 3.43 22.48-3.22 25.63-6.65 3.15-15.42-2.71-20.44-13.32-5.02-10.61-6.5-22.71.15-25.86 6.66-3.15 18.49 2.93 23.51 13.55z"/><path class="st4" d="M568.76 607.82v20.52c0 3.6-2.52 6.16-5.71 7.87-14.3 7.66-44.01 13.82-74.37 14.15-26.82.3-49.71-1.77-68.1-8.17-1.56-.51-3.09-1.08-4.6-1.71-3-1.2-5.89-2.55-8.62-4.03-2.76-1.47-4.81-4.03-4.81-7.18v-21.45h166.21z"/><path class="st4" d="M568.76 607.82v20.52c0 3.6-2.52 6.16-5.71 7.87-14.3 7.66-44.01 13.82-74.37 14.15-18.77.21-35.63-.75-50.31-3.54-1.53-.27-3.03-.6-4.51-.93-1.44-.3-2.85-.66-4.27-1.02-1.53-.36-3.03-.78-4.51-1.23-1.53-.45-3.03-.93-4.51-1.44-1.56-.51-3.09-1.08-4.6-1.71-3-1.2-5.89-2.55-8.62-4.03-2.76-1.47-4.81-4.03-4.81-7.18v-21.45h166.22z"/><path class="st4" d="M568.76 607.82v20.52c0 2.82-1.56 5.02-3.75 6.61-.6.48-1.26.9-1.95 1.26-.72.39-1.47.78-2.28 1.14-1.38.66-2.88 1.32-4.51 1.92-1.35.54-2.76 1.08-4.27 1.56-1.44.51-2.94.96-4.51 1.44-1.38.39-2.79.78-4.27 1.17-1.47.39-2.97.75-4.51 1.11-1.38.33-2.79.63-4.24.96-1.47.3-2.97.6-4.51.87-1.41.27-2.82.51-4.27.75-1.47.24-2.97.48-4.51.72-1.41.18-2.82.39-4.27.57-1.47.18-2.97.36-4.51.51-1.38.15-2.79.3-4.24.42-1.47.15-3 .27-4.51.36-1.41.12-2.82.21-4.27.27-1.5.09-3 .15-4.51.21-1.41.06-2.82.09-4.27.12-.66 0-1.32.03-1.98.03-.84.03-1.68.03-2.52.03-1.41 0-2.82 0-4.24-.03-1.5.03-3 0-4.51-.03-1.44 0-2.85-.06-4.27-.12-1.53 0-3.03-.06-4.51-.15-1.44-.03-2.85-.12-4.27-.21-1.53-.06-3.03-.18-4.51-.3-1.41-.09-2.82-.21-4.24-.36-1.53-.12-3.03-.27-4.51-.48-1.44-.12-2.85-.3-4.27-.54-1.53-.18-3.03-.39-4.51-.66-1.35-.21-2.67-.45-4-.69-1.53-.27-3.03-.6-4.51-.93-1.44-.3-2.85-.66-4.27-1.02-1.53-.36-3.03-.78-4.51-1.23-1.53-.45-3.03-.93-4.51-1.44-1.56-.51-3.09-1.08-4.6-1.71-3-1.2-5.89-2.55-8.62-4.03-2.76-1.47-4.81-4.03-4.81-7.18v-21.45h166.33z"/><path class="st5" d="M568.76 607.82c0 3.03-1.38 5.68-3.75 7.96-1.17 1.14-2.61 2.16-4.24 3.15-1.38.81-2.88 1.56-4.51 2.25-1.35.57-2.76 1.11-4.27 1.62-1.44.51-2.94.96-4.51 1.41-1.38.39-2.79.75-4.27 1.08-1.47.36-2.97.69-4.51.99-1.38.27-2.79.54-4.24.78-1.47.27-2.97.51-4.51.72-1.41.21-2.85.42-4.27.57-1.5.21-3 .39-4.51.57-1.41.15-2.85.3-4.27.42-1.5.15-3.03.27-4.51.39-1.44.12-2.85.21-4.24.3-1.56.12-3.06.21-4.51.27-1.47.09-2.91.18-4.27.24-1.59.06-3.12.09-4.51.15-1.59.03-3 .09-4.27.12-1.98.03-3.51.03-4.51.03h-.48c-.75 0-2.04 0-3.75-.03-1.29-.03-2.79-.06-4.51-.09-1.32-.03-2.73-.09-4.27-.12-1.41-.09-2.94-.15-4.51-.24-1.38-.06-2.79-.15-4.27-.24-1.47-.09-2.97-.18-4.51-.3-1.38-.12-2.82-.24-4.24-.36-1.5-.12-3-.27-4.51-.45-1.41-.15-2.85-.3-4.27-.48-1.5-.18-3-.39-4.51-.6-20.25-2.88-39.8-8.65-39.8-20.13 0-22.38 74.58-23.01 83.12-23.01 8.61.02 83.19.65 83.19 23.03z"/><ellipse class="st4" cx="485.67" cy="607.83" rx="77.1" ry="20.03"/><path class="st6" d="M485.67 587.81c-42.58 0-77.1 10.62-77.1 20.03 0 1.77 1.22 3.58 3.49 5.36-.48-.79-.74-1.58-.74-2.35 0-9.05 33.23-19.28 74.22-19.28s74.22 10.23 74.22 19.28c0 .89-.33 1.79-.95 2.69 2.55-1.88 3.95-3.81 3.95-5.69 0-9.42-34.51-20.04-77.09-20.04z"/><path class="st5" d="M415.99 621.55v18.92c1.5.63 3.03 1.2 4.6 1.71v-18.95c-1.62-.52-3.15-1.08-4.6-1.68zm-9.17-5.35v19.92c.18.11.36.23.55.33 1.28.69 2.61 1.35 3.96 1.99v-19.09c-1.74-.97-3.24-2.02-4.51-3.15zm18.27 8.35v19.08c1.47.45 2.97.87 4.51 1.23v-19.21c-1.54-.34-3.04-.71-4.51-1.1zm8.77 1.99v19.34c1.47.33 2.97.66 4.51.93v-19.48c-1.52-.25-3.02-.51-4.51-.79zm13.01 2.01v19.61c-1.53-.18-3.03-.39-4.51-.66v-19.56c1.5.22 3.01.43 4.51.61z"/><path class="st6" d="M455.64 629.48v19.71c-1.53-.12-3.03-.27-4.51-.48v-19.67c1.51.17 3.01.32 4.51.44zm8.74.66v19.7c-1.53-.06-3.03-.18-4.51-.3v-19.71c1.54.13 3.04.22 4.51.31zm8.77.48v19.58c-1.53 0-3.03-.06-4.51-.15v-19.67c1.57.09 3.1.15 4.51.24zm8.77.21v19.52c-1.5.03-3 0-4.51-.03v-19.58c1.72.03 3.22.06 4.51.09zm8.74 0v19.49c-.66 0-1.32.03-1.98.03-.84.03-1.68.03-2.52.03v-19.52c.99 0 2.52 0 4.5-.03zm8.77-.27v19.43c-1.5.09-3 .15-4.51.21v-19.49c1.39-.06 2.92-.09 4.51-.15zm8.78-.51v19.31c-1.47.15-3 .27-4.51.36v-19.4c1.44-.06 2.94-.15 4.51-.27zm8.74-.69v19.07c-1.47.18-2.97.36-4.51.51v-19.19c1.47-.12 3-.24 4.51-.39zm8.77-.99v18.77c-1.47.24-2.97.48-4.51.72v-18.92c1.5-.18 3.01-.36 4.51-.57zm8.77-1.29v18.44c-1.47.3-2.97.6-4.51.87V627.8c1.54-.21 3.04-.45 4.51-.72z"/><path class="st7" d="M543.23 625.3v18.14c-1.47.39-2.97.75-4.51 1.11v-18.26c1.54-.3 3.04-.63 4.51-.99zm8.77-2.49v18.02c-1.44.51-2.94.96-4.51 1.44v-18.05c1.57-.45 3.07-.9 4.51-1.41zm8.77-3.87v18.41c-1.38.66-2.88 1.32-4.51 1.92v-18.08c1.63-.69 3.13-1.44 4.51-2.25zm7.99-11.12v20.52c0 2.82-1.56 5.02-3.75 6.61v-19.16c2.37-2.29 3.75-4.93 3.75-7.97z"/><path class="st4" d="M569.32 580v20.52c0 3.6-2.52 6.16-5.71 7.87-14.3 7.66-44.01 13.82-74.37 14.15-26.82.3-49.71-1.77-68.1-8.17-1.56-.51-3.09-1.08-4.6-1.71-3-1.2-5.89-2.55-8.62-4.03-2.76-1.47-4.81-4.03-4.81-7.18V580h166.21z"/><path class="st4" d="M569.32 580v20.52c0 3.6-2.52 6.16-5.71 7.87-14.3 7.66-44.01 13.82-74.37 14.15-18.77.21-35.62-.75-50.31-3.54-1.53-.27-3.03-.6-4.51-.93-1.44-.3-2.85-.66-4.27-1.02-1.53-.36-3.03-.78-4.51-1.23-1.53-.45-3.03-.93-4.51-1.44-1.56-.51-3.09-1.08-4.6-1.71-3-1.2-5.89-2.55-8.62-4.03-2.76-1.47-4.81-4.03-4.81-7.18V580h166.22z"/><path class="st4" d="M569.32 580v20.52c0 2.82-1.56 5.02-3.75 6.61-.6.48-1.26.9-1.95 1.26-.72.39-1.47.78-2.28 1.14-1.38.66-2.88 1.32-4.51 1.92-1.35.54-2.76 1.08-4.27 1.56-1.44.51-2.94.96-4.51 1.44-1.38.39-2.79.78-4.27 1.17-1.47.39-2.97.75-4.51 1.11-1.38.33-2.79.63-4.24.96-1.47.3-2.97.6-4.51.87-1.41.27-2.82.51-4.27.75-1.47.24-2.97.48-4.51.72-1.41.18-2.82.39-4.27.57-1.47.18-2.97.36-4.51.51-1.38.15-2.79.3-4.24.42-1.47.15-3 .27-4.51.36-1.41.12-2.82.21-4.27.27-1.5.09-3 .15-4.51.21-1.41.06-2.82.09-4.27.12-.66 0-1.32.03-1.98.03-.84.03-1.68.03-2.52.03-1.41 0-2.82 0-4.24-.03-1.5.03-3 0-4.51-.03-1.44 0-2.85-.06-4.27-.12-1.53 0-3.03-.06-4.51-.15-1.44-.03-2.85-.12-4.27-.21-1.53-.06-3.03-.18-4.51-.3-1.41-.09-2.82-.21-4.24-.36-1.53-.12-3.03-.27-4.51-.48-1.44-.12-2.85-.3-4.27-.54-1.53-.18-3.03-.39-4.51-.66-1.35-.21-2.67-.45-3.99-.69-1.53-.27-3.03-.6-4.51-.93-1.44-.3-2.85-.66-4.27-1.02-1.53-.36-3.03-.78-4.51-1.23-1.53-.45-3.03-.93-4.51-1.44-1.56-.51-3.09-1.08-4.6-1.71-3-1.2-5.89-2.55-8.62-4.03-2.76-1.47-4.81-4.03-4.81-7.18V580h166.32z"/><path class="st5" d="M569.32 580c0 3.03-1.38 5.68-3.75 7.96-1.17 1.14-2.61 2.16-4.24 3.15-1.38.81-2.88 1.56-4.51 2.25-1.35.57-2.76 1.11-4.27 1.62-1.44.51-2.94.96-4.51 1.41-1.38.39-2.79.75-4.27 1.08-1.47.36-2.97.69-4.51.99-1.38.27-2.79.54-4.24.78-1.47.27-2.97.51-4.51.72-1.41.21-2.85.42-4.27.57-1.5.21-3 .39-4.51.57-1.41.15-2.85.3-4.27.42-1.5.15-3.03.27-4.51.39-1.44.12-2.85.21-4.24.3-1.56.12-3.06.21-4.51.27-1.47.09-2.91.18-4.27.24-1.59.06-3.12.09-4.51.15-1.59.03-3 .09-4.27.12-1.98.03-3.51.03-4.51.03h-.48c-.75 0-2.04 0-3.75-.03-1.29-.03-2.79-.06-4.51-.09-1.32-.03-2.73-.09-4.27-.12-1.41-.09-2.94-.15-4.51-.24-1.38-.06-2.79-.15-4.27-.24-1.47-.09-2.97-.18-4.51-.3-1.38-.12-2.82-.24-4.24-.36-1.5-.12-3-.27-4.51-.45-1.41-.15-2.85-.3-4.27-.48-1.5-.18-3-.39-4.51-.6-20.25-2.88-39.8-8.65-39.8-20.13 0-22.38 74.58-23.01 83.12-23.01 8.6.02 83.19.65 83.19 23.03z"/><ellipse class="st4" cx="486.22" cy="580.01" rx="77.1" ry="20.03"/><path class="st6" d="M486.22 559.98c-42.58 0-77.1 10.62-77.1 20.03 0 1.77 1.22 3.58 3.49 5.36-.48-.79-.74-1.58-.74-2.35 0-9.05 33.23-19.28 74.22-19.28s74.22 10.23 74.22 19.28c0 .89-.33 1.79-.95 2.69 2.55-1.88 3.95-3.81 3.95-5.69.01-9.41-34.51-20.04-77.09-20.04z"/><path class="st5" d="M416.54 593.73v18.92c1.5.63 3.03 1.2 4.6 1.71v-18.95c-1.61-.52-3.14-1.09-4.6-1.68zm-9.17-5.36v19.92c.18.11.36.23.55.33 1.28.69 2.61 1.35 3.96 1.99v-19.09c-1.73-.97-3.24-2.02-4.51-3.15zm18.28 8.35v19.08c1.47.45 2.97.87 4.51 1.23v-19.21c-1.55-.34-3.05-.71-4.51-1.1zm8.77 1.99v19.34c1.47.33 2.97.66 4.51.93V599.5c-1.52-.24-3.03-.5-4.51-.79zm13 2.01v19.61c-1.53-.18-3.03-.39-4.51-.66v-19.55c1.51.21 3.01.42 4.51.6z"/><path class="st6" d="M456.2 601.65v19.7c-1.53-.12-3.03-.27-4.51-.48V601.2c1.5.18 3 .33 4.51.45zm8.74.67v19.71c-1.53-.06-3.03-.18-4.51-.3v-19.7c1.53.11 3.03.2 4.51.29zm8.77.48v19.58c-1.53 0-3.03-.06-4.51-.15v-19.67c1.56.09 3.1.15 4.51.24zm8.77.21v19.52c-1.5.03-3 0-4.51-.03v-19.58c1.72.03 3.22.06 4.51.09zm8.74 0v19.49c-.66 0-1.32.03-1.98.03-.84.03-1.68.03-2.52.03v-19.52c.99 0 2.52 0 4.5-.03zm8.77-.27v19.43c-1.5.09-3 .15-4.51.21v-19.49c1.39-.06 2.92-.09 4.51-.15zm8.77-.51v19.31c-1.47.15-3 .27-4.51.36v-19.4c1.45-.06 2.95-.15 4.51-.27zm8.74-.7v19.07c-1.47.18-2.97.36-4.51.51v-19.19c1.48-.12 3.01-.24 4.51-.39zm8.77-.99v18.77c-1.47.24-2.97.48-4.51.72v-18.92c1.51-.18 3.01-.36 4.51-.57zm8.78-1.29v18.44c-1.47.3-2.97.6-4.51.87v-18.59c1.53-.21 3.03-.45 4.51-.72z"/><path class="st7" d="M543.79 597.48v18.14c-1.47.39-2.97.75-4.51 1.11v-18.26c1.53-.3 3.03-.63 4.51-.99zm8.77-2.49v18.02c-1.44.51-2.94.96-4.51 1.44V596.4c1.56-.45 3.07-.9 4.51-1.41zm8.77-3.88v18.41c-1.38.66-2.88 1.32-4.51 1.92v-18.08c1.63-.69 3.13-1.44 4.51-2.25zm7.99-11.11v20.52c0 2.82-1.56 5.02-3.75 6.61v-19.16c2.37-2.3 3.75-4.94 3.75-7.97z"/><g><path class="st4" d="M568.13 552.19v20.52c0 3.6-2.52 6.16-5.71 7.87-14.3 7.66-44.01 13.82-74.37 14.15-26.82.3-49.71-1.77-68.1-8.17-1.56-.51-3.09-1.08-4.6-1.71-3-1.2-5.89-2.55-8.62-4.03-2.76-1.47-4.81-4.03-4.81-7.18v-21.45h166.21z"/><path class="st4" d="M568.13 552.19v20.52c0 3.6-2.52 6.16-5.71 7.87-14.3 7.66-44.01 13.82-74.37 14.15-18.77.21-35.63-.75-50.31-3.54-1.53-.27-3.03-.6-4.51-.93-1.44-.3-2.85-.66-4.27-1.02-1.53-.36-3.03-.78-4.51-1.23-1.53-.45-3.03-.93-4.51-1.44-1.56-.51-3.09-1.08-4.6-1.71-3-1.2-5.89-2.55-8.62-4.03-2.76-1.47-4.81-4.03-4.81-7.18V552.2h166.22z"/><path class="st4" d="M568.13 552.19v20.52c0 2.82-1.56 5.02-3.75 6.61-.6.48-1.26.9-1.95 1.26-.72.39-1.47.78-2.28 1.14-1.38.66-2.88 1.32-4.51 1.92-1.35.54-2.76 1.08-4.27 1.56-1.44.51-2.94.96-4.51 1.44-1.38.39-2.79.78-4.27 1.17-1.47.39-2.97.75-4.51 1.11-1.38.33-2.79.63-4.24.96-1.47.3-2.97.6-4.51.87-1.41.27-2.82.51-4.27.75-1.47.24-2.97.48-4.51.72-1.41.18-2.82.39-4.27.57-1.47.18-2.97.36-4.51.51-1.38.15-2.79.3-4.24.42-1.47.15-3 .27-4.51.36-1.41.12-2.82.21-4.27.27-1.5.09-3 .15-4.51.21-1.41.06-2.82.09-4.27.12-.66 0-1.32.03-1.98.03-.84.03-1.68.03-2.52.03-1.41 0-2.82 0-4.24-.03-1.5.03-3 0-4.51-.03-1.44 0-2.85-.06-4.27-.12-1.53 0-3.03-.06-4.51-.15-1.44-.03-2.85-.12-4.27-.21-1.53-.06-3.03-.18-4.51-.3-1.41-.09-2.82-.21-4.24-.36-1.53-.12-3.03-.27-4.51-.48-1.44-.12-2.85-.3-4.27-.54-1.53-.18-3.03-.39-4.51-.66-1.35-.21-2.67-.45-4-.69-1.53-.27-3.03-.6-4.51-.93-1.44-.3-2.85-.66-4.27-1.02-1.53-.36-3.03-.78-4.51-1.23-1.53-.45-3.03-.93-4.51-1.44-1.56-.51-3.09-1.08-4.6-1.71-3-1.2-5.89-2.55-8.62-4.03-2.76-1.47-4.81-4.03-4.81-7.18v-21.45h166.33z"/><path class="st5" d="M568.13 552.19c0 3.03-1.38 5.68-3.75 7.96-1.17 1.14-2.61 2.16-4.24 3.15-1.38.81-2.88 1.56-4.51 2.25-1.35.57-2.76 1.11-4.27 1.62-1.44.51-2.94.96-4.51 1.41-1.38.39-2.79.75-4.27 1.08-1.47.36-2.97.69-4.51.99-1.38.27-2.79.54-4.24.78-1.47.27-2.97.51-4.51.72-1.41.21-2.85.42-4.27.57-1.5.21-3 .39-4.51.57-1.41.15-2.85.3-4.27.42-1.5.15-3.03.27-4.51.39-1.44.12-2.85.21-4.24.3-1.56.12-3.06.21-4.51.27-1.47.09-2.91.18-4.27.24-1.59.06-3.12.09-4.51.15-1.59.03-3 .09-4.27.12-1.98.03-3.51.03-4.51.03h-.48c-.75 0-2.04 0-3.75-.03-1.29-.03-2.79-.06-4.51-.09-1.32-.03-2.73-.09-4.27-.12-1.41-.09-2.94-.15-4.51-.24-1.38-.06-2.79-.15-4.27-.24-1.47-.09-2.97-.18-4.51-.3-1.38-.12-2.82-.24-4.24-.36-1.5-.12-3-.27-4.51-.45-1.41-.15-2.85-.3-4.27-.48-1.5-.18-3-.39-4.51-.6-20.25-2.88-39.8-8.65-39.8-20.13 0-22.38 74.58-23.01 83.12-23.01 8.61.02 83.19.65 83.19 23.03z"/><path class="st4" d="M562.14 552.2c0 9.4-34.52 20.03-77.1 20.03s-77.1-10.62-77.1-20.03c0-9.4 34.52-20.02 77.1-20.02s77.1 10.61 77.1 20.02z"/><path class="st6" d="M485.04 532.17c-42.58 0-77.1 10.62-77.1 20.03 0 1.77 1.22 3.58 3.49 5.36-.48-.79-.74-1.58-.74-2.35 0-9.05 33.23-19.28 74.22-19.28s74.22 10.23 74.22 19.28c0 .89-.33 1.79-.95 2.69 2.55-1.88 3.95-3.81 3.95-5.69.01-9.42-34.51-20.04-77.09-20.04z"/><path class="st5" d="M415.36 565.92v18.92c1.5.63 3.03 1.2 4.6 1.71V567.6c-1.62-.53-3.15-1.09-4.6-1.68zm-9.17-5.36v19.92c.18.11.36.23.55.33 1.28.69 2.61 1.35 3.96 1.99v-19.1c-1.74-.96-3.24-2.01-4.51-3.14zm18.27 8.35v19.08c1.47.45 2.97.87 4.51 1.23v-19.21c-1.54-.34-3.04-.71-4.51-1.1zm8.77 1.99v19.34c1.47.33 2.97.66 4.51.93v-19.48c-1.52-.24-3.02-.5-4.51-.79zm13.01 2.01v19.62c-1.53-.18-3.03-.39-4.51-.66v-19.55c1.5.2 3.01.41 4.51.59z"/><path class="st6" d="M455.01 573.84v19.71c-1.53-.12-3.03-.27-4.51-.48v-19.68c1.51.18 3.01.33 4.51.45zm8.74.66v19.7c-1.53-.06-3.03-.18-4.51-.3v-19.7c1.54.12 3.04.21 4.51.3zm8.77.48v19.58c-1.53 0-3.03-.06-4.51-.15v-19.67c1.57.09 3.1.15 4.51.24zm8.77.21v19.52c-1.5.03-3 0-4.51-.03V575.1c1.72.03 3.22.06 4.51.09zm8.74 0v19.49c-.66 0-1.32.03-1.98.03-.84.03-1.68.03-2.52.03v-19.52c.99 0 2.52 0 4.5-.03zm8.78-.27v19.43c-1.5.09-3 .15-4.51.21v-19.49c1.38-.06 2.91-.09 4.51-.15zm8.77-.51v19.31c-1.47.15-3 .27-4.51.36v-19.4c1.44-.06 2.94-.15 4.51-.27zm8.74-.69v19.07c-1.47.18-2.97.36-4.51.51v-19.19c1.47-.12 3.01-.24 4.51-.39zm8.77-.99v18.77c-1.47.24-2.97.48-4.51.72V573.3c1.5-.18 3.01-.36 4.51-.57zm8.77-1.29v18.44c-1.47.3-2.97.6-4.51.87v-18.59c1.54-.21 3.04-.45 4.51-.72z"/><path class="st7" d="M542.6 569.67v18.14c-1.47.39-2.97.75-4.51 1.11v-18.26c1.54-.3 3.04-.63 4.51-.99zm8.77-2.5v18.02c-1.44.51-2.94.96-4.51 1.44v-18.05c1.57-.44 3.07-.9 4.51-1.41zm8.77-3.87v18.41c-1.38.66-2.88 1.32-4.51 1.92v-18.08c1.63-.69 3.13-1.44 4.51-2.25zm7.99-11.11v20.52c0 2.82-1.56 5.02-3.75 6.61v-19.16c2.37-2.3 3.75-4.94 3.75-7.97z"/></g><g><path class="st4" d="M220.26 589.73v20.52c0 3.6-2.52 6.16-5.71 7.87-14.3 7.66-44.01 13.82-74.37 14.15-26.82.3-49.71-1.77-68.1-8.17-1.56-.51-3.09-1.08-4.6-1.71-3-1.2-5.89-2.55-8.62-4.03-2.76-1.47-4.81-4.03-4.81-7.18v-21.45h166.21z"/><path class="st4" d="M220.26 589.73v20.52c0 3.6-2.52 6.16-5.71 7.87-14.3 7.66-44.01 13.82-74.37 14.15-18.77.21-35.63-.75-50.31-3.54-1.53-.27-3.03-.6-4.51-.93-1.44-.3-2.85-.66-4.27-1.02-1.53-.36-3.03-.78-4.51-1.23-1.53-.45-3.03-.93-4.51-1.44-1.56-.51-3.09-1.08-4.6-1.71-3-1.2-5.89-2.55-8.62-4.03-2.76-1.47-4.81-4.03-4.81-7.18v-21.45h166.22z"/><path class="st4" d="M220.26 589.73v20.52c0 2.82-1.56 5.02-3.75 6.61-.6.48-1.26.9-1.95 1.26-.72.39-1.47.78-2.28 1.14-1.38.66-2.88 1.32-4.51 1.92-1.35.54-2.76 1.08-4.27 1.56-1.44.51-2.94.96-4.51 1.44-1.38.39-2.79.78-4.27 1.17-1.47.39-2.97.75-4.51 1.11-1.38.33-2.79.63-4.24.96-1.47.3-2.97.6-4.51.87-1.41.27-2.82.51-4.27.75-1.47.24-2.97.48-4.51.72-1.41.18-2.82.39-4.27.57-1.47.18-2.97.36-4.51.51-1.38.15-2.79.3-4.24.42-1.47.15-3 .27-4.51.36-1.41.12-2.82.21-4.27.27-1.5.09-3 .15-4.51.21-1.41.06-2.82.09-4.27.12-.66 0-1.32.03-1.98.03-.84.03-1.68.03-2.52.03-1.41 0-2.82 0-4.24-.03-1.5.03-3 0-4.51-.03-1.44 0-2.85-.06-4.27-.12-1.53 0-3.03-.06-4.51-.15-1.44-.03-2.85-.12-4.27-.21-1.53-.06-3.03-.18-4.51-.3-1.41-.09-2.82-.21-4.24-.36-1.53-.12-3.03-.27-4.51-.48-1.44-.12-2.85-.3-4.27-.54-1.53-.18-3.03-.39-4.51-.66-1.35-.21-2.67-.45-4-.69-1.53-.27-3.03-.6-4.51-.93-1.44-.3-2.85-.66-4.27-1.02-1.53-.36-3.03-.78-4.51-1.23-1.53-.45-3.03-.93-4.51-1.44-1.56-.51-3.09-1.08-4.6-1.71-3-1.2-5.89-2.55-8.62-4.03-2.76-1.47-4.81-4.03-4.81-7.18v-21.45h166.33z"/><path class="st5" d="M220.26 589.73c0 3.03-1.38 5.68-3.75 7.96-1.17 1.14-2.61 2.16-4.24 3.15-1.38.81-2.88 1.56-4.51 2.25-1.35.57-2.76 1.11-4.27 1.62-1.44.51-2.94.96-4.51 1.41-1.38.39-2.79.75-4.27 1.08-1.47.36-2.97.69-4.51.99-1.38.27-2.79.54-4.24.78-1.47.27-2.97.51-4.51.72-1.41.21-2.85.42-4.27.57-1.5.21-3 .39-4.51.57-1.41.15-2.85.3-4.27.42-1.5.15-3.03.27-4.51.39-1.44.12-2.85.21-4.24.3-1.56.12-3.06.21-4.51.27-1.47.09-2.91.18-4.27.24-1.59.06-3.12.09-4.51.15-1.59.03-3 .09-4.27.12-1.98.03-3.51.03-4.51.03h-.48c-.75 0-2.04 0-3.75-.03-1.29-.03-2.79-.06-4.51-.09-1.32-.03-2.73-.09-4.27-.12-1.41-.09-2.94-.15-4.51-.24-1.38-.06-2.79-.15-4.27-.24-1.47-.09-2.97-.18-4.51-.3-1.38-.12-2.82-.24-4.24-.36-1.5-.12-3-.27-4.51-.45-1.41-.15-2.85-.3-4.27-.48-1.5-.18-3-.39-4.51-.6-20.25-2.88-39.8-8.65-39.8-20.13 0-22.38 74.58-23.01 83.12-23.01 8.61.02 83.19.65 83.19 23.03z"/><ellipse class="st4" cx="137.17" cy="589.74" rx="77.1" ry="20.03"/><path class="st6" d="M137.17 569.71c-42.58 0-77.1 10.62-77.1 20.03 0 1.77 1.22 3.58 3.49 5.36-.48-.79-.74-1.58-.74-2.35 0-9.05 33.23-19.28 74.22-19.28s74.22 10.23 74.22 19.28c0 .89-.33 1.79-.95 2.69 2.55-1.88 3.95-3.81 3.95-5.69 0-9.41-34.51-20.04-77.09-20.04z"/><path class="st5" d="M67.49 603.46v18.92c1.5.63 3.03 1.2 4.6 1.71v-18.95c-1.62-.52-3.15-1.09-4.6-1.68zm-9.17-5.36v19.92c.18.11.36.23.55.33 1.28.69 2.61 1.35 3.96 1.99v-19.09c-1.74-.97-3.25-2.02-4.51-3.15zm18.27 8.35v19.08c1.47.45 2.97.87 4.51 1.23v-19.21c-1.54-.34-3.04-.71-4.51-1.1zm8.77 1.99v19.34c1.47.33 2.97.66 4.51.93v-19.48c-1.52-.24-3.03-.5-4.51-.79zm13.01 2.01v19.61c-1.53-.18-3.03-.39-4.51-.66v-19.56c1.5.22 3 .43 4.51.61z"/><path class="st6" d="M107.14 611.38v19.71c-1.53-.12-3.03-.27-4.51-.48v-19.67c1.5.17 3.01.32 4.51.44zm8.74.66v19.71c-1.53-.06-3.03-.18-4.51-.3v-19.71c1.54.12 3.04.21 4.51.3zm8.77.49v19.58c-1.53 0-3.03-.06-4.51-.15v-19.67c1.57.09 3.1.15 4.51.24zm8.77.21v19.52c-1.5.03-3 0-4.51-.03v-19.58c1.72.03 3.22.06 4.51.09zm8.74 0v19.49c-.66 0-1.32.03-1.98.03-.84.03-1.68.03-2.52.03v-19.52c.99 0 2.52 0 4.5-.03zm8.77-.28v19.43c-1.5.09-3 .15-4.51.21v-19.49c1.39-.05 2.92-.08 4.51-.15zm8.77-.51v19.31c-1.47.15-3 .27-4.51.36v-19.4c1.45-.06 2.95-.15 4.51-.27zm8.75-.69v19.07c-1.47.18-2.97.36-4.51.51v-19.19c1.47-.12 3-.24 4.51-.39zm8.77-.99v18.77c-1.47.24-2.97.48-4.51.72v-18.92c1.5-.18 3-.36 4.51-.57zm8.77-1.29v18.44c-1.47.3-2.97.6-4.51.87V609.7c1.53-.21 3.04-.45 4.51-.72z"/><path class="st7" d="M194.73 607.21v18.14c-1.47.39-2.97.75-4.51 1.11V608.2c1.54-.3 3.04-.63 4.51-.99zm8.77-2.49v18.02c-1.44.51-2.94.96-4.51 1.44v-18.05c1.57-.45 3.07-.9 4.51-1.41zm8.77-3.88v18.41c-1.38.66-2.88 1.32-4.51 1.92v-18.08c1.63-.69 3.13-1.44 4.51-2.25zm7.99-11.11v20.52c0 2.82-1.56 5.02-3.75 6.61V597.7c2.37-2.3 3.75-4.94 3.75-7.97z"/><path class="st4" d="M220.82 561.9v20.52c0 3.6-2.52 6.16-5.71 7.87-14.3 7.66-44.01 13.82-74.37 14.15-26.82.3-49.71-1.77-68.1-8.17-1.56-.51-3.09-1.08-4.6-1.71-3-1.2-5.89-2.55-8.62-4.03-2.76-1.47-4.81-4.03-4.81-7.18V561.9h166.21z"/><path class="st4" d="M220.82 561.9v20.52c0 3.6-2.52 6.16-5.71 7.87-14.3 7.66-44.01 13.82-74.37 14.15-18.77.21-35.62-.75-50.31-3.54-1.53-.27-3.03-.6-4.51-.93-1.44-.3-2.85-.66-4.27-1.02-1.53-.36-3.03-.78-4.51-1.23-1.53-.45-3.03-.93-4.51-1.44-1.56-.51-3.09-1.08-4.6-1.71-3-1.2-5.89-2.55-8.62-4.03-2.76-1.47-4.81-4.03-4.81-7.18V561.9h166.22z"/><path class="st4" d="M220.82 561.9v20.52c0 2.82-1.56 5.02-3.75 6.61-.6.48-1.26.9-1.95 1.26-.72.39-1.47.78-2.28 1.14-1.38.66-2.88 1.32-4.51 1.92-1.35.54-2.76 1.08-4.27 1.56-1.44.51-2.94.96-4.51 1.44-1.38.39-2.79.78-4.27 1.17-1.47.39-2.97.75-4.51 1.11-1.38.33-2.79.63-4.24.96-1.47.3-2.97.6-4.51.87-1.41.27-2.82.51-4.27.75-1.47.24-2.97.48-4.51.72-1.41.18-2.82.39-4.27.57-1.47.18-2.97.36-4.51.51-1.38.15-2.79.3-4.24.42-1.47.15-3 .27-4.51.36-1.41.12-2.82.21-4.27.27-1.5.09-3 .15-4.51.21-1.41.06-2.82.09-4.27.12-.66 0-1.32.03-1.98.03-.84.03-1.68.03-2.52.03-1.41 0-2.82 0-4.24-.03-1.5.03-3 0-4.51-.03-1.44 0-2.85-.06-4.27-.12-1.53 0-3.03-.06-4.51-.15-1.44-.03-2.85-.12-4.27-.21-1.53-.06-3.03-.18-4.51-.3-1.41-.09-2.82-.21-4.24-.36-1.53-.12-3.03-.27-4.51-.48-1.44-.12-2.85-.3-4.27-.54-1.53-.18-3.03-.39-4.51-.66-1.35-.21-2.67-.45-3.99-.69-1.53-.27-3.03-.6-4.51-.93-1.44-.3-2.85-.66-4.27-1.02-1.53-.36-3.03-.78-4.51-1.23-1.53-.45-3.03-.93-4.51-1.44-1.56-.51-3.09-1.08-4.6-1.71-3-1.2-5.89-2.55-8.62-4.03-2.76-1.47-4.81-4.03-4.81-7.18V561.9h166.32z"/><path class="st5" d="M220.82 561.9c0 3.03-1.38 5.68-3.75 7.96-1.17 1.14-2.61 2.16-4.24 3.15-1.38.81-2.88 1.56-4.51 2.25-1.35.57-2.76 1.11-4.27 1.62-1.44.51-2.94.96-4.51 1.41-1.38.39-2.79.75-4.27 1.08-1.47.36-2.97.69-4.51.99-1.38.27-2.79.54-4.24.78-1.47.27-2.97.51-4.51.72-1.41.21-2.85.42-4.27.57-1.5.21-3 .39-4.51.57-1.41.15-2.85.3-4.27.42-1.5.15-3.03.27-4.51.39-1.44.12-2.85.21-4.24.3-1.56.12-3.06.21-4.51.27-1.47.09-2.91.18-4.27.24-1.59.06-3.12.09-4.51.15-1.59.03-3 .09-4.27.12-1.98.03-3.51.03-4.51.03h-.48c-.75 0-2.04 0-3.75-.03-1.29-.03-2.79-.06-4.51-.09-1.32-.03-2.73-.09-4.27-.12-1.41-.09-2.94-.15-4.51-.24-1.38-.06-2.79-.15-4.27-.24-1.47-.09-2.97-.18-4.51-.3-1.38-.12-2.82-.24-4.24-.36-1.5-.12-3-.27-4.51-.45-1.41-.15-2.85-.3-4.27-.48-1.5-.18-3-.39-4.51-.6-20.25-2.88-39.8-8.65-39.8-20.13 0-22.38 74.58-23.01 83.12-23.01 8.6.02 83.19.65 83.19 23.03z"/><ellipse class="st4" cx="137.72" cy="561.91" rx="77.1" ry="20.03"/><path class="st6" d="M137.72 541.89c-42.58 0-77.1 10.62-77.1 20.03 0 1.77 1.22 3.58 3.49 5.36-.48-.79-.74-1.58-.74-2.35 0-9.05 33.23-19.28 74.22-19.28s74.22 10.23 74.22 19.28c0 .89-.33 1.79-.95 2.69 2.55-1.88 3.95-3.81 3.95-5.69.01-9.42-34.51-20.04-77.09-20.04z"/><path class="st5" d="M68.04 575.63v18.92c1.5.63 3.03 1.2 4.6 1.71v-18.95c-1.61-.52-3.14-1.08-4.6-1.68zm-9.17-5.35v19.92c.18.11.36.23.55.33 1.28.69 2.61 1.35 3.96 1.99v-19.09c-1.73-.97-3.24-2.02-4.51-3.15zm18.28 8.35v19.08c1.47.45 2.97.87 4.51 1.23v-19.21c-1.55-.34-3.05-.71-4.51-1.1zm8.77 1.99v19.34c1.47.33 2.97.66 4.51.93v-19.48c-1.52-.25-3.03-.51-4.51-.79zm13 2.01v19.61c-1.53-.18-3.03-.39-4.51-.66v-19.55c1.51.21 3.01.42 4.51.6z"/><path class="st6" d="M107.69 583.56v19.7c-1.53-.12-3.03-.27-4.51-.48v-19.67c1.51.18 3.01.33 4.51.45zm8.75.66v19.71c-1.53-.06-3.03-.18-4.51-.3v-19.7c1.53.11 3.03.2 4.51.29zm8.77.48v19.58c-1.53 0-3.03-.06-4.51-.15v-19.67c1.56.09 3.09.15 4.51.24zm8.77.21v19.52c-1.5.03-3 0-4.51-.03v-19.58c1.71.03 3.22.06 4.51.09zm8.74 0v19.49c-.66 0-1.32.03-1.98.03-.84.03-1.68.03-2.52.03v-19.52c.98 0 2.52 0 4.5-.03zm8.77-.27v19.43c-1.5.09-3 .15-4.51.21v-19.49c1.39-.06 2.92-.09 4.51-.15zm8.77-.51v19.31c-1.47.15-3 .27-4.51.36v-19.4c1.45-.06 2.95-.15 4.51-.27zm8.74-.69v19.07c-1.47.18-2.97.36-4.51.51v-19.19c1.48-.12 3.01-.24 4.51-.39zm8.77-.99v18.77c-1.47.24-2.97.48-4.51.72v-18.92c1.51-.18 3.01-.36 4.51-.57zm8.77-1.29v18.44c-1.47.3-2.97.6-4.51.87v-18.59c1.54-.21 3.04-.45 4.51-.72z"/><path class="st7" d="M195.29 579.38v18.14c-1.47.39-2.97.75-4.51 1.11v-18.26c1.53-.29 3.03-.63 4.51-.99zm8.77-2.49v18.02c-1.44.51-2.94.96-4.51 1.44V578.3c1.56-.45 3.06-.9 4.51-1.41zm8.77-3.87v18.41c-1.38.66-2.88 1.32-4.51 1.92v-18.08c1.62-.69 3.13-1.44 4.51-2.25zm7.99-11.12v20.52c0 2.82-1.56 5.02-3.75 6.61v-19.16c2.37-2.29 3.75-4.93 3.75-7.97z"/><g><path class="st4" d="M219.63 534.09v20.52c0 3.6-2.52 6.16-5.71 7.87-14.3 7.66-44.01 13.82-74.37 14.15-26.82.3-49.71-1.77-68.1-8.17-1.56-.51-3.09-1.08-4.6-1.71-3-1.2-5.89-2.55-8.62-4.03-2.76-1.47-4.81-4.03-4.81-7.18v-21.45h166.21z"/><path class="st4" d="M219.63 534.09v20.52c0 3.6-2.52 6.16-5.71 7.87-14.3 7.66-44.01 13.82-74.37 14.15-18.77.21-35.63-.75-50.31-3.54-1.53-.27-3.03-.6-4.51-.93-1.44-.3-2.85-.66-4.27-1.02-1.53-.36-3.03-.78-4.51-1.23-1.53-.45-3.03-.93-4.51-1.44-1.56-.51-3.09-1.08-4.6-1.71-3-1.2-5.89-2.55-8.62-4.03-2.76-1.47-4.81-4.03-4.81-7.18V534.1h166.22z"/><path class="st4" d="M219.63 534.09v20.52c0 2.82-1.56 5.02-3.75 6.61-.6.48-1.26.9-1.95 1.26-.72.39-1.47.78-2.28 1.14-1.38.66-2.88 1.32-4.51 1.92-1.35.54-2.76 1.08-4.27 1.56-1.44.51-2.94.96-4.51 1.44-1.38.39-2.79.78-4.27 1.17-1.47.39-2.97.75-4.51 1.11-1.38.33-2.79.63-4.24.96-1.47.3-2.97.6-4.51.87-1.41.27-2.82.51-4.27.75-1.47.24-2.97.48-4.51.72-1.41.18-2.82.39-4.27.57-1.47.18-2.97.36-4.51.51-1.38.15-2.79.3-4.24.42-1.47.15-3 .27-4.51.36-1.41.12-2.82.21-4.27.27-1.5.09-3 .15-4.51.21-1.41.06-2.82.09-4.27.12-.66 0-1.32.03-1.98.03-.84.03-1.68.03-2.52.03-1.41 0-2.82 0-4.24-.03-1.5.03-3 0-4.51-.03-1.44 0-2.85-.06-4.27-.12-1.53 0-3.03-.06-4.51-.15-1.44-.03-2.85-.12-4.27-.21-1.53-.06-3.03-.18-4.51-.3-1.41-.09-2.82-.21-4.24-.36-1.53-.12-3.03-.27-4.51-.48-1.44-.12-2.85-.3-4.27-.54-1.53-.18-3.03-.39-4.51-.66-1.35-.21-2.67-.45-4-.69-1.53-.27-3.03-.6-4.51-.93-1.44-.3-2.85-.66-4.27-1.02-1.53-.36-3.03-.78-4.51-1.23-1.53-.45-3.03-.93-4.51-1.44-1.56-.51-3.09-1.08-4.6-1.71-3-1.2-5.89-2.55-8.62-4.03-2.76-1.47-4.81-4.03-4.81-7.18v-21.45h166.33z"/><path class="st5" d="M219.63 534.09c0 3.03-1.38 5.68-3.75 7.96-1.17 1.14-2.61 2.16-4.24 3.15-1.38.81-2.88 1.56-4.51 2.25-1.35.57-2.76 1.11-4.27 1.62-1.44.51-2.94.96-4.51 1.41-1.38.39-2.79.75-4.27 1.08-1.47.36-2.97.69-4.51.99-1.38.27-2.79.54-4.24.78-1.47.27-2.97.51-4.51.72-1.41.21-2.85.42-4.27.57-1.5.21-3 .39-4.51.57-1.41.15-2.85.3-4.27.42-1.5.15-3.03.27-4.51.39-1.44.12-2.85.21-4.24.3-1.56.12-3.06.21-4.51.27-1.47.09-2.91.18-4.27.24-1.59.06-3.12.09-4.51.15-1.59.03-3 .09-4.27.12-1.98.03-3.51.03-4.51.03h-.48c-.75 0-2.04 0-3.75-.03-1.29-.03-2.79-.06-4.51-.09-1.32-.03-2.73-.09-4.27-.12-1.41-.09-2.94-.15-4.51-.24-1.38-.06-2.79-.15-4.27-.24-1.47-.09-2.97-.18-4.51-.3-1.38-.12-2.82-.24-4.24-.36-1.5-.12-3-.27-4.51-.45-1.41-.15-2.85-.3-4.27-.48-1.5-.18-3-.39-4.51-.6-20.25-2.88-39.8-8.65-39.8-20.13 0-22.38 74.58-23.01 83.12-23.01 8.61.02 83.19.65 83.19 23.03z"/><path class="st4" d="M213.63 534.1c0 9.4-34.52 20.03-77.1 20.03s-77.1-10.62-77.1-20.03c0-9.4 34.52-20.02 77.1-20.02s77.1 10.62 77.1 20.02z"/><path class="st6" d="M136.54 514.07c-42.58 0-77.1 10.62-77.1 20.03 0 1.77 1.22 3.58 3.49 5.36-.48-.79-.74-1.58-.74-2.35 0-9.05 33.23-19.28 74.22-19.28s74.22 10.23 74.22 19.28c0 .89-.33 1.79-.95 2.69 2.55-1.88 3.95-3.81 3.95-5.69 0-9.41-34.51-20.04-77.09-20.04z"/><path class="st5" d="M66.86 547.82v18.92c1.5.63 3.03 1.2 4.6 1.71V549.5c-1.62-.52-3.15-1.08-4.6-1.68zm-9.17-5.36v19.92c.18.11.36.23.55.33 1.28.69 2.61 1.35 3.96 1.99v-19.09c-1.74-.96-3.25-2.01-4.51-3.15zm18.27 8.36v19.08c1.47.45 2.97.87 4.51 1.23v-19.21c-1.54-.34-3.04-.71-4.51-1.1zm8.77 1.99v19.34c1.47.33 2.97.66 4.51.93V553.6c-1.52-.25-3.02-.51-4.51-.79zm13.01 2.01v19.62c-1.53-.18-3.03-.39-4.51-.66v-19.55c1.5.2 3.01.41 4.51.59z"/><path class="st6" d="M106.51 555.75v19.7c-1.53-.12-3.03-.27-4.51-.48V555.3c1.5.18 3.01.33 4.51.45zm8.74.66v19.7c-1.53-.06-3.03-.18-4.51-.3v-19.7c1.54.12 3.04.21 4.51.3zm8.77.48v19.58c-1.53 0-3.03-.06-4.51-.15v-19.67c1.57.09 3.1.15 4.51.24zm8.77.21v19.52c-1.5.03-3 0-4.51-.03v-19.58c1.72.03 3.22.06 4.51.09zm8.74 0v19.49c-.66 0-1.32.03-1.98.03-.84.03-1.68.03-2.52.03v-19.52c.99 0 2.52 0 4.5-.03zm8.77-.27v19.43c-1.5.09-3 .15-4.51.21v-19.49c1.39-.06 2.92-.09 4.51-.15zm8.78-.51v19.31c-1.47.15-3 .27-4.51.36v-19.4c1.44-.06 2.94-.15 4.51-.27zm8.74-.69v19.07c-1.47.18-2.97.36-4.51.51v-19.19c1.47-.12 3-.24 4.51-.39zm8.77-.99v18.77c-1.47.24-2.97.48-4.51.72v-18.92c1.5-.18 3.01-.36 4.51-.57zm8.77-1.3v18.44c-1.47.3-2.97.6-4.51.87v-18.59c1.53-.2 3.04-.45 4.51-.72z"/><path class="st7" d="M194.1 551.57v18.14c-1.47.39-2.97.75-4.51 1.11v-18.26c1.54-.3 3.04-.63 4.51-.99zm8.77-2.49v18.02c-1.44.51-2.94.96-4.51 1.44v-18.05c1.57-.45 3.07-.9 4.51-1.41zm8.77-3.88v18.41c-1.38.66-2.88 1.32-4.51 1.92v-18.08c1.63-.68 3.13-1.43 4.51-2.25zm7.99-11.11v20.52c0 2.82-1.56 5.02-3.75 6.61v-19.16c2.37-2.29 3.75-4.94 3.75-7.97z"/></g></g><g><path class="st4" d="M389.96 570.97v20.52c0 3.6-2.52 6.16-5.71 7.87-14.3 7.66-44.01 13.82-74.37 14.15-26.82.3-49.71-1.77-68.1-8.17-1.56-.51-3.09-1.08-4.6-1.71-3-1.2-5.89-2.55-8.62-4.03-2.76-1.47-4.81-4.03-4.81-7.18v-21.45h166.21z"/><path class="st4" d="M389.96 570.97v20.52c0 3.6-2.52 6.16-5.71 7.87-14.3 7.66-44.01 13.82-74.37 14.15-18.77.21-35.63-.75-50.31-3.54-1.53-.27-3.03-.6-4.51-.93-1.44-.3-2.85-.66-4.27-1.02-1.53-.36-3.03-.78-4.51-1.23-1.53-.45-3.03-.93-4.51-1.44-1.56-.51-3.09-1.08-4.6-1.71-3-1.2-5.89-2.55-8.62-4.03-2.76-1.47-4.81-4.03-4.81-7.18v-21.45h166.22z"/><path class="st4" d="M389.96 570.97v20.52c0 2.82-1.56 5.02-3.75 6.61-.6.48-1.26.9-1.95 1.26-.72.39-1.47.78-2.28 1.14-1.38.66-2.88 1.32-4.51 1.92-1.35.54-2.76 1.08-4.26 1.56-1.44.51-2.94.96-4.51 1.44-1.38.39-2.79.78-4.27 1.17-1.47.39-2.97.75-4.51 1.11-1.38.33-2.79.63-4.24.96-1.47.3-2.97.6-4.51.87-1.41.27-2.82.51-4.27.75-1.47.24-2.97.48-4.51.72-1.41.18-2.82.39-4.27.57-1.47.18-2.97.36-4.51.51-1.38.15-2.79.3-4.24.42-1.47.15-3 .27-4.51.36-1.41.12-2.82.21-4.27.27-1.5.09-3 .15-4.51.21-1.41.06-2.82.09-4.27.12-.66 0-1.32.03-1.98.03-.84.03-1.68.03-2.52.03-1.41 0-2.82 0-4.24-.03-1.5.03-3 0-4.51-.03-1.44 0-2.85-.06-4.27-.12-1.53 0-3.03-.06-4.51-.15-1.44-.03-2.85-.12-4.27-.21-1.53-.06-3.03-.18-4.51-.3-1.41-.09-2.82-.21-4.24-.36-1.53-.12-3.03-.27-4.51-.48-1.44-.12-2.85-.3-4.27-.54-1.53-.18-3.03-.39-4.51-.66-1.35-.21-2.67-.45-4-.69-1.53-.27-3.03-.6-4.51-.93-1.44-.3-2.85-.66-4.27-1.02-1.53-.36-3.03-.78-4.51-1.23-1.53-.45-3.03-.93-4.51-1.44-1.56-.51-3.09-1.08-4.6-1.71-3-1.2-5.89-2.55-8.62-4.03-2.76-1.47-4.81-4.03-4.81-7.18v-21.45h166.32z"/><path class="st5" d="M389.96 570.97c0 3.03-1.38 5.68-3.75 7.96-1.17 1.14-2.61 2.16-4.24 3.15-1.38.81-2.88 1.56-4.51 2.25-1.35.57-2.76 1.11-4.26 1.62-1.44.51-2.94.96-4.51 1.41-1.38.39-2.79.75-4.27 1.08-1.47.36-2.97.69-4.51.99-1.38.27-2.79.54-4.24.78-1.47.27-2.97.51-4.51.72-1.41.21-2.85.42-4.27.57-1.5.21-3 .39-4.51.57-1.41.15-2.85.3-4.27.42-1.5.15-3.03.27-4.51.39-1.44.12-2.85.21-4.24.3-1.56.12-3.06.21-4.51.27-1.47.09-2.91.18-4.27.24-1.59.06-3.12.09-4.51.15-1.59.03-3 .09-4.27.12-1.98.03-3.51.03-4.51.03h-.48c-.75 0-2.04 0-3.75-.03-1.29-.03-2.79-.06-4.51-.09-1.32-.03-2.73-.09-4.27-.12-1.41-.09-2.94-.15-4.51-.24-1.38-.06-2.79-.15-4.27-.24-1.47-.09-2.97-.18-4.51-.3-1.38-.12-2.82-.24-4.24-.36-1.5-.12-3-.27-4.51-.45-1.41-.15-2.85-.3-4.27-.48-1.5-.18-3-.39-4.51-.6-20.25-2.88-39.8-8.65-39.8-20.13 0-22.38 74.58-23.01 83.12-23.01 8.59.02 83.18.65 83.18 23.03z"/><ellipse class="st4" cx="306.86" cy="570.98" rx="77.1" ry="20.03"/><path class="st6" d="M306.86 550.96c-42.58 0-77.1 10.62-77.1 20.03 0 1.77 1.22 3.58 3.49 5.36-.48-.79-.74-1.58-.74-2.35 0-9.05 33.23-19.28 74.22-19.28s74.22 10.23 74.22 19.28c0 .89-.33 1.79-.95 2.69 2.55-1.88 3.95-3.81 3.95-5.69.01-9.42-34.51-20.04-77.09-20.04z"/><path class="st5" d="M237.18 584.7v18.92c1.5.63 3.03 1.2 4.6 1.71v-18.95c-1.62-.52-3.14-1.08-4.6-1.68zm-9.17-5.35v19.92c.18.11.36.23.55.33 1.28.69 2.61 1.35 3.96 1.99V582.5c-1.74-.97-3.24-2.02-4.51-3.15zm18.27 8.35v19.08c1.47.45 2.97.87 4.51 1.23V588.8c-1.54-.34-3.04-.71-4.51-1.1zm8.77 1.99v19.34c1.47.33 2.97.66 4.51.93v-19.48c-1.52-.25-3.02-.51-4.51-.79zm13.01 2.01v19.61c-1.53-.18-3.03-.39-4.51-.66V591.1c1.51.21 3.01.42 4.51.6z"/><path class="st6" d="M276.83 592.63v19.71c-1.53-.12-3.03-.27-4.51-.48v-19.67c1.51.17 3.01.32 4.51.44zm8.74.66V613c-1.53-.06-3.03-.18-4.51-.3v-19.71c1.54.12 3.04.21 4.51.3zm8.77.48v19.58c-1.53 0-3.03-.06-4.51-.15v-19.67c1.57.09 3.1.15 4.51.24zm8.77.21v19.52c-1.5.03-3 0-4.51-.03v-19.58c1.72.03 3.22.06 4.51.09zm8.75 0v19.49c-.66 0-1.32.03-1.98.03-.84.03-1.68.03-2.52.03v-19.52c.98 0 2.51 0 4.5-.03zm8.77-.27v19.43c-1.5.09-3 .15-4.51.21v-19.49c1.38-.06 2.92-.09 4.51-.15zm8.77-.51v19.31c-1.47.15-3 .27-4.51.36v-19.4c1.44-.06 2.95-.15 4.51-.27zm8.74-.69v19.07c-1.47.18-2.97.36-4.51.51V592.9c1.48-.12 3.01-.24 4.51-.39zm8.77-.99v18.77c-1.47.24-2.97.48-4.51.72v-18.92c1.51-.18 3.01-.36 4.51-.57zm8.77-1.29v18.44c-1.47.3-2.97.6-4.51.87v-18.59c1.54-.21 3.04-.45 4.51-.72z"/><path class="st7" d="M364.42 588.45v18.14c-1.47.39-2.97.75-4.51 1.11v-18.26c1.54-.3 3.04-.63 4.51-.99zm8.77-2.49v18.02c-1.44.51-2.94.96-4.51 1.44v-18.05c1.57-.45 3.07-.9 4.51-1.41zm8.77-3.87v18.41c-1.38.66-2.88 1.32-4.51 1.92v-18.08c1.63-.69 3.13-1.44 4.51-2.25zm8-11.12v20.52c0 2.82-1.56 5.02-3.75 6.61v-19.16c2.36-2.29 3.75-4.93 3.75-7.97z"/><path class="st4" d="M390.51 543.15v20.52c0 3.6-2.52 6.16-5.71 7.87-14.3 7.66-44.01 13.82-74.37 14.15-26.82.3-49.71-1.77-68.1-8.17-1.56-.51-3.09-1.08-4.6-1.71-3-1.2-5.89-2.55-8.62-4.03-2.76-1.47-4.81-4.03-4.81-7.18v-21.45h166.21z"/><path class="st4" d="M390.51 543.15v20.52c0 3.6-2.52 6.16-5.71 7.87-14.3 7.66-44.01 13.82-74.37 14.15-18.77.21-35.62-.75-50.31-3.54-1.53-.27-3.03-.6-4.51-.93-1.44-.3-2.85-.66-4.27-1.02-1.53-.36-3.03-.78-4.51-1.23-1.53-.45-3.03-.93-4.51-1.44-1.56-.51-3.09-1.08-4.6-1.71-3-1.2-5.89-2.55-8.62-4.03-2.76-1.47-4.81-4.03-4.81-7.18v-21.45h166.22z"/><path class="st4" d="M390.51 543.15v20.52c0 2.82-1.56 5.02-3.75 6.61-.6.48-1.26.9-1.95 1.26-.72.39-1.47.78-2.28 1.14-1.38.66-2.88 1.32-4.51 1.92-1.35.54-2.76 1.08-4.27 1.56-1.44.51-2.94.96-4.51 1.44-1.38.39-2.79.78-4.27 1.17-1.47.39-2.97.75-4.51 1.11-1.38.33-2.79.63-4.24.96-1.47.3-2.97.6-4.51.87-1.41.27-2.82.51-4.27.75-1.47.24-2.97.48-4.51.72-1.41.18-2.82.39-4.27.57-1.47.18-2.97.36-4.51.51-1.38.15-2.79.3-4.24.42-1.47.15-3 .27-4.51.36-1.41.12-2.82.21-4.27.27-1.5.09-3 .15-4.51.21-1.41.06-2.82.09-4.27.12-.66 0-1.32.03-1.98.03-.84.03-1.68.03-2.52.03-1.41 0-2.82 0-4.24-.03-1.5.03-3 0-4.51-.03-1.44 0-2.85-.06-4.27-.12-1.53 0-3.03-.06-4.51-.15-1.44-.03-2.85-.12-4.27-.21-1.53-.06-3.03-.18-4.51-.3-1.41-.09-2.82-.21-4.24-.36-1.53-.12-3.03-.27-4.51-.48-1.44-.12-2.85-.3-4.27-.54-1.53-.18-3.03-.39-4.51-.66-1.35-.21-2.67-.45-3.99-.69-1.53-.27-3.03-.6-4.51-.93-1.44-.3-2.85-.66-4.27-1.02-1.53-.36-3.03-.78-4.51-1.23-1.53-.45-3.03-.93-4.51-1.44-1.56-.51-3.09-1.08-4.6-1.71-3-1.2-5.89-2.55-8.62-4.03-2.76-1.47-4.81-4.03-4.81-7.18v-21.45h166.32z"/><path class="st5" d="M390.51 543.15c0 3.03-1.38 5.68-3.75 7.96-1.17 1.14-2.61 2.16-4.24 3.15-1.38.81-2.88 1.56-4.51 2.25-1.35.57-2.76 1.11-4.27 1.62-1.44.51-2.94.96-4.51 1.41-1.38.39-2.79.75-4.27 1.08-1.47.36-2.97.69-4.51.99-1.38.27-2.79.54-4.24.78-1.47.27-2.97.51-4.51.72-1.41.21-2.85.42-4.27.57-1.5.21-3 .39-4.51.57-1.41.15-2.85.3-4.27.42-1.5.15-3.03.27-4.51.39-1.44.12-2.85.21-4.24.3-1.56.12-3.06.21-4.51.27-1.47.09-2.91.18-4.27.24-1.59.06-3.12.09-4.51.15-1.59.03-3 .09-4.27.12-1.98.03-3.51.03-4.51.03h-.48c-.75 0-2.04 0-3.75-.03-1.29-.03-2.79-.06-4.51-.09-1.32-.03-2.73-.09-4.27-.12-1.41-.09-2.94-.15-4.51-.24-1.38-.06-2.79-.15-4.27-.24-1.47-.09-2.97-.18-4.51-.3-1.38-.12-2.82-.24-4.24-.36-1.5-.12-3-.27-4.51-.45-1.41-.15-2.85-.3-4.27-.48-1.5-.18-3-.39-4.51-.6-20.25-2.88-39.8-8.65-39.8-20.13 0-22.38 74.58-23.01 83.12-23.01 8.61.02 83.19.65 83.19 23.03z"/><ellipse class="st4" cx="307.42" cy="543.16" rx="77.1" ry="20.03"/><path class="st6" d="M307.42 523.13c-42.58 0-77.1 10.62-77.1 20.03 0 1.77 1.22 3.58 3.49 5.36-.48-.79-.74-1.58-.74-2.35 0-9.05 33.23-19.28 74.22-19.28s74.22 10.23 74.22 19.28c0 .89-.33 1.79-.95 2.69 2.55-1.88 3.95-3.81 3.95-5.69 0-9.41-34.51-20.04-77.09-20.04z"/><path class="st5" d="M237.74 556.88v18.92c1.5.63 3.03 1.2 4.6 1.71v-18.95c-1.62-.52-3.15-1.09-4.6-1.68zm-9.17-5.36v19.92c.18.11.36.23.55.33 1.28.69 2.61 1.35 3.96 1.99v-19.09c-1.74-.97-3.25-2.02-4.51-3.15zm18.27 8.35v19.08c1.47.45 2.97.87 4.51 1.23v-19.21c-1.54-.34-3.04-.71-4.51-1.1zm8.77 1.99v19.34c1.47.33 2.97.66 4.51.93v-19.48c-1.52-.24-3.02-.5-4.51-.79zm13.01 2.01v19.61c-1.53-.18-3.03-.39-4.51-.66v-19.55c1.5.21 3 .42 4.51.6z"/><path class="st6" d="M277.39 564.8v19.7c-1.53-.12-3.03-.27-4.51-.48v-19.67c1.5.18 3.01.33 4.51.45zm8.74.67v19.71c-1.53-.06-3.03-.18-4.51-.3v-19.7c1.54.1 3.04.2 4.51.29zm8.77.48v19.58c-1.53 0-3.03-.06-4.51-.15v-19.67c1.57.09 3.1.15 4.51.24zm8.77.21v19.52c-1.5.03-3 0-4.51-.03v-19.58c1.72.03 3.22.06 4.51.09zm8.74 0v19.49c-.66 0-1.32.03-1.98.03-.84.03-1.68.03-2.52.03v-19.52c.99 0 2.52 0 4.5-.03zm8.77-.27v19.43c-1.5.09-3 .15-4.51.21v-19.49c1.39-.06 2.92-.09 4.51-.15zm8.77-.51v19.31c-1.47.15-3 .27-4.51.36v-19.4c1.45-.06 2.95-.15 4.51-.27zm8.75-.7v19.07c-1.47.18-2.97.36-4.51.51v-19.19c1.47-.12 3-.24 4.51-.39zm8.77-.99v18.77c-1.47.24-2.97.48-4.51.72v-18.92c1.5-.18 3.01-.36 4.51-.57zm8.77-1.29v18.44c-1.47.3-2.97.6-4.51.87v-18.59c1.53-.21 3.04-.45 4.51-.72z"/><path class="st7" d="M364.98 560.63v18.14c-1.47.39-2.97.75-4.51 1.11v-18.26c1.54-.3 3.04-.63 4.51-.99zm8.77-2.49v18.02c-1.44.51-2.94.96-4.51 1.44v-18.05c1.57-.45 3.07-.9 4.51-1.41zm8.77-3.88v18.41c-1.38.66-2.88 1.32-4.51 1.92v-18.08c1.63-.69 3.13-1.44 4.51-2.25zm7.99-11.11v20.52c0 2.82-1.56 5.02-3.75 6.61v-19.16c2.37-2.3 3.75-4.94 3.75-7.97z"/><g><path class="st4" d="M348.47 513.76v20.52c0 3.6-2.52 6.16-5.71 7.87-14.3 7.66-44.01 13.82-74.37 14.15-26.82.3-49.71-1.77-68.1-8.17-1.56-.51-3.09-1.08-4.6-1.71-3-1.2-5.89-2.55-8.62-4.03-2.76-1.47-4.81-4.03-4.81-7.18v-21.45h166.21z"/><path class="st4" d="M348.47 513.76v20.52c0 3.6-2.52 6.16-5.71 7.87-14.3 7.66-44.01 13.82-74.37 14.15-18.77.21-35.63-.75-50.31-3.54-1.53-.27-3.03-.6-4.51-.93-1.44-.3-2.85-.66-4.27-1.02-1.53-.36-3.03-.78-4.51-1.23-1.53-.45-3.03-.93-4.51-1.44-1.56-.51-3.09-1.08-4.6-1.71-3-1.2-5.89-2.55-8.62-4.03-2.76-1.47-4.81-4.03-4.81-7.18v-21.45h166.22z"/><path class="st4" d="M348.47 513.76v20.52c0 2.82-1.56 5.02-3.75 6.61-.6.48-1.26.9-1.95 1.26-.72.39-1.47.78-2.28 1.14-1.38.66-2.88 1.32-4.51 1.92-1.35.54-2.76 1.08-4.27 1.56-1.44.51-2.94.96-4.51 1.44-1.38.39-2.79.78-4.27 1.17-1.47.39-2.97.75-4.51 1.11-1.38.33-2.79.63-4.24.96-1.47.3-2.97.6-4.51.87-1.41.27-2.82.51-4.27.75-1.47.24-2.97.48-4.51.72-1.41.18-2.82.39-4.27.57-1.47.18-2.97.36-4.51.51-1.38.15-2.79.3-4.24.42-1.47.15-3 .27-4.51.36-1.41.12-2.82.21-4.27.27-1.5.09-3 .15-4.51.21-1.41.06-2.82.09-4.27.12-.66 0-1.32.03-1.98.03-.84.03-1.68.03-2.52.03-1.41 0-2.82 0-4.24-.03-1.5.03-3 0-4.51-.03-1.44 0-2.85-.06-4.27-.12-1.53 0-3.03-.06-4.51-.15-1.44-.03-2.85-.12-4.27-.21-1.53-.06-3.03-.18-4.51-.3-1.41-.09-2.82-.21-4.24-.36-1.53-.12-3.03-.27-4.51-.48-1.44-.12-2.85-.3-4.27-.54-1.53-.18-3.03-.39-4.51-.66-1.35-.21-2.67-.45-4-.69-1.53-.27-3.03-.6-4.51-.93-1.44-.3-2.85-.66-4.27-1.02-1.53-.36-3.03-.78-4.51-1.23-1.53-.45-3.03-.93-4.51-1.44-1.56-.51-3.09-1.08-4.6-1.71-3-1.2-5.89-2.55-8.62-4.03-2.76-1.47-4.81-4.03-4.81-7.18v-21.45h166.33z"/><path class="st5" d="M348.47 513.76c0 3.03-1.38 5.68-3.75 7.96-1.17 1.14-2.61 2.16-4.24 3.15-1.38.81-2.88 1.56-4.51 2.25-1.35.57-2.76 1.11-4.27 1.62-1.44.51-2.94.96-4.51 1.41-1.38.39-2.79.75-4.27 1.08-1.47.36-2.97.69-4.51.99-1.38.27-2.79.54-4.24.78-1.47.27-2.97.51-4.51.72-1.41.21-2.85.42-4.27.57-1.5.21-3 .39-4.51.57-1.41.15-2.85.3-4.27.42-1.5.15-3.03.27-4.51.39-1.44.12-2.85.21-4.24.3-1.56.12-3.06.21-4.51.27-1.47.09-2.91.18-4.27.24-1.59.06-3.12.09-4.51.15-1.59.03-3 .09-4.27.12-1.98.03-3.51.03-4.51.03h-.48c-.75 0-2.04 0-3.75-.03-1.29-.03-2.79-.06-4.51-.09-1.32-.03-2.73-.09-4.27-.12-1.41-.09-2.94-.15-4.51-.24-1.38-.06-2.79-.15-4.27-.24-1.47-.09-2.97-.18-4.51-.3-1.38-.12-2.82-.24-4.24-.36-1.5-.12-3-.27-4.51-.45-1.41-.15-2.85-.3-4.27-.48-1.5-.18-3-.39-4.51-.6-20.25-2.88-39.8-8.65-39.8-20.13 0-22.38 74.58-23.01 83.12-23.01 8.6.02 83.19.66 83.19 23.03z"/><path class="st4" d="M342.47 513.77c0 9.4-34.52 20.03-77.1 20.03s-77.1-10.62-77.1-20.03c0-9.4 34.52-20.02 77.1-20.02s77.1 10.62 77.1 20.02z"/><path class="st6" d="M265.37 493.75c-42.58 0-77.1 10.62-77.1 20.03 0 1.77 1.22 3.58 3.49 5.36-.48-.79-.74-1.58-.74-2.35 0-9.05 33.23-19.28 74.22-19.28s74.22 10.23 74.22 19.28c0 .89-.33 1.79-.95 2.69 2.55-1.88 3.95-3.81 3.95-5.69.01-9.42-34.51-20.04-77.09-20.04z"/><path class="st5" d="M195.7 527.49v18.92c1.5.63 3.03 1.2 4.6 1.71v-18.95c-1.62-.52-3.15-1.08-4.6-1.68zm-9.18-5.35v19.92c.18.11.36.23.55.33 1.28.69 2.61 1.35 3.96 1.99v-19.09c-1.73-.97-3.24-2.02-4.51-3.15zm18.28 8.35v19.08c1.47.45 2.97.87 4.51 1.23v-19.2c-1.55-.35-3.04-.72-4.51-1.11zm8.77 1.99v19.34c1.47.33 2.97.66 4.51.93v-19.48c-1.52-.24-3.03-.5-4.51-.79zm13 2.01v19.62c-1.53-.18-3.03-.39-4.51-.66V533.9c1.51.2 3.01.41 4.51.59z"/><path class="st6" d="M235.35 535.42v19.71c-1.53-.12-3.03-.27-4.51-.48v-19.68c1.5.18 3 .33 4.51.45zm8.74.66v19.7c-1.53-.06-3.03-.18-4.51-.3v-19.7c1.53.12 3.04.21 4.51.3zm8.77.48v19.58c-1.53 0-3.03-.06-4.51-.15v-19.67c1.56.09 3.1.15 4.51.24zm8.77.21v19.52c-1.5.03-3 0-4.51-.03v-19.58c1.72.03 3.22.06 4.51.09zm8.74 0v19.49c-.66 0-1.32.03-1.98.03-.84.03-1.68.03-2.52.03V536.8c.99 0 2.52 0 4.5-.03zm8.77-.27v19.43c-1.5.09-3 .15-4.51.21v-19.49c1.39-.06 2.92-.09 4.51-.15zm8.77-.51v19.31c-1.47.15-3 .27-4.51.36v-19.4c1.45-.06 2.95-.15 4.51-.27zm8.74-.69v19.07c-1.47.18-2.97.36-4.51.51v-19.19c1.48-.12 3.01-.24 4.51-.39zm8.77-.99v18.77c-1.47.24-2.97.48-4.51.72v-18.92c1.51-.18 3.01-.36 4.51-.57zm8.78-1.29v18.44c-1.47.3-2.97.6-4.51.87v-18.59c1.53-.21 3.03-.45 4.51-.72z"/><path class="st7" d="M322.94 531.25v18.14c-1.47.39-2.97.75-4.51 1.11v-18.26c1.53-.3 3.03-.63 4.51-.99zm8.77-2.5v18.02c-1.44.51-2.94.96-4.51 1.44v-18.05c1.56-.45 3.07-.9 4.51-1.41zm8.77-3.87v18.41c-1.38.66-2.88 1.32-4.51 1.92v-18.08c1.63-.69 3.13-1.44 4.51-2.25zm7.99-11.12v20.52c0 2.82-1.56 5.02-3.75 6.61v-19.16c2.37-2.29 3.75-4.93 3.75-7.97z"/></g></g><g><path class="st4" d="M331.41 482.46v20.52c0 3.6-2.52 6.16-5.71 7.87-14.3 7.66-44.01 13.82-74.37 14.15-26.82.3-49.71-1.77-68.1-8.17-1.56-.51-3.09-1.08-4.6-1.71-3-1.2-5.89-2.55-8.62-4.03-2.76-1.47-4.81-4.03-4.81-7.18v-21.45h166.21z"/><path class="st4" d="M331.41 482.46v20.52c0 3.6-2.52 6.16-5.71 7.87-14.3 7.66-44.01 13.82-74.37 14.15-18.77.21-35.63-.75-50.31-3.54-1.53-.27-3.03-.6-4.51-.93-1.44-.3-2.85-.66-4.27-1.02-1.53-.36-3.03-.78-4.51-1.23-1.53-.45-3.03-.93-4.51-1.44-1.56-.51-3.09-1.08-4.6-1.71-3-1.2-5.89-2.55-8.62-4.03-2.76-1.47-4.81-4.03-4.81-7.18v-21.45h166.22z"/><path class="st4" d="M331.41 482.46v20.52c0 2.82-1.56 5.02-3.75 6.61-.6.48-1.26.9-1.95 1.26-.72.39-1.47.78-2.28 1.14-1.38.66-2.88 1.32-4.51 1.92-1.35.54-2.76 1.08-4.26 1.56-1.44.51-2.94.96-4.51 1.44-1.38.39-2.79.78-4.27 1.17-1.47.39-2.97.75-4.51 1.11-1.38.33-2.79.63-4.24.96-1.47.3-2.97.6-4.51.87-1.41.27-2.82.51-4.27.75-1.47.24-2.97.48-4.51.72-1.41.18-2.82.39-4.27.57-1.47.18-2.97.36-4.51.51-1.38.15-2.79.3-4.24.42-1.47.15-3 .27-4.51.36-1.41.12-2.82.21-4.27.27-1.5.09-3 .15-4.51.21-1.41.06-2.82.09-4.27.12-.66 0-1.32.03-1.98.03-.84.03-1.68.03-2.52.03-1.41 0-2.82 0-4.24-.03-1.5.03-3 0-4.51-.03-1.44 0-2.85-.06-4.27-.12-1.53 0-3.03-.06-4.51-.15-1.44-.03-2.85-.12-4.27-.21-1.53-.06-3.03-.18-4.51-.3-1.41-.09-2.82-.21-4.24-.36-1.53-.12-3.03-.27-4.51-.48-1.44-.12-2.85-.3-4.27-.54-1.53-.18-3.03-.39-4.51-.66-1.35-.21-2.67-.45-4-.69-1.53-.27-3.03-.6-4.51-.93-1.44-.3-2.85-.66-4.27-1.02-1.53-.36-3.03-.78-4.51-1.23-1.53-.45-3.03-.93-4.51-1.44-1.56-.51-3.09-1.08-4.6-1.71-3-1.2-5.89-2.55-8.62-4.03-2.76-1.47-4.81-4.03-4.81-7.18v-21.45h166.32z"/><path class="st5" d="M331.41 482.46c0 3.03-1.38 5.68-3.75 7.96-1.17 1.14-2.61 2.16-4.24 3.15-1.38.81-2.88 1.56-4.51 2.25-1.35.57-2.76 1.11-4.26 1.62-1.44.51-2.94.96-4.51 1.41-1.38.39-2.79.75-4.27 1.08-1.47.36-2.97.69-4.51.99-1.38.27-2.79.54-4.24.78-1.47.27-2.97.51-4.51.72-1.41.21-2.85.42-4.27.57-1.5.21-3 .39-4.51.57-1.41.15-2.85.3-4.27.42-1.5.15-3.03.27-4.51.39-1.44.12-2.85.21-4.24.3-1.56.12-3.06.21-4.51.27-1.47.09-2.91.18-4.27.24-1.59.06-3.12.09-4.51.15-1.59.03-3 .09-4.27.12-1.98.03-3.51.03-4.51.03h-.48c-.75 0-2.04 0-3.75-.03-1.29-.03-2.79-.06-4.51-.09-1.32-.03-2.73-.09-4.27-.12-1.41-.09-2.94-.15-4.51-.24-1.38-.06-2.79-.15-4.27-.24-1.47-.09-2.97-.18-4.51-.3-1.38-.12-2.82-.24-4.24-.36-1.5-.12-3-.27-4.51-.45-1.41-.15-2.85-.3-4.27-.48-1.5-.18-3-.39-4.51-.6-20.25-2.88-39.8-8.65-39.8-20.13 0-22.38 74.58-23.01 83.12-23.01 8.59.02 83.18.65 83.18 23.03z"/><ellipse class="st4" cx="248.31" cy="482.47" rx="77.1" ry="20.03"/><path class="st6" d="M248.31 462.45c-42.58 0-77.1 10.62-77.1 20.03 0 1.77 1.22 3.58 3.49 5.36-.48-.79-.74-1.58-.74-2.35 0-9.05 33.23-19.28 74.22-19.28s74.22 10.23 74.22 19.28c0 .89-.33 1.79-.95 2.69 2.55-1.88 3.95-3.81 3.95-5.69.01-9.42-34.51-20.04-77.09-20.04z"/><path class="st5" d="M178.63 496.19v18.92c1.5.63 3.03 1.2 4.6 1.71v-18.95c-1.62-.52-3.14-1.08-4.6-1.68zm-9.17-5.35v19.92c.18.11.36.23.55.33 1.28.69 2.61 1.35 3.96 1.99v-19.09c-1.73-.97-3.24-2.02-4.51-3.15zm18.27 8.35v19.08c1.47.45 2.97.87 4.51 1.23v-19.21c-1.54-.34-3.04-.71-4.51-1.1zm8.78 1.99v19.34c1.47.33 2.97.66 4.51.93v-19.48c-1.52-.25-3.03-.51-4.51-.79zm13 2.01v19.61c-1.53-.18-3.03-.39-4.51-.66v-19.56c1.51.22 3.01.43 4.51.61z"/><path class="st6" d="M218.28 504.12v19.71c-1.53-.12-3.03-.27-4.51-.48v-19.67c1.51.17 3.01.32 4.51.44zm8.74.66v19.71c-1.53-.06-3.03-.18-4.51-.3v-19.71c1.54.12 3.04.21 4.51.3zm8.78.48v19.58c-1.53 0-3.03-.06-4.51-.15v-19.67c1.56.09 3.09.15 4.51.24zm8.77.21V525c-1.5.03-3 0-4.51-.03v-19.58c1.71.02 3.21.05 4.51.08zm8.74 0v19.49c-.66 0-1.32.03-1.98.03-.84.03-1.68.03-2.52.03V505.5c.98 0 2.51 0 4.5-.03zm8.77-.27v19.43c-1.5.09-3 .15-4.51.21v-19.49c1.38-.06 2.92-.09 4.51-.15zm8.77-.51V524c-1.47.15-3 .27-4.51.36v-19.4c1.45-.06 2.95-.15 4.51-.27zm8.74-.69v19.07c-1.47.18-2.97.36-4.51.51v-19.19c1.48-.12 3.01-.24 4.51-.39zm8.77-.99v18.77c-1.47.24-2.97.48-4.51.72v-18.92c1.51-.18 3.01-.36 4.51-.57zm8.77-1.29v18.44c-1.47.3-2.97.6-4.51.87v-18.59c1.54-.21 3.04-.45 4.51-.72z"/><path class="st7" d="M305.87 499.94v18.14c-1.47.39-2.97.75-4.51 1.11v-18.26c1.54-.29 3.04-.62 4.51-.99zm8.78-2.49v18.02c-1.44.51-2.94.96-4.51 1.44v-18.05c1.56-.45 3.06-.9 4.51-1.41zm8.77-3.87v18.41c-1.38.66-2.88 1.32-4.51 1.92v-18.08c1.62-.69 3.12-1.44 4.51-2.25zm7.99-11.12v20.52c0 2.82-1.56 5.02-3.75 6.61v-19.16c2.36-2.29 3.75-4.93 3.75-7.97z"/><path class="st4" d="M331.96 454.64v20.52c0 3.6-2.52 6.16-5.71 7.87-14.3 7.66-44.01 13.82-74.37 14.15-26.82.3-49.71-1.77-68.1-8.17-1.56-.51-3.09-1.08-4.6-1.71-3-1.2-5.89-2.55-8.62-4.03-2.76-1.47-4.81-4.03-4.81-7.18v-21.45h166.21z"/><path class="st4" d="M331.96 454.64v20.52c0 3.6-2.52 6.16-5.71 7.87-14.3 7.66-44.01 13.82-74.37 14.15-18.77.21-35.62-.75-50.31-3.54-1.53-.27-3.03-.6-4.51-.93-1.44-.3-2.85-.66-4.27-1.02-1.53-.36-3.03-.78-4.51-1.23-1.53-.45-3.03-.93-4.51-1.44-1.56-.51-3.09-1.08-4.6-1.71-3-1.2-5.89-2.55-8.62-4.03-2.76-1.47-4.81-4.03-4.81-7.18v-21.45h166.22z"/><path class="st4" d="M331.96 454.64v20.52c0 2.82-1.56 5.02-3.75 6.61-.6.48-1.26.9-1.95 1.26-.72.39-1.47.78-2.28 1.14-1.38.66-2.88 1.32-4.51 1.92-1.35.54-2.76 1.08-4.27 1.56-1.44.51-2.94.96-4.51 1.44-1.38.39-2.79.78-4.27 1.17-1.47.39-2.97.75-4.51 1.11-1.38.33-2.79.63-4.24.96-1.47.3-2.97.6-4.51.87-1.41.27-2.82.51-4.27.75-1.47.24-2.97.48-4.51.72-1.41.18-2.82.39-4.27.57-1.47.18-2.97.36-4.51.51-1.38.15-2.79.3-4.24.42-1.47.15-3 .27-4.51.36-1.41.12-2.82.21-4.27.27-1.5.09-3 .15-4.51.21-1.41.06-2.82.09-4.27.12-.66 0-1.32.03-1.98.03-.84.03-1.68.03-2.52.03-1.41 0-2.82 0-4.24-.03-1.5.03-3 0-4.51-.03-1.44 0-2.85-.06-4.27-.12-1.53 0-3.03-.06-4.51-.15-1.44-.03-2.85-.12-4.27-.21-1.53-.06-3.03-.18-4.51-.3-1.41-.09-2.82-.21-4.24-.36-1.53-.12-3.03-.27-4.51-.48-1.44-.12-2.85-.3-4.27-.54-1.53-.18-3.03-.39-4.51-.66-1.35-.21-2.67-.45-3.99-.69-1.53-.27-3.03-.6-4.51-.93-1.44-.3-2.85-.66-4.27-1.02-1.53-.36-3.03-.78-4.51-1.23-1.53-.45-3.03-.93-4.51-1.44-1.56-.51-3.09-1.08-4.6-1.71-3-1.2-5.89-2.55-8.62-4.03-2.76-1.47-4.81-4.03-4.81-7.18v-21.45h166.32z"/><path class="st5" d="M331.96 454.64c0 3.03-1.38 5.68-3.75 7.96-1.17 1.14-2.61 2.16-4.24 3.15-1.38.81-2.88 1.56-4.51 2.25-1.35.57-2.76 1.11-4.27 1.62-1.44.51-2.94.96-4.51 1.41-1.38.39-2.79.75-4.27 1.08-1.47.36-2.97.69-4.51.99-1.38.27-2.79.54-4.24.78-1.47.27-2.97.51-4.51.72-1.41.21-2.85.42-4.27.57-1.5.21-3 .39-4.51.57-1.41.15-2.85.3-4.27.42-1.5.15-3.03.27-4.51.39-1.44.12-2.85.21-4.24.3-1.56.12-3.06.21-4.51.27-1.47.09-2.91.18-4.27.24-1.59.06-3.12.09-4.51.15-1.59.03-3 .09-4.27.12-1.98.03-3.51.03-4.51.03h-.48c-.75 0-2.04 0-3.75-.03-1.29-.03-2.79-.06-4.51-.09-1.32-.03-2.73-.09-4.27-.12-1.41-.09-2.94-.15-4.51-.24-1.38-.06-2.79-.15-4.27-.24-1.47-.09-2.97-.18-4.51-.3-1.38-.12-2.82-.24-4.24-.36-1.5-.12-3-.27-4.51-.45-1.41-.15-2.85-.3-4.27-.48-1.5-.18-3-.39-4.51-.6-20.25-2.88-39.8-8.65-39.8-20.13 0-22.38 74.58-23.01 83.12-23.01 8.61.02 83.19.65 83.19 23.03z"/><ellipse class="st4" cx="248.87" cy="454.65" rx="77.1" ry="20.03"/><path class="st6" d="M248.87 434.62c-42.58 0-77.1 10.62-77.1 20.03 0 1.77 1.22 3.58 3.49 5.36-.48-.79-.74-1.58-.74-2.35 0-9.05 33.23-19.28 74.22-19.28s74.22 10.23 74.22 19.28c0 .89-.33 1.79-.95 2.69 2.55-1.88 3.95-3.81 3.95-5.69 0-9.41-34.51-20.04-77.09-20.04z"/><path class="st5" d="M179.19 468.37v18.92c1.5.63 3.03 1.2 4.6 1.71v-18.95c-1.62-.52-3.15-1.09-4.6-1.68zm-9.17-5.36v19.92c.18.11.36.23.55.33 1.28.69 2.61 1.35 3.96 1.99v-19.09c-1.74-.97-3.24-2.02-4.51-3.15zm18.27 8.35v19.08c1.47.45 2.97.87 4.51 1.23v-19.21c-1.54-.33-3.04-.71-4.51-1.1zm8.77 2v19.34c1.47.33 2.97.66 4.51.93v-19.48c-1.52-.25-3.02-.51-4.51-.79zm13.01 2v19.61c-1.53-.18-3.03-.39-4.51-.66v-19.55c1.5.21 3.01.42 4.51.6z"/><path class="st6" d="M218.84 476.3V496c-1.53-.12-3.03-.27-4.51-.48v-19.67c1.51.18 3.01.33 4.51.45zm8.74.66v19.71c-1.53-.06-3.03-.18-4.51-.3v-19.7c1.54.11 3.04.2 4.51.29zm8.77.48v19.58c-1.53 0-3.03-.06-4.51-.15V477.2c1.57.09 3.1.15 4.51.24zm8.77.21v19.52c-1.5.03-3 0-4.51-.03v-19.58c1.72.03 3.22.06 4.51.09zm8.74 0v19.49c-.66 0-1.32.03-1.98.03-.84.03-1.68.03-2.52.03v-19.52c.99 0 2.52 0 4.5-.03zm8.77-.27v19.43c-1.5.09-3 .15-4.51.21v-19.49c1.39-.06 2.92-.09 4.51-.15zm8.78-.51v19.31c-1.47.15-3 .27-4.51.36v-19.4c1.44-.06 2.94-.15 4.51-.27zm8.74-.69v19.07c-1.47.18-2.97.36-4.51.51v-19.19c1.47-.12 3.01-.24 4.51-.39zm8.77-1v18.77c-1.47.24-2.97.48-4.51.72v-18.92c1.5-.18 3.01-.36 4.51-.57zm8.77-1.29v18.44c-1.47.3-2.97.6-4.51.87v-18.59c1.54-.21 3.04-.45 4.51-.72z"/><path class="st7" d="M306.43 472.12v18.14c-1.47.39-2.97.75-4.51 1.11v-18.26c1.54-.3 3.04-.63 4.51-.99zm8.77-2.49v18.02c-1.44.51-2.94.96-4.51 1.44v-18.05c1.57-.45 3.07-.9 4.51-1.41zm8.77-3.88v18.41c-1.38.66-2.88 1.32-4.51 1.92V468c1.63-.69 3.13-1.44 4.51-2.25zm7.99-11.11v20.52c0 2.82-1.56 5.02-3.75 6.61V462.6c2.37-2.28 3.75-4.93 3.75-7.96z"/><g><path class="st4" d="M330.78 426.83v20.52c0 3.6-2.52 6.16-5.71 7.87-14.3 7.66-44.01 13.82-74.37 14.15-26.82.3-49.71-1.77-68.1-8.17-1.56-.51-3.09-1.08-4.6-1.71-3-1.2-5.89-2.55-8.62-4.03-2.76-1.47-4.81-4.03-4.81-7.18v-21.45h166.21z"/><path class="st4" d="M330.78 426.83v20.52c0 3.6-2.52 6.16-5.71 7.87-14.3 7.66-44.01 13.82-74.37 14.15-18.77.21-35.63-.75-50.31-3.54-1.53-.27-3.03-.6-4.51-.93-1.44-.3-2.85-.66-4.27-1.02-1.53-.36-3.03-.78-4.51-1.23-1.53-.45-3.03-.93-4.51-1.44-1.56-.51-3.09-1.08-4.6-1.71-3-1.2-5.89-2.55-8.62-4.03-2.76-1.47-4.81-4.03-4.81-7.18v-21.45h166.22z"/><path class="st4" d="M330.78 426.83v20.52c0 2.82-1.56 5.02-3.75 6.61-.6.48-1.26.9-1.95 1.26-.72.39-1.47.78-2.28 1.14-1.38.66-2.88 1.32-4.51 1.92-1.35.54-2.76 1.08-4.27 1.56-1.44.51-2.94.96-4.51 1.44-1.38.39-2.79.78-4.27 1.17-1.47.39-2.97.75-4.51 1.11-1.38.33-2.79.63-4.24.96-1.47.3-2.97.6-4.51.87-1.41.27-2.82.51-4.27.75-1.47.24-2.97.48-4.51.72-1.41.18-2.82.39-4.27.57-1.47.18-2.97.36-4.51.51-1.38.15-2.79.3-4.24.42-1.47.15-3 .27-4.51.36-1.41.12-2.82.21-4.27.27-1.5.09-3 .15-4.51.21-1.41.06-2.82.09-4.27.12-.66 0-1.32.03-1.98.03-.84.03-1.68.03-2.52.03-1.41 0-2.82 0-4.24-.03-1.5.03-3 0-4.51-.03-1.44 0-2.85-.06-4.27-.12-1.53 0-3.03-.06-4.51-.15-1.44-.03-2.85-.12-4.27-.21-1.53-.06-3.03-.18-4.51-.3-1.41-.09-2.82-.21-4.24-.36-1.53-.12-3.03-.27-4.51-.48-1.44-.12-2.85-.3-4.27-.54-1.53-.18-3.03-.39-4.51-.66-1.35-.21-2.67-.45-4-.69-1.53-.27-3.03-.6-4.51-.93-1.44-.3-2.85-.66-4.27-1.02-1.53-.36-3.03-.78-4.51-1.23-1.53-.45-3.03-.93-4.51-1.44-1.56-.51-3.09-1.08-4.6-1.71-3-1.2-5.89-2.55-8.62-4.03-2.76-1.47-4.81-4.03-4.81-7.18v-21.45h166.33z"/><path class="st5" d="M330.78 426.83c0 3.03-1.38 5.68-3.75 7.96-1.17 1.14-2.61 2.16-4.24 3.15-1.38.81-2.88 1.56-4.51 2.25-1.35.57-2.76 1.11-4.27 1.62-1.44.51-2.94.96-4.51 1.41-1.38.39-2.79.75-4.27 1.08-1.47.36-2.97.69-4.51.99-1.38.27-2.79.54-4.24.78-1.47.27-2.97.51-4.51.72-1.41.21-2.85.42-4.27.57-1.5.21-3 .39-4.51.57-1.41.15-2.85.3-4.27.42-1.5.15-3.03.27-4.51.39-1.44.12-2.85.21-4.24.3-1.56.12-3.06.21-4.51.27-1.47.09-2.91.18-4.27.24-1.59.06-3.12.09-4.51.15-1.59.03-3 .09-4.27.12-1.98.03-3.51.03-4.51.03h-.48c-.75 0-2.04 0-3.75-.03-1.29-.03-2.79-.06-4.51-.09-1.32-.03-2.73-.09-4.27-.12-1.41-.09-2.94-.15-4.51-.24-1.38-.06-2.79-.15-4.27-.24-1.47-.09-2.97-.18-4.51-.3-1.38-.12-2.82-.24-4.24-.36-1.5-.12-3-.27-4.51-.45-1.41-.15-2.85-.3-4.27-.48-1.5-.18-3-.39-4.51-.6-20.25-2.88-39.8-8.65-39.8-20.13 0-22.38 74.58-23.01 83.12-23.01 8.6.02 83.19.65 83.19 23.03z"/><path class="st4" d="M324.78 426.84c0 9.4-34.52 20.03-77.1 20.03s-77.1-10.62-77.1-20.03c0-9.4 34.52-20.02 77.1-20.02s77.1 10.62 77.1 20.02z"/><path class="st6" d="M247.68 406.81c-42.58 0-77.1 10.62-77.1 20.03 0 1.77 1.22 3.58 3.49 5.36-.48-.79-.74-1.58-.74-2.35 0-9.05 33.23-19.28 74.22-19.28s74.22 10.23 74.22 19.28c0 .89-.33 1.79-.95 2.69 2.55-1.88 3.95-3.81 3.95-5.69.01-9.41-34.51-20.04-77.09-20.04z"/><path class="st5" d="M178 440.56v18.92c1.5.63 3.03 1.2 4.6 1.71v-18.95c-1.61-.52-3.14-1.09-4.6-1.68zm-9.17-5.36v19.92c.18.11.36.23.55.33 1.28.69 2.61 1.35 3.96 1.99v-19.09c-1.73-.97-3.24-2.02-4.51-3.15zm18.27 8.35v19.08c1.47.45 2.97.87 4.51 1.23v-19.21c-1.54-.34-3.04-.71-4.51-1.1zm8.78 1.99v19.34c1.47.33 2.97.66 4.51.93v-19.48c-1.52-.24-3.03-.5-4.51-.79zm13 2.01v19.62c-1.53-.18-3.03-.39-4.51-.66v-19.55c1.51.2 3.01.41 4.51.59z"/><path class="st6" d="M217.65 448.48v19.71c-1.53-.12-3.03-.27-4.51-.48v-19.68c1.51.18 3.01.33 4.51.45zm8.74.67v19.7c-1.53-.06-3.03-.18-4.51-.3v-19.7c1.54.12 3.04.2 4.51.3zm8.78.48v19.58c-1.53 0-3.03-.06-4.51-.15v-19.67c1.56.09 3.09.15 4.51.24zm8.77.21v19.52c-1.5.03-3 0-4.51-.03v-19.58c1.71.03 3.22.06 4.51.09zm8.74 0v19.49c-.66 0-1.32.03-1.98.03-.84.03-1.68.03-2.52.03v-19.52c.98 0 2.52 0 4.5-.03zm8.77-.27V469c-1.5.09-3 .15-4.51.21v-19.49c1.38-.06 2.92-.09 4.51-.15zm8.77-.52v19.31c-1.47.15-3 .27-4.51.36v-19.4c1.45-.05 2.95-.15 4.51-.27zm8.74-.69v19.07c-1.47.18-2.97.36-4.51.51v-19.19c1.48-.12 3.01-.24 4.51-.39zm8.77-.99v18.77c-1.47.24-2.97.48-4.51.72v-18.92c1.51-.18 3.01-.36 4.51-.57zm8.77-1.29v18.44c-1.47.3-2.97.6-4.51.87V446.8c1.54-.21 3.04-.45 4.51-.72z"/><path class="st7" d="M305.24 444.31v18.14c-1.47.39-2.97.75-4.51 1.11V445.3c1.54-.3 3.04-.63 4.51-.99zm8.78-2.49v18.02c-1.44.51-2.94.96-4.51 1.44v-18.05c1.56-.45 3.06-.9 4.51-1.41zm8.77-3.88v18.41c-1.38.66-2.88 1.32-4.51 1.92v-18.08c1.62-.69 3.13-1.44 4.51-2.25zm7.99-11.11v20.52c0 2.82-1.56 5.02-3.75 6.61V434.8c2.36-2.3 3.75-4.94 3.75-7.97z"/></g></g><g><path class="st4" d="M369.12 404.47v20.52c0 3.6-2.52 6.16-5.71 7.87-14.3 7.66-44.01 13.82-74.37 14.15-26.82.3-49.71-1.77-68.1-8.17-1.56-.51-3.09-1.08-4.6-1.71-3-1.2-5.89-2.55-8.62-4.03-2.76-1.47-4.81-4.03-4.81-7.18v-21.45h166.21z"/><path class="st4" d="M369.12 404.47v20.52c0 3.6-2.52 6.16-5.71 7.87-14.3 7.66-44.01 13.82-74.37 14.15-18.77.21-35.62-.75-50.31-3.54-1.53-.27-3.03-.6-4.51-.93-1.44-.3-2.85-.66-4.27-1.02-1.53-.36-3.03-.78-4.51-1.23-1.53-.45-3.03-.93-4.51-1.44-1.56-.51-3.09-1.08-4.6-1.71-3-1.2-5.89-2.55-8.62-4.03-2.76-1.47-4.81-4.03-4.81-7.18v-21.45h166.22z"/><path class="st4" d="M369.12 404.47v20.52c0 2.82-1.56 5.02-3.75 6.61-.6.48-1.26.9-1.95 1.26-.72.39-1.47.78-2.28 1.14-1.38.66-2.88 1.32-4.51 1.92-1.35.54-2.76 1.08-4.27 1.56-1.44.51-2.94.96-4.51 1.44-1.38.39-2.79.78-4.27 1.17-1.47.39-2.97.75-4.51 1.11-1.38.33-2.79.63-4.24.96-1.47.3-2.97.6-4.51.87-1.41.27-2.82.51-4.27.75-1.47.24-2.97.48-4.51.72-1.41.18-2.82.39-4.27.57-1.47.18-2.97.36-4.51.51-1.38.15-2.79.3-4.24.42-1.47.15-3 .27-4.51.36-1.41.12-2.82.21-4.27.27-1.5.09-3 .15-4.51.21-1.41.06-2.82.09-4.27.12-.66 0-1.32.03-1.98.03-.84.03-1.68.03-2.52.03-1.41 0-2.82 0-4.24-.03-1.5.03-3 0-4.51-.03-1.44 0-2.85-.06-4.27-.12-1.53 0-3.03-.06-4.51-.15-1.44-.03-2.85-.12-4.27-.21-1.53-.06-3.03-.18-4.51-.3-1.41-.09-2.82-.21-4.24-.36-1.53-.12-3.03-.27-4.51-.48-1.44-.12-2.85-.3-4.27-.54-1.53-.18-3.03-.39-4.51-.66-1.35-.21-2.67-.45-3.99-.69-1.53-.27-3.03-.6-4.51-.93-1.44-.3-2.85-.66-4.27-1.02-1.53-.36-3.03-.78-4.51-1.23-1.53-.45-3.03-.93-4.51-1.44-1.56-.51-3.09-1.08-4.6-1.71-3-1.2-5.89-2.55-8.62-4.03-2.76-1.47-4.81-4.03-4.81-7.18v-21.45h166.32z"/><path class="st5" d="M369.12 404.47c0 3.03-1.38 5.68-3.75 7.96-1.17 1.14-2.61 2.16-4.24 3.15-1.38.81-2.88 1.56-4.51 2.25-1.35.57-2.76 1.11-4.27 1.62-1.44.51-2.94.96-4.51 1.41-1.38.39-2.79.75-4.27 1.08-1.47.36-2.97.69-4.51.99-1.38.27-2.79.54-4.24.78-1.47.27-2.97.51-4.51.72-1.41.21-2.85.42-4.27.57-1.5.21-3 .39-4.51.57-1.41.15-2.85.3-4.27.42-1.5.15-3.03.27-4.51.39-1.44.12-2.85.21-4.24.3-1.56.12-3.06.21-4.51.27-1.47.09-2.91.18-4.27.24-1.59.06-3.12.09-4.51.15-1.59.03-3 .09-4.27.12-1.98.03-3.51.03-4.51.03h-.48c-.75 0-2.04 0-3.75-.03-1.29-.03-2.79-.06-4.51-.09-1.32-.03-2.73-.09-4.27-.12-1.41-.09-2.94-.15-4.51-.24-1.38-.06-2.79-.15-4.27-.24-1.47-.09-2.97-.18-4.51-.3-1.38-.12-2.82-.24-4.24-.36-1.5-.12-3-.27-4.51-.45-1.41-.15-2.85-.3-4.27-.48-1.5-.18-3-.39-4.51-.6-20.25-2.88-39.8-8.65-39.8-20.13 0-22.38 74.58-23.01 83.12-23.01 8.6.03 83.19.66 83.19 23.03z"/><ellipse class="st4" cx="286.02" cy="404.48" rx="77.1" ry="20.03"/><path class="st6" d="M286.02 384.46c-42.58 0-77.1 10.62-77.1 20.03 0 1.77 1.22 3.58 3.49 5.36-.48-.79-.74-1.58-.74-2.35 0-9.05 33.23-19.28 74.22-19.28s74.22 10.23 74.22 19.28c0 .89-.33 1.79-.95 2.69 2.55-1.88 3.95-3.81 3.95-5.69.01-9.42-34.51-20.04-77.09-20.04z"/><path class="st5" d="M216.34 418.21v18.92c1.5.63 3.03 1.2 4.6 1.71v-18.95c-1.62-.53-3.14-1.09-4.6-1.68zm-9.17-5.36v19.92c.18.11.36.23.55.33 1.28.69 2.61 1.35 3.96 1.99V416c-1.73-.97-3.24-2.02-4.51-3.15zm18.27 8.35v19.08c1.47.45 2.97.87 4.51 1.23V422.3c-1.54-.34-3.04-.71-4.51-1.1zm8.78 1.99v19.34c1.47.33 2.97.66 4.51.93v-19.48c-1.52-.24-3.03-.5-4.51-.79zm13 2.01v19.61c-1.53-.18-3.03-.39-4.51-.66V424.6c1.51.21 3.01.42 4.51.6z"/><path class="st6" d="M255.99 426.13v19.7c-1.53-.12-3.03-.27-4.51-.48v-19.67c1.51.18 3.01.33 4.51.45zm8.74.66v19.71c-1.53-.06-3.03-.18-4.51-.3v-19.7c1.54.11 3.04.2 4.51.29zm8.77.48v19.58c-1.53 0-3.03-.06-4.51-.15v-19.67c1.57.09 3.1.15 4.51.24zm8.78.21V447c-1.5.03-3 0-4.51-.03v-19.58c1.71.03 3.21.06 4.51.09zm8.74 0v19.49c-.66 0-1.32.03-1.98.03-.84.03-1.68.03-2.52.03v-19.52c.98 0 2.51 0 4.5-.03zm8.77-.27v19.43c-1.5.09-3 .15-4.51.21v-19.49c1.38-.06 2.92-.09 4.51-.15zm8.77-.51v19.31c-1.47.15-3 .27-4.51.36v-19.4c1.45-.06 2.95-.15 4.51-.27zm8.74-.69v19.07c-1.47.18-2.97.36-4.51.51V426.4c1.48-.12 3.01-.24 4.51-.39zm8.77-.99v18.77c-1.47.24-2.97.48-4.51.72v-18.92c1.51-.18 3.01-.36 4.51-.57zm8.77-1.29v18.44c-1.47.3-2.97.6-4.51.87v-18.59c1.54-.21 3.04-.45 4.51-.72z"/><path class="st7" d="M343.58 421.96v18.14c-1.47.39-2.97.75-4.51 1.11v-18.26c1.54-.3 3.04-.63 4.51-.99zm8.77-2.5v18.02c-1.44.51-2.94.96-4.51 1.44v-18.05c1.57-.45 3.07-.9 4.51-1.41zm8.78-3.87V434c-1.38.66-2.88 1.32-4.51 1.92v-18.08c1.62-.69 3.12-1.44 4.51-2.25zm7.99-11.12v20.52c0 2.82-1.56 5.02-3.75 6.61v-19.16c2.36-2.29 3.75-4.93 3.75-7.97z"/><path class="st4" d="M367.93 376.66v20.52c0 3.6-2.52 6.16-5.71 7.87-14.3 7.66-44.01 13.82-74.37 14.15-26.82.3-49.71-1.77-68.1-8.17-1.56-.51-3.09-1.08-4.6-1.71-3-1.2-5.89-2.55-8.62-4.03-2.76-1.47-4.81-4.03-4.81-7.18v-21.45h166.21z"/><path class="st4" d="M367.93 376.66v20.52c0 3.6-2.52 6.16-5.71 7.87-14.3 7.66-44.01 13.82-74.37 14.15-18.77.21-35.63-.75-50.31-3.54-1.53-.27-3.03-.6-4.51-.93-1.44-.3-2.85-.66-4.27-1.02-1.53-.36-3.03-.78-4.51-1.23-1.53-.45-3.03-.93-4.51-1.44-1.56-.51-3.09-1.08-4.6-1.71-3-1.2-5.89-2.55-8.62-4.03-2.76-1.47-4.81-4.03-4.81-7.18v-21.45h166.22z"/><path class="st4" d="M367.93 376.66v20.52c0 2.82-1.56 5.02-3.75 6.61-.6.48-1.26.9-1.95 1.26-.72.39-1.47.78-2.28 1.14-1.38.66-2.88 1.32-4.51 1.92-1.35.54-2.76 1.08-4.27 1.56-1.44.51-2.94.96-4.51 1.44-1.38.39-2.79.78-4.27 1.17-1.47.39-2.97.75-4.51 1.11-1.38.33-2.79.63-4.24.96-1.47.3-2.97.6-4.51.87-1.41.27-2.82.51-4.27.75-1.47.24-2.97.48-4.51.72-1.41.18-2.82.39-4.27.57-1.47.18-2.97.36-4.51.51-1.38.15-2.79.3-4.24.42-1.47.15-3 .27-4.51.36-1.41.12-2.82.21-4.27.27-1.5.09-3 .15-4.51.21-1.41.06-2.82.09-4.27.12-.66 0-1.32.03-1.98.03-.84.03-1.68.03-2.52.03-1.41 0-2.82 0-4.24-.03-1.5.03-3 0-4.51-.03-1.44 0-2.85-.06-4.27-.12-1.53 0-3.03-.06-4.51-.15-1.44-.03-2.85-.12-4.27-.21-1.53-.06-3.03-.18-4.51-.3-1.41-.09-2.82-.21-4.24-.36-1.53-.12-3.03-.27-4.51-.48-1.44-.12-2.85-.3-4.27-.54-1.53-.18-3.03-.39-4.51-.66-1.35-.21-2.67-.45-4-.69-1.53-.27-3.03-.6-4.51-.93-1.44-.3-2.85-.66-4.27-1.02-1.53-.36-3.03-.78-4.51-1.23-1.53-.45-3.03-.93-4.51-1.44-1.56-.51-3.09-1.08-4.6-1.71-3-1.2-5.89-2.55-8.62-4.03-2.76-1.47-4.81-4.03-4.81-7.18v-21.45h166.33z"/><path class="st5" d="M367.93 376.66c0 3.03-1.38 5.68-3.75 7.96-1.17 1.14-2.61 2.16-4.24 3.15-1.38.81-2.88 1.56-4.51 2.25-1.35.57-2.76 1.11-4.27 1.62-1.44.51-2.94.96-4.51 1.41-1.38.39-2.79.75-4.27 1.08-1.47.36-2.97.69-4.51.99-1.38.27-2.79.54-4.24.78-1.47.27-2.97.51-4.51.72-1.41.21-2.85.42-4.27.57-1.5.21-3 .39-4.51.57-1.41.15-2.85.3-4.27.42-1.5.15-3.03.27-4.51.39-1.44.12-2.85.21-4.24.3-1.56.12-3.06.21-4.51.27-1.47.09-2.91.18-4.27.24-1.59.06-3.12.09-4.51.15-1.59.03-3 .09-4.27.12-1.98.03-3.51.03-4.51.03h-.48c-.75 0-2.04 0-3.75-.03-1.29-.03-2.79-.06-4.51-.09-1.32-.03-2.73-.09-4.27-.12-1.41-.09-2.94-.15-4.51-.24-1.38-.06-2.79-.15-4.27-.24-1.47-.09-2.97-.18-4.51-.3-1.38-.12-2.82-.24-4.24-.36-1.5-.12-3-.27-4.51-.45-1.41-.15-2.85-.3-4.27-.48-1.5-.18-3-.39-4.51-.6-20.25-2.88-39.8-8.65-39.8-20.13 0-22.38 74.58-23.01 83.12-23.01 8.61.02 83.19.65 83.19 23.03z"/><path class="st4" d="M361.93 376.67c0 9.4-34.52 20.03-77.1 20.03s-77.1-10.62-77.1-20.03c0-9.4 34.52-20.02 77.1-20.02s77.1 10.62 77.1 20.02z"/><path class="st6" d="M284.84 356.65c-42.58 0-77.1 10.62-77.1 20.03 0 1.77 1.22 3.58 3.49 5.36-.48-.79-.74-1.58-.74-2.35 0-9.05 33.23-19.28 74.22-19.28s74.22 10.23 74.22 19.28c0 .89-.33 1.79-.95 2.69 2.55-1.88 3.95-3.81 3.95-5.69 0-9.42-34.52-20.04-77.09-20.04z"/><path class="st5" d="M215.16 390.39v18.92c1.5.63 3.03 1.2 4.6 1.71v-18.95c-1.62-.52-3.15-1.08-4.6-1.68zm-9.17-5.35v19.92c.18.11.36.23.55.33 1.28.69 2.61 1.35 3.96 1.99v-19.09c-1.74-.97-3.25-2.02-4.51-3.15zm18.27 8.35v19.08c1.47.45 2.97.87 4.51 1.23v-19.21c-1.55-.34-3.04-.71-4.51-1.1zm8.77 1.99v19.34c1.47.33 2.97.66 4.51.93v-19.48c-1.52-.25-3.03-.51-4.51-.79zm13.01 2.01V417c-1.53-.18-3.03-.39-4.51-.66v-19.55c1.5.21 3 .42 4.51.6z"/><path class="st6" d="M254.81 398.32v19.7c-1.53-.12-3.03-.27-4.51-.48v-19.68c1.5.19 3 .34 4.51.46zm8.74.66v19.7c-1.53-.06-3.03-.18-4.51-.3v-19.7c1.53.12 3.04.21 4.51.3zm8.77.48v19.58c-1.53 0-3.03-.06-4.51-.15v-19.67c1.57.09 3.1.15 4.51.24zm8.77.21v19.52c-1.5.03-3 0-4.51-.03v-19.58c1.72.03 3.22.06 4.51.09zm8.74 0v19.49c-.66 0-1.32.03-1.98.03-.84.03-1.68.03-2.52.03V399.7c.99 0 2.52 0 4.5-.03zm8.77-.27v19.43c-1.5.09-3 .15-4.51.21v-19.49c1.39-.06 2.92-.09 4.51-.15zm8.77-.51v19.31c-1.47.15-3 .27-4.51.36v-19.4c1.45-.06 2.95-.15 4.51-.27zm8.74-.69v19.07c-1.47.18-2.97.36-4.51.51v-19.19c1.48-.12 3.01-.24 4.51-.39zm8.78-.99v18.77c-1.47.24-2.97.48-4.51.72v-18.92c1.5-.18 3-.36 4.51-.57zm8.77-1.29v18.44c-1.47.3-2.97.6-4.51.87v-18.59c1.53-.21 3.04-.45 4.51-.72z"/><path class="st7" d="M342.4 394.14v18.14c-1.47.39-2.97.75-4.51 1.11v-18.26c1.53-.29 3.04-.63 4.51-.99zm8.77-2.49v18.02c-1.44.51-2.94.96-4.51 1.44v-18.05c1.57-.45 3.07-.9 4.51-1.41zm8.77-3.87v18.41c-1.38.66-2.88 1.32-4.51 1.92v-18.08c1.63-.69 3.13-1.44 4.51-2.25zm7.99-11.12v20.52c0 2.82-1.56 5.02-3.75 6.61v-19.16c2.37-2.29 3.75-4.93 3.75-7.97z"/></g></g><g id="Arrows"><path class="st8" d="M385.35 266.53c-15.44 20.42-25.75 43.88-31.43 68.78-.25 1.16-.51 2.33-.76 3.48-9.46 45.13-3.89 94.59 13.84 138.78.64 1.61 1.3 3.19 1.97 4.76.33.82.66 1.61 1.02 2.4 26.45 60.53 73.16 110.73 125.91 150.55 6.39 4.84 12.85 9.79 19.59 14.14 6.35 4.13 7.79 5.75 9.92 4.49.79-.43 1.66-1.27 2.89-2.5l.02-.03c.67-.66 1.43-1.43 2.33-2.3 9.22-8.97 15.31-25.65 20.45-37.25 11.23-25.3 18.38-52.49 21.21-80.26.4-3.89.72-7.77.94-11.67.11-1.94.21-3.89.28-5.84.91-25.11-1.71-50.49-7.99-75.11-5.73-22.37-14.46-44.03-25.76-64.39-.62-1.12-1.23-2.24-1.89-3.35-26.6-46.53-66.61-86-114.27-111.24-5.2-2.76-10.92-5.39-16.57-5.95-1.23-.13-2.46-.16-3.69-.05-1.15.08-2.32.28-3.44.59-6.24 1.77-10.74 6.88-14.57 11.97z"/><path class="st9" d="M440.22 374.8l-86.3-39.48c-.25 1.16-.51 2.33-.76 3.48l88.41 40.45 47.48 155.56L367 477.58c.64 1.61 1.3 3.19 1.97 4.76l121.46 56.96 34.97 114.62 2.89-2.5.02-.03-17.9-58.67 62.83-72.82c.11-1.94.21-3.89.28-5.84l-64.35 74.58-40.28-131.94 70.87-82.15c-.62-1.12-1.23-2.24-1.89-3.35l-70.23 81.39-60.61-198.58c-1.23-.13-2.46-.16-3.69-.05l36.88 120.84z"/><path class="st9" d="M271.45 454.45c3.07 25.27 8.1 50.48 17.83 74.17.01.02.01.04.02.06.47 1.11.94 2.23 1.42 3.34 17.31 39.42 48.41 65.47 84.52 85.98 1.98 1.12 3.97 2.23 5.97 3.31 36.3 19.76 77.02 34.51 113.6 51.92 7.47 3.55 12.55 2.62 15.96-.96.86-.89 1.63-1.96 2.28-3.18 6.88-12.52 3.62-39.96 3.23-49.36-.65-15.48-2.32-30.67-5.19-45.46-4.15-21.3-10.77-41.7-20.37-60.77-.7-1.41-1.42-2.81-2.17-4.19-11.72-22.09-27.57-42.28-48.31-59.88-8.7-7.39-18.01-14.07-27.82-20.03-.92-.57-1.85-1.13-2.79-1.68-32.12-18.88-69.25-29.96-107.02-31.54-5.58-.23-11.37-.23-16.49 1.94-.13.05-.27.11-.38.17-1.15.5-2.21 1.04-3.21 1.65-18.39 10.98-13.18 37.38-11.08 54.51z"/><path class="st8" d="M282.52 399.95c65.69 41.02 112.84 84.62 146.57 124.95.63.74 1.24 1.48 1.85 2.22l.01.01c21.84 26.41 37.93 51.36 49.73 73.2 2.81 5.2 5.43 10.3 7.86 15.29.2.42.41.83.59 1.24 9.95 20.6 16.85 39.39 21.64 55.4.86-.89 1.63-1.96 2.28-3.18-6.1-19.93-15.4-43.91-29.59-70.17-3.14-5.83-6.46-11.61-9.92-17.34l.01-.01c-.75-1.25-1.52-2.49-2.29-3.73l.01-.01c-19.78-32.14-44.31-62.78-73.21-91.46l.01-.01c-.85-.84-1.71-1.68-2.58-2.52-1.69-1.68-3.43-3.34-5.16-5-30.38-29.02-65.39-55.96-104.6-80.52-1.15.49-2.21 1.03-3.21 1.64z"/><path class="st8" d="M409.63 427.72l-14.14 56.1-.67 2.63 3.04.7.21-.81 14.35-56.94c-.92-.57-1.85-1.13-2.79-1.68zm78.92 81.58l-17.29 68.52-.84 3.37 3.04.68.08-.32 17.17-68.07c-.69-1.39-1.41-2.79-2.16-4.18zm-199.86 22.76l142.28-3.86-.06-3.36-142.28 3.86zm86.55 85.93c1.98 1.12 3.97 2.23 5.97 3.31l107.96-2.26-.03-2.19-.01-1.25-.58.01-113.31 2.38zm406.51-82.48c-1.36.23-2.5.41-3.38.55-1.47.23-2.25.33-2.25.33-13.4-64.78-6.41-113.92 10.21-151.02.76-1.72 1.56-3.42 2.36-5.09 12.62-26 29.99-45.8 48.04-60.77l.21-.16 2.55-2.09.31-.25c40.25-32.08 82.72-40.66 82.72-40.66.05.11.09.24.13.35l1.24 3.29-.01.01c9.2 25.02 14.59 47.64 16.91 68.06l.31 2.79c2.75 27.23-.02 50.53-6.51 70.47-.43 1.3-.86 2.58-1.32 3.82-30 83.83-127.05 106.04-151.52 110.37z"/><path class="st10" d="M836.73 319.51l10.3 96.74h.02l3.19-.33.09-.02-.01-.13-.49-4.55L839.79 317z"/><path class="st9" d="M781.75 535.51c-1.36.23-2.5.41-3.38.55 8.99-14.91 18.54-31.22 28.34-48.25.83-1.44 1.66-2.9 2.5-4.35l.01-.01c12.5-21.79 25.34-44.65 37.84-67.21.92-1.68 1.86-3.35 2.78-5.03 29.48-53.29 56.74-104.24 72.81-134.52l1.24 3.29-.01.01c-11.65 21.92-28.75 53.89-48.16 89.5-.63 1.18-1.28 2.36-1.94 3.54l-.01.01c-7.54 13.85-15.42 28.19-23.46 42.69v.02c-.03.04-.07.1-.08.15-6.52 11.76-13.13 23.62-19.75 35.37-.64 1.16-1.28 2.31-1.94 3.45-16.1 28.61-32.16 56.48-46.79 80.79z"/><path class="st9" d="M940.78 348.07l-65.06 21.44-3.18 1.05.87 2.61.37-.11v-.02l67.31-22.18z"/><path transform="rotate(-16.046 881.840964 438.33945)" class="st9" d="M826.07 436.62H937.3v3.32H826.07z"/><path transform="rotate(-11.246 797.580282 432.926404)" class="st10" d="M795.82 377.35h3.32v111.23h-3.32z"/><path class="st9" d="M992.2 438.85c5.02 18.88 5.69 38.39 2.82 57.54l-.42 2.67c-5.78 34.46-23 67.54-47.09 93.33-.87.94-1.75 1.86-2.64 2.76-.45.47-.89.93-1.35 1.38-34.49 34.69-80.03 56.16-126.87 68.57-5.68 1.51-11.44 3.08-17.22 4.15-5.46 1.02-6.88 1.74-8 .23-.42-.54-.79-1.38-1.29-2.61l-.01-.03c-.28-.66-.59-1.42-.97-2.3-3.86-9.02-3.5-22.52-3.87-32.17-.81-21.07 1.68-42.26 7.27-62.58.78-2.84 1.62-5.66 2.53-8.47.45-1.39.91-2.79 1.39-4.18 6.19-17.89 14.86-34.93 25.83-50.36 9.98-14.01 21.82-26.64 35.07-37.6.73-.6 1.45-1.21 2.2-1.79 30.8-24.82 68.84-40.73 108.26-44.4 4.3-.4 8.92-.57 12.94.71.88.27 1.72.61 2.53 1.05.77.4 1.51.88 2.19 1.43 3.77 3.06 5.46 7.97 6.7 12.67z"/><path class="st8" d="M923.87 498.98l69.68-2.28-.42 2.67-71.39 2.34-74.63 95.2 98.93-4.2c-.87.94-1.75 1.86-2.64 2.76l-98.45 4.18-54.98 70.15-1.29-2.61-.01-.02 28.14-35.9-23.19-69.62c.45-1.39.91-2.79 1.39-4.18l23.75 71.31 63.31-80.74-26.15-78.54c.73-.6 1.45-1.21 2.2-1.79l25.92 77.82 95.27-121.52c.88.27 1.72.61 2.53 1.05l-57.97 73.92z"/><path class="st11" d="M835.13 697.34H532.87c-9.1 0-16.55-7.45-16.55-16.55V129.73c0-9.1 7.45-16.55 16.55-16.55h302.26c9.1 0 16.55 7.45 16.55 16.55V680.8c0 9.09-7.44 16.54-16.55 16.54z"/><path class="st11" d="M837.54 696.99H547.98c-8.84 0-16-7.16-16-16V178.48c0-22 17.84-39.84 39.84-39.84H818.3c19.46 0 35.23 15.77 35.23 35.23v507.12c.01 8.83-7.16 16-15.99 16z"/><path class="st10" d="M803.14 615.86H576.31c-4.27 0-7.72-3.46-7.72-7.72V247.16c0-4.27 3.46-7.72 7.72-7.72h226.83c4.27 0 7.72 3.46 7.72 7.72v360.98c.01 4.27-3.45 7.72-7.72 7.72z"/><path class="st12" d="M782.17 559.26H604.7c-2.21 0-4.01-1.8-4.01-4.01s1.8-4.01 4.01-4.01h177.47c2.21 0 4.01 1.81 4.01 4.01 0 2.21-1.81 4.01-4.01 4.01zm0 17.04H604.7c-2.21 0-4.01-1.81-4.01-4.01 0-2.21 1.8-4.01 4.01-4.01h177.47c2.21 0 4.01 1.81 4.01 4.01 0 2.2-1.81 4.01-4.01 4.01z"/><path class="st13" d="M533.59 299.64c16.98 0 31.44-13.77 31.44-30.75h-61.42c0 16.98 12.99 30.75 29.98 30.75z"/><path class="st11" d="M595.09 298.95c16.98 0 31.35-13.08 31.35-30.06h-61.42c.01 16.98 13.09 30.06 30.07 30.06z"/><path class="st13" d="M656.6 298.95c16.98 0 31.27-13.08 31.27-30.06h-61.42c0 16.98 13.16 30.06 30.15 30.06z"/><path class="st11" d="M718.1 298.95c16.98 0 31.18-13.08 31.18-30.06h-61.42c.01 16.98 13.26 30.06 30.24 30.06z"/><path class="st13" d="M779.61 298.95c16.98 0 31.09-13.08 31.09-30.06h-61.42c0 16.98 13.35 30.06 30.33 30.06z"/><path class="st11" d="M841.12 298.95c16.98 0 31-13.08 31-30.06H810.7c0 16.98 13.43 30.06 30.42 30.06z"/><g><path class="st14" d="M538.17 136.92l-34.56 133.02h61.42l23.45-133.02z"/><path class="st10" d="M588.48 136.92l-23.45 133.02h61.41l13.05-133.02z"/><path class="st14" d="M639.49 136.92l-13.05 133.02h61.41l-.15-133.02z"/><path class="st10" d="M840.28 137.27l-47.1-.35 17.5 133.02h61.44zm-152.58-.35l.15 133.02h61.42l-9.14-133.02z"/><path class="st14" d="M740.13 136.92l9.14 133.02h61.41l-17.5-133.02z"/></g><g><path class="st12" d="M732.7 441.77h-81c-1.58 0-2.99-1.02-3.48-2.52l-16.02-49.06-17.08-58.75h-23.79c-2.02 0-3.66-1.64-3.66-3.66 0-2.02 1.64-3.66 3.66-3.66h26.54c1.63 0 3.06 1.08 3.51 2.64l17.81 61.28 15.16 46.42h78.35c2.02 0 3.66 1.64 3.66 3.66s-1.64 3.65-3.66 3.65z"/><path class="st12" d="M622.91 347.94h129.37l-16.91 60.98h-95.13zm38.34 118.94c-6.61 0-11.99-5.38-11.99-11.99s5.38-11.99 11.99-11.99 11.99 5.38 11.99 11.99-5.38 11.99-11.99 11.99zm0-17.32c-2.93 0-5.32 2.39-5.32 5.32s2.38 5.32 5.32 5.32c2.93 0 5.32-2.39 5.32-5.32-.01-2.93-2.39-5.32-5.32-5.32zm63.64 17.32c-6.61 0-11.99-5.38-11.99-11.99s5.38-11.99 11.99-11.99 11.99 5.38 11.99 11.99-5.38 11.99-11.99 11.99zm0-17.32c-2.93 0-5.32 2.39-5.32 5.32s2.39 5.32 5.32 5.32 5.32-2.39 5.32-5.32-2.39-5.32-5.32-5.32z"/></g><g><path class="st15" d="M715.97 529.31H671c-12.35 0-22.45-10.1-22.45-22.45s10.1-22.45 22.45-22.45h44.97c12.35 0 22.45 10.1 22.45 22.45s-10.11 22.45-22.45 22.45z"/></g><path class="st12" d="M752.68 671.42H634.16c-9.68 0-17.59-7.92-17.59-17.59 0-9.68 7.92-17.59 17.59-17.59h118.51c9.68 0 17.59 7.92 17.59 17.59.01 9.67-7.91 17.59-17.58 17.59z"/></g><g id="Layer_1"><path class="st16" d="M461.08 748.64l90.42-125.71s15.12.48 17.58 12.39c.82 3.97-.26 8.09-2.53 11.45-14.38 21.35-88.71 130.53-105.04 130.01 0 .01 20.92-6.19-.43-28.14z"/><path class="st11" d="M551.5 622.93l-185.35-43.28c-21.69-5.06-43.66-8.8-65.82-11.13-25.37-2.67-57.54-4.93-80.15-2.58-12.23 1.27-23.53 7.1-31.96 16.04l-125.44 134 398.26 33.71 90.46-126.76z"/><path class="st16" d="M101.37 698.55l358.09 45.46c9.68 1.28 16.64 9.12 15.92 17.93-.74 8.96-9.16 15.74-19.09 15.39L98.67 764.59c-19.11-.68-35.67-13.45-38.1-30.62-.53-3.7-.41-7.6.65-11.63 4.22-16.12 21.99-26.18 40.15-23.79z"/><path class="st17" d="M129.65 679.26l-4.08-3.61c-.82-.73-.9-2-.17-2.82l83.78-94.57c.73-.82 2-.9 2.82-.17l4.08 3.61c.82.73.9 2 .17 2.82l-83.78 94.57c-.72.82-1.99.9-2.82.17z"/><path class="st12" d="M243.2 581.77c11.66-1.4 37.08-2.58 70.86 6.7 4.41 1.21 6.15 6.54 3.25 10.08l-66.13 80.82c-3.58 4.38-9.12 6.67-14.75 6.11l-72.18-7.22c-4.78-.48-7-6.16-3.82-9.76l71.49-80.81c2.92-3.28 6.92-5.39 11.28-5.92zm27.08 104.53l15.7-19.77c1.19-1.49 3.08-2.24 4.97-1.96l14.76 2.22c3.99.6 5.9 5.25 3.47 8.48l-14.24 18.95c-1.1 1.47-2.89 2.27-4.72 2.11l-16.22-1.4c-4.24-.37-6.36-5.3-3.72-8.63zm27.94-36.13l15.7-19.77c1.19-1.49 3.08-2.24 4.97-1.96l14.76 2.22c3.99.6 5.9 5.25 3.47 8.48l-14.24 18.95c-1.1 1.47-2.89 2.27-4.72 2.11l-16.22-1.4c-4.24-.36-6.37-5.3-3.72-8.63zm27.93-36.12l15.7-19.77c1.19-1.49 3.08-2.24 4.97-1.96l14.76 2.22c3.99.6 5.9 5.25 3.47 8.48l-14.24 18.95c-1.1 1.47-2.89 2.27-4.72 2.11l-16.22-1.4c-4.24-.37-6.36-5.3-3.72-8.63zm.06 77.56l9.9-13.9c1.8-2.53 4.82-3.91 7.91-3.61l7.33.71c6.55.63 10.04 8.03 6.37 13.49l-9.05 13.46c-1.67 2.48-4.5 3.93-7.5 3.83l-8.18-.27c-6.92-.22-10.8-8.07-6.78-13.71zm25.99-37.54l9.9-13.9c1.8-2.53 4.82-3.91 7.91-3.61l7.33.71c6.55.63 10.04 8.03 6.37 13.49l-9.05 13.46c-1.67 2.49-4.5 3.93-7.5 3.83l-8.18-.27c-6.92-.23-10.79-8.07-6.78-13.71zm26-37.54l9.9-13.9c1.8-2.53 4.82-3.91 7.91-3.61l7.33.71c6.55.63 10.04 8.03 6.37 13.49l-9.05 13.46c-1.67 2.49-4.5 3.93-7.5 3.83l-8.18-.27c-6.92-.23-10.8-8.07-6.78-13.71zm.45 85.42l9.9-13.9c1.8-2.53 4.82-3.91 7.91-3.61l7.33.71c6.55.63 10.04 8.03 6.37 13.49l-9.05 13.46c-1.67 2.48-4.5 3.93-7.5 3.83l-8.18-.27c-6.92-.22-10.8-8.06-6.78-13.71zm25.99-37.54l9.9-13.9c1.8-2.53 4.82-3.91 7.91-3.61l7.33.71c6.55.63 10.04 8.03 6.37 13.49l-9.05 13.46c-1.67 2.49-4.5 3.93-7.5 3.83l-8.18-.27c-6.92-.22-10.8-8.07-6.78-13.71zm26-37.54l9.9-13.9c1.8-2.53 4.82-3.91 7.91-3.61l7.33.71c6.55.63 10.04 8.03 6.37 13.49l-9.05 13.46c-1.67 2.48-4.5 3.93-7.5 3.83l-8.18-.27c-6.92-.23-10.8-8.07-6.78-13.71z"/><path class="st15" d="M431.08 712.3l9.9-13.9c1.8-2.53 4.82-3.91 7.91-3.61l7.33.71c6.55.63 10.04 8.03 6.37 13.49l-9.05 13.46c-1.67 2.48-4.5 3.93-7.5 3.83l-8.18-.27c-6.91-.23-10.79-8.07-6.78-13.71z"/><path class="st18" d="M457.08 674.75l9.9-13.9c1.8-2.53 4.82-3.91 7.91-3.61l7.33.71c6.55.63 10.04 8.03 6.37 13.49l-9.05 13.46c-1.67 2.48-4.5 3.93-7.5 3.83l-8.18-.27c-6.92-.22-10.8-8.07-6.78-13.71z"/><path d="M483.07 637.21l9.9-13.9c1.8-2.53 4.82-3.91 7.91-3.61l7.33.71c6.55.63 10.04 8.03 6.37 13.49l-9.05 13.46c-1.67 2.48-4.5 3.93-7.5 3.83l-8.18-.27c-6.91-.23-10.79-8.07-6.78-13.71z" fill="#ff0"/><path class="st10" d="M222.5 656.54c-1.39-3.15-.12-7.61 3.2-8.5 2.81-.75 5.55 1.17 8 2.74 2.45 1.57 5.84 2.81 8.09.96 2.7-2.22 1.23-6.54-.43-9.6l-13.77-25.38c-1.26-2.32-2.55-4.77-2.55-7.41 0-2.64 1.78-5.49 4.42-5.7 3.16-.25 5.3 3.04 6.7 5.89l12.72 25.86c3.02 6.14 10.03 16.01 8.28 23.24-3.2 13.26-30.3 7.73-34.66-2.1z"/><path class="st17" d="M482.54 747.68l-4.44-3.15c-.9-.64-1.11-1.89-.47-2.79l73.17-103c.64-.9 1.89-1.11 2.79-.47l4.44 3.15c.9.64 1.11 1.89.47 2.79l-73.17 103c-.63.9-1.89 1.11-2.79.47z"/><path class="st18" d="M554.02 642.7l-70.94 100.12 218.31 15.34c4.88.34 9.5-2.21 11.82-6.52l40.75-75.93c4.25-7.93-1.07-17.61-10.04-18.26l-189.9-14.75z"/><path class="st10" d="M3.48 566.81s.73-.09 2.07-.17c14.21-.84 97.5-.95 125.2 109.24l76.13-86.55s-9.99-105.76-126.36-115.64L3.48 566.81z"/><path class="st20" d="M76.21 503.05l-37.1 49.17c-1.04 1.38-.76 3.36.62 4.4 1.38 1.04 3.36.76 4.4-.62l37.1-49.17c1.04-1.38.76-3.36-.62-4.4-1.38-1.03-3.36-.76-4.4.62zm7.76 22.36c-9.8 11.6-18.85 23.95-27.08 37.01-.62 1-1.89 1.31-2.84.7-.95-.62-1.23-1.95-.62-2.96 8.19-13.19 17.29-25.6 27.19-37.21.75-.86 2.12-1.01 3.04-.33.91.67 1.05 1.92.31 2.79zm28.99-19.74c-18.33 18.36-35 38.74-49.58 60.94-.62.98-1.9 1.29-2.84.69-.94-.6-1.22-1.91-.6-2.9 14.51-22.42 31.34-42.83 50.04-61.06.82-.77 2.15-.87 2.96-.23.82.64.82 1.79.02 2.56zm-4.25 16.22C95 536.92 82.13 553.01 70.28 570.04c-.64.95-1.93 1.23-2.85.63-.93-.61-1.17-1.9-.53-2.86 11.8-17.2 24.76-33.35 38.69-48.32.77-.81 2.1-.92 2.95-.26.86.66.93 1.85.17 2.66zm1.99 10.54c-11.64 13.35-22.81 27.36-33.4 41.94-.66.93-1.94 1.19-2.86.59-.92-.6-1.14-1.87-.48-2.8 10.55-14.73 21.79-28.8 33.59-42.13.74-.82 2.06-.95 2.92-.29.86.67.96 1.87.23 2.69zm-1.11 12.96c-9.09 10.62-17.99 21.56-26.65 32.76-.68.9-1.97 1.13-2.87.53-.9-.61-1.08-1.85-.41-2.76 8.63-11.32 17.56-22.32 26.75-32.95.73-.83 2.04-.96 2.91-.29.87.66.99 1.88.27 2.71zM113.29 487.84c-1.25 1.8-2.41 3.53-3.5 5.2-.41.64-1.45.92-2.32.63-.88-.28-1.27-1.01-.85-1.64 1.12-1.66 2.31-3.37 3.59-5.15.52-.72 1.65-1.11 2.49-.86.84.27 1.09 1.09.59 1.82zm6.52 2.62c-1.17 1.84-2.27 3.61-3.29 5.33-.39.66-1.36.9-2.17.54-.82-.34-1.18-1.14-.78-1.79 1.05-1.7 2.18-3.45 3.38-5.27.49-.73 1.55-1.08 2.33-.77.77.33 1.01 1.22.53 1.96zm6.28 2.81c-1.12 1.9-2.17 3.74-3.15 5.53-.37.69-1.28.89-2.04.47-.76-.41-1.09-1.29-.71-1.96 1.01-1.76 2.08-3.57 3.22-5.45.47-.75 1.46-1.07 2.19-.7.73.4.94 1.35.49 2.11zm5.23 3.37c-1.06 1.96-2.07 3.86-3.02 5.72-.36.71-1.21.89-1.91.4-.71-.48-1-1.42-.64-2.12.97-1.82 1.99-3.69 3.08-5.62.44-.78 1.38-1.06 2.06-.63.67.45.86 1.46.43 2.25zm4.9 3.2c-1.04 2.04-2.02 4.03-2.96 5.96-.35.74-1.16.9-1.81.36-.66-.53-.91-1.56-.55-2.28.95-1.89 1.94-3.84 3-5.85.43-.8 1.31-1.07 1.95-.59.63.5.79 1.58.37 2.4zM85.73 582.98c11 9.63 21.43 20.13 31.37 31.23-.25.3-.49.6-.73.9-9.97-11.05-20.41-21.51-31.43-31.11.26-.34.52-.68.79-1.02zm10.34-12.75c10.68 9.91 20.77 20.76 30.37 32.29-.27.35-.55.69-.82 1.03-9.63-11.5-19.77-22.33-30.48-32.22.31-.37.62-.74.93-1.1zm-5.24 6.32c10.87 9.79 21.15 20.5 30.94 31.85-.26.33-.52.65-.78.97-9.82-11.31-20.13-21.99-31.03-31.76.3-.36.59-.71.87-1.06zm-3.22 4.03c10.96 9.7 21.34 20.28 31.23 31.48-.38.47-.75.93-1.12 1.39-9.92-11.14-20.34-21.66-31.32-31.32.39-.52.8-1.03 1.21-1.55zm37.86-42.85c9.11 9.93 17.72 20.85 25.88 32.52-.34.45-.68.89-1.02 1.34-8.23-11.68-16.91-22.62-26.09-32.56.41-.44.82-.87 1.23-1.3zm2.91-3.05c8.94 9.89 17.37 20.78 25.38 32.4-.52.69-1.03 1.37-1.55 2.04-8.11-11.65-16.65-22.56-25.7-32.48.62-.65 1.24-1.3 1.87-1.96zm-24.48 26.49c10.32 10 20.08 20.98 29.34 32.67-.44.56-.88 1.12-1.31 1.68-9.33-11.66-19.15-22.63-29.55-32.62.5-.57 1.01-1.15 1.52-1.73z"/><path class="st20" d="M94.69 571.87c10.73 9.88 20.88 20.7 30.53 32.19-.41.51-.81 1.02-1.21 1.52-9.7-11.44-19.9-22.23-30.68-32.08.45-.54.9-1.08 1.36-1.63zm25.84-28.9c9.41 9.98 18.3 20.96 26.73 32.67-.5.65-.99 1.29-1.48 1.93-8.52-11.73-17.51-22.72-27.02-32.71.58-.63 1.17-1.26 1.77-1.89zm3.01-3.2c9.23 9.95 17.95 20.9 26.22 32.59-.5.66-1.01 1.32-1.5 1.98-8.37-11.71-17.18-22.67-26.53-32.64.59-.64 1.2-1.28 1.81-1.93zm-34.97 39.59c10.93 9.73 21.29 20.35 31.15 31.6-.13.16-.25.32-.38.47-9.87-11.23-20.24-21.83-31.19-31.55.14-.17.28-.35.42-.52z"/><path class="st20" d="M89.41 578.31c10.91 9.75 21.24 20.41 31.08 31.69-.13.16-.26.32-.38.48-9.85-11.27-20.19-21.91-31.12-31.65.14-.17.28-.34.42-.52zm2.44-3.01c10.83 9.82 21.09 20.56 30.84 31.95-.13.16-.26.33-.39.49-9.77-11.37-20.04-22.1-30.89-31.9.15-.18.29-.36.44-.54z"/><path class="st20" d="M92.73 574.23c10.8 9.84 21.02 20.61 30.75 32.03-.13.17-.26.33-.4.5-9.74-11.4-19.98-22.16-30.8-31.99.16-.18.3-.36.45-.54zm22.36-25.42c9.73 10.01 18.91 21.02 27.63 32.77-.32.42-.64.83-.95 1.24-8.77-11.75-18.01-22.76-27.81-32.78.37-.41.75-.82 1.13-1.23zm-4.29 4.67c9.97 10.02 19.38 21.04 28.31 32.78-.46.6-.92 1.2-1.38 1.79-9.01-11.74-18.5-22.75-28.56-32.77.54-.59 1.08-1.19 1.63-1.8zm1.29-1.41c9.9 10.02 19.24 21.04 28.1 32.78-.16.2-.31.4-.47.61-8.89-11.74-18.26-22.77-28.19-32.78.19-.21.37-.41.56-.61z"/><path class="st20" d="M113.21 550.85c9.84 10.02 19.12 21.04 27.93 32.78-.16.2-.31.41-.47.61-8.84-11.75-18.15-22.77-28.02-32.78.18-.2.37-.4.56-.61zm3.22-3.49c9.65 10 18.76 21.01 27.41 32.75l-.48.63c-8.67-11.74-17.82-22.75-27.5-32.76.18-.2.37-.41.57-.62zM117.58 546.12c9.59 10 18.63 21 27.22 32.74l-.48.63c-8.61-11.74-17.69-22.74-27.31-32.74.19-.22.38-.43.57-.63zm-9.13 9.96c10.09 10.02 19.62 21.03 28.67 32.76-.46.59-.91 1.17-1.36 1.75-9.12-11.72-18.73-22.73-28.91-32.74.53-.58 1.06-1.17 1.6-1.77zm-3.34 3.73c10.27 10.01 19.96 21 29.16 32.7-.15.19-.3.38-.44.57-9.23-11.69-18.95-22.68-29.24-32.69.17-.19.34-.38.52-.58zM106.15 558.64c10.21 10.01 19.86 21.01 29.01 32.72l-.45.57c-9.18-11.71-18.85-22.7-29.09-32.71.18-.19.36-.38.53-.58zm-4.27 4.84c10.42 9.98 20.27 20.94 29.62 32.6-.29.37-.57.74-.86 1.1-9.4-11.64-19.29-22.58-29.76-32.56.33-.38.66-.76 1-1.14z"/><path class="st20" d="M100.39 565.19c10.49 9.97 20.4 20.91 29.82 32.53-.43.54-.85 1.09-1.27 1.62-9.48-11.6-19.46-22.51-30.01-32.46.48-.56.96-1.12 1.46-1.69zm-3.06 3.56c10.62 9.93 20.67 20.81 30.22 32.37-.14.18-.28.35-.41.53-9.57-11.55-19.63-22.42-30.27-32.34.14-.19.3-.38.46-.56z"/><path class="st20" d="M128.38 600.06c-9.51-11.58-19.51-22.48-30.1-32.43-.16.19-.32.37-.48.56 10.6 9.93 20.63 20.83 30.16 32.4.14-.18.28-.35.42-.53z"/></g><g id="Front_Wallets"><path class="st21" d="M590.36 686.79c-.79 3.53 5.66 7.97 14.41 9.92 8.75 1.95 16.47.67 17.26-2.86.79-3.53-5.66-7.97-14.41-9.92-8.75-1.95-16.47-.67-17.26 2.86zm-44.27 4.11c-2.14 3.11 1.61 9.39 8.37 14.03 6.76 4.64 13.96 5.88 16.1 2.77 2.14-3.11-1.61-9.39-8.37-14.03-6.76-4.64-13.97-5.88-16.1-2.77z"/><path class="st22" d="M586.51 437.81c-5.86 4.53-2.93 13.71.8 19.13 1.98 2.88 4.67 5.42 5.63 8.79.7 2.45.4 5.1 1.04 7.57 2.2 8.41 14.28 11.94 15.04 20.6.41 4.7-2.89 8.94-6.59 11.87-3.7 2.93-8.02 5.17-11.06 8.78-2.69 3.18-4.24 7.27-7.25 10.15-3.74 3.58-9.1 4.75-14.17 5.77-4.66.94-9.54 1.87-14.11.58-6.19-1.76-6.99-6.76-9.79-11.59-4.16-7.15-8.56-2.5-14.69-4.59-2.88-.98-4.47-4.65-3.23-7.42.62-1.38 1.81-2.53 2.04-4.02.38-2.5-1.99-4.44-3.87-6.14-3.21-2.89-5.73-7.23-4.62-11.41.96-3.61 4.27-5.98 6.99-8.54 1.74-1.64 3.3-3.47 4.66-5.44 1.11-1.62 2.1-3.4 2.29-5.35.16-1.66-.28-3.3-.54-4.95-1.61-10.18 4.39-21.07 13.85-25.15 2.73-1.18 5.66-1.82 8.45-2.87 3.33-1.24 6.43-3.04 9.74-4.33 6.2-2.42 13.1-2.94 19.61-1.58 8.99 1.87 5.99 5.56-.05 10.02-.06.04-.11.08-.17.12z"/><path class="st23" d="M569.94 471.76s3.55-3.33 2.63-8.1c0 0-16.82-25.94 2.53-31.99 0 0 3.9-.84 8.42-.64 5.21.23 9.91 3.98 11.67 8.88 1.29 3.6 2.24 8.56 1.36 14.63-.44 3.05-1.59 9.41-10.81 8.25 0 0-6.85-1.08-3.06 8.08-.01.01-3.58 10.66-12.74.89z"/><path class="st22" d="M586.53 437.83c-3.13 1.86-6.63 4.08-7.27 7.66-.11.63-.24 1.42-.86 1.58-.63.17-1.14-.49-1.62-.93-1.74-1.63-4.94-.59-5.87 1.6-.93 2.19.07 4.85 1.87 6.4.52.45 1.12.84 1.5 1.42.83 1.27.35 3-.42 4.31-.77 1.31-1.81 2.52-2.12 4.01-.19.89-.09 1.84-.41 2.7-.67 1.82-2.95 2.71-3.51 4.57-.25.85-.11 1.8-.47 2.6-.29.65-.87 1.11-1.44 1.54-3.32 2.51-6.86 4.73-10.56 6.63-1.58.81-3.24 1.6-4.38 2.96-2.57 3.09-1.5 7.7-.3 11.53l3.48 11.1c1.94 6.2 3.9 12.86 2.05 19.09-.27.9-.64 1.81-1.35 2.4-1.96 1.63-5-.11-6.27-2.32-1.15-1.99-1.61-4.3-2.42-6.45-.81-2.15-2.13-4.31-4.27-5.16-3.3-1.32-7.17.92-10.53-.22-2.88-.98-4.47-4.65-3.23-7.42.62-1.38 1.81-2.53 2.04-4.02.38-2.5-1.99-4.44-3.87-6.14-3.21-2.89-5.73-7.23-4.62-11.41.96-3.61 4.27-5.98 6.99-8.54 1.74-1.64 3.3-3.47 4.66-5.44 1.11-1.62 2.1-3.4 2.29-5.35.16-1.66-.28-3.3-.54-4.95-1.61-10.18 4.39-21.07 13.85-25.15 2.73-1.18 5.66-1.82 8.45-2.87 3.33-1.24 6.43-3.04 9.74-4.33 6.2-2.42 13.1-2.94 19.61-1.58 2.61.54 7.46.87 6.17 4.24-1.05 2.71-4.01 4.54-6.37 5.94z"/><path d="M569.94 471.76s8.07 7.07 12.73-.88l10.6 6.28c2.19 1.3 3.49 3.69 3.39 6.23l-1.97 51.58c-4.51.93-10.48 1.72-17.49 1.46-6.68-.25-12.33-1.37-16.64-2.56-1.74-17.32-3.48-34.63-5.22-51.95l.05-1.42s7.15-5.99 14.55-8.74z" fill="#a9ddff"/><path d="M554.1 681.79l-.32 9.94s5.07 2.38 6.34 4.81c.37.71-.07 1.6-.85 1.8-2.05.52-5.24 1.9-10.88-5.47-.34-.45-.5-1.03-.54-1.59l-.8-9.71c.01-.01 3.87.93 7.05.22zm38.39-4.65s.34 6.05-.18 9.32c-.23 1.44.65 1.82 2.02 2.31 4.25 1.5 12.29 2.72 13.36.55 0 0-.65-3.15-7.82-4.41l-.04-7.53c0-.01-3.08 1.54-7.34-.24z" fill="#ffc3cc"/><path class="st26" d="M609.38 592.46l1.64-.28c-.86-7.16.45-14.8 3.61-20.98.63-1.23 1.5-2.72 2.69-3.43 2.56-1.53 5.61.93 6.49 1.73 3.9 3.54 6.47 9.21 6.88 15.19l1.65-.17c-.44-6.49-3.25-12.67-7.5-16.53-2.86-2.59-5.94-3.31-8.27-1.91-1.57.94-2.62 2.72-3.36 4.17-3.35 6.53-4.75 14.63-3.83 22.21z"/><path class="st26" d="M640.55 580.81l.88 40.36-37.4 17.96-1.68-46.99z"/><path class="st27" d="M602.48 592.2l-5.58 44.03c.76-.06 2.06-.06 3.55.47 1.89.67 3.06 1.84 3.59 2.44-.52-15.65-1.04-31.29-1.56-46.94z"/><path class="st28" d="M573.59 584.95l16.56 91.95s6.01 4.71 12.17.39c0 0-4.01-136.9-7.63-142.33 0 0-23.75 4.01-32.11-1.03l11.01 51.02z"/><path class="st28" d="M558.34 532.5s29.26 5.54 34.55 2.65l.24 12.59s-13.83 9.09-17.26 16.73c0 0-19.17 103.96-19.46 118.65 0 0-6.78 3.38-11.3-1l3.3-86.38c.16-4.3.04-8.59-.33-12.88-1.02-11.9-1.95-39.76 10.26-50.36z"/><path class="st27" d="M561.94 616.13l-2.31-.56c1.88-10.12.7-21.13-3.23-30.21-.78-1.8-1.89-4.01-3.51-5.14-3.5-2.42-8.08.82-9.4 1.87-5.88 4.68-10.06 12.53-11.18 21l-2.34-.39c1.23-9.21 5.78-17.76 12.19-22.86 4.3-3.43 8.77-4.17 11.95-1.97 2.14 1.48 3.48 4.12 4.4 6.25 4.18 9.63 5.42 21.3 3.43 32.01z"/><path class="st27" d="M518.61 596.69l-4.95 57.41 51.63 29 6.69-66.79z"/><path d="M571.79 616.39l3.94 63.22c-1.08-.15-2.93-.28-5.1.34-2.75.78-4.53 2.34-5.34 3.15 2.17-22.24 4.33-44.48 6.5-66.71z" fill="#ff1a60"/><path class="st23" d="M611.94 556.44l.27 7.67c.04 1.17.39 2.32 1.01 3.32l3.47 1.69 1.98 4.94c.65 1.63 2.44 2.48 4.11 1.97 1.34-.41 2.32-1.58 2.47-2.98l.32-2.83c.1-.89-.01-1.79-.33-2.62l-3.06-8.03c-.33-.87-.83-1.66-1.48-2.32l-3.52-3.6c.01-.01-2.02 2.68-5.24 2.79zm-64.09 7.27l4.02 6.54c.61 1 .96 2.15.99 3.32l.11 3.41 1.53 4.52c.52 1.53-.34 3.18-1.88 3.64l-2.97.89c-1.35.4-2.8-.03-3.71-1.11l-1.83-2.18c-.57-.68-.98-1.5-1.18-2.37l-1.9-8.38c-.21-.9-.22-1.84-.05-2.75l.94-4.95c0-.01 3.18 1.11 5.93-.58z"/><path class="st30" d="M617.19 553.64l-16.26-30.87c-.86-1.62-1.36-3.41-1.48-5.24l-2.41-35.83c-.13-1.96-1.26-3.71-2.98-4.65l-11.38-6.18 5.29 53.1c.21 2.06.97 4.03 2.22 5.69L610 555.94c-.01 0 4.74 2.07 7.19-2.3z"/><path d="M582.67 470.88l1.29 80.76s10.53 1.73 14.7-.96c0 0-7.18-38.19-6.23-44.83 0 0 3.08-2.99 3.89-7.13.1-.5.09-1.02.02-1.53-.42-3.12-3.27-13.49-13.67-26.31zm-12.73.88s5.67 58.11 2.6 80.06c0 0-13.33 6.15-24.51-.78 0 0 9.01-17.28 9.1-42.23l-3.93-25.74s6.29-7.55 16.74-11.31z" fill="#00a1a5"/><path class="st30" d="M541.85 501.24s5.79-20.8 17.19-22.93c3.61-.68 7.14 1.88 7.52 5.53.35 3.35-.63 8.57-5.48 16.36-2.34 3.75-4.24 7.77-5.62 11.97-2.24 6.86-5.01 17.04-4.97 25.43 0 0-1.35 23.98-.53 26 0 0-5.62 3.45-9.64.62.01-.01-3.01-42.52 1.53-62.98z"/><path class="st32" d="M164.24 535.11v14.03s6.07 8.34 14.78 1.14l-.38-8.72s12.13.76 12.89-14.03c0 0 2.01-20.42-13.48-22.25-2.08-.25-4.19.12-6.12.93-6.28 2.64-19.59 10.75-7.69 28.9z"/><path class="st33" d="M187.15 512.75c4.6-1.81 8.67-5.75 9.22-10.66.05-.44.05-.94-.27-1.24-.24-.22-.59-.27-.92-.31-7.83-.84-15.75-.94-23.6-.31-5.63.45-11.97 1.75-14.9 6.57-1.67 2.75-1.86 6.12-1.92 9.33-.1 5.12.04 10.24.39 15.34.18 2.53.68 5.48 2.95 6.62 1.82.91 4.13.16 5.55-1.29s2.11-3.46 2.59-5.43c.29-1.22.52-2.5.18-3.7-.56-1.99-2.63-3.64-2.23-5.67.29-1.45 1.82-2.38 3.3-2.47 1.48-.09 2.91.47 4.28 1.02.45-4.9-.26-5.76 4.77-6 3.66-.19 7.14-.54 10.61-1.8z"/><path class="st32" d="M241.44 605.14s13.2-1.64 16.89.02c.44.2.47.83.05 1.07-.88.51-2.66 1.24-5.85 1.44 0 0 6.76 2.5 13.11 1.55 0 0 6.92-1.23 5 1.85-.4.65-4.49 2.63-5.95 3.27-3.95 1.73-10.73 3.8-23.6-.72.01 0 .67-4.5.35-8.48z"/><path class="st34" d="M141.5 785.57l-.44 13.57 8.96.28 2.12-11.93s-3.16 2.03-10.64-1.92zm51.1.97l3.57 11.24 8.95-1.68-1.91-11.62s-2.21 3.04-10.61 2.06z"/><path class="st35" d="M188.5 640.49l16.3 143.67s-3.98 4.55-12.32 3.03l-44.92-143.67s17.06 5.31 40.94-3.03z"/><path d="M185.47 641.25l-31.65 145.19c-2.84 3.03-9.67 3.03-13.65-.57l-1.33-146.14s17.06 12.13 46.63 1.52z" fill="#003b60"/><path class="st37" d="M126.43 673.76c1.24-6.53 7.06-11.24 13.65-11.09 6.46.15 12 4.94 13.08 11.37l-3.48.21c-.43-4.69-5-7.8-9.67-7.89-4.76-.09-8.97 3.45-9.87 7.53l-3.71-.13z"/><path class="st38" d="M162.15 722.37h-47c-3.03 0-5.5-2.47-5.5-5.5v-37.52c0-3.03 2.47-5.5 5.5-5.5h47c3.03 0 5.5 2.47 5.5 5.5v37.52c0 3.03-2.47 5.5-5.5 5.5z"/><path class="st37" d="M167.65 699.25V680.1c0-3.44-2.81-6.25-6.25-6.25h-45.49c-3.44 0-6.25 2.81-6.25 6.25v19.14h57.99z"/><path class="st3" d="M133.39 699.25v1.02c0 1.37 1.11 2.49 2.49 2.49h7.39c1.37 0 2.49-1.11 2.49-2.49v-1.02h-12.37z"/><path class="st38" d="M191.16 560.07c2.56 4.47 4.32 9.41 5.17 14.49.85 5.11.79 10.35 1.9 15.41 1.11 5.06 3.68 10.15 8.25 12.58 3.7 1.96 8.1 1.9 12.28 1.79 7.84-.21 15.67-.42 23.51-.62.13 3.4-.01 6.8-.41 10.18-10.3 4.04-21.23 6.48-32.28 7.2-4.52.29-9.2.28-13.4-1.44-16.16-6.61-19.64-21.82-20.53-37.4-.37-6.4-.88-12.97.83-19.24 2.28-8.35 9.92-11.26 14.68-2.95z"/><path class="st39" d="M179.02 550.27s20.09-1.52 11.75 89.08c0 0-31.46 13.65-51.93.38 0 0-10.99-76.95 25.4-90.6 0 0 6.82 7.96 14.78 1.14z"/><path class="st38" d="M152.35 555.88c3.28-1.32 7.4-.08 8.79 3.17 4.99 11.69-7.9 18.51-11.31 43.15-3.87 27.96-1.05 37.94.76 51.18.36 2.61-8.22 4.06-11.24 3.79-1.65-.15-3.71-.1-4.97-1.18-1-.85-1.28-3.83-1.4-5.76-.72-10.97-1.44-21.93-2.17-32.9-.66-9.99-1.31-20.1.44-29.95 2.05-11.52 9.41-26.79 21.1-31.5z"/><path class="st32" d="M136.76 656.6s-2.82 4.55-4.07 10.11c-.48 2.11 2.94 5.24 9.78 4.79 1.56-.1 2.88-1.3 3.7-2.64.82-1.34 1.22-2.88 1.6-4.4 1.1.08 2.71 1.8 2.83 3.29.06.72 1.47-.05 1.77-.71.31-.65.21-1.41.07-2.12-.72-3.55-2.39-6.61-4.87-9.25-3.73 2.46-10.81.93-10.81.93z"/><path class="st35" d="M140.96 799.02l-.08 10.59c-.02 2.02 1.57 3.7 3.59 3.79l27.54 1.26c.82.04 1.14-1.04.44-1.46l-22.41-13.49-9.08-.69zm55.21-1.24l2.66 10.26c.51 1.96 2.47 3.17 4.45 2.73l26.93-5.91c.8-.18.84-1.3.05-1.53l-25.14-7.23-8.95 1.68z"/><g><path class="st40" d="M308.54 276.61c-1.07 1.33 4.78 3.3 3.98 11.6-.84 8.78-1.29 6.47.92 14.7 1.59 5.94-1.85 11.86-2.85 17.93-.77 4.7.23 9.67 2.77 13.69.47.74 1.01 1.51 1.06 2.38.06 1.05-.58 2-1.11 2.91-2.93 5.12-3.11 12.36-8.24 15.26-4.28 2.42-9.55.36-14.42-.36-4-.6-8.23-.2-11.83 1.65-3.58 1.84-6.55 5.07-10.52 5.75-4.3.75-8.6-1.72-12.94-1.31-3.49.33-6.51 2.46-9.82 3.6-3.31 1.14-7.74.84-9.35-2.28-1.39-2.7-.14-6.62-2.46-8.58-2.17-1.82-5.46-.29-8.27-.68-2.33-.33-4.34-2.11-5.17-4.32-.83-2.2-.57-4.74.45-6.86.87-1.8 2.22-3.31 3.44-4.89 2.34-3.06 4.19-6.5 5.44-10.14.48-1.38.87-2.84.63-4.28-.64-3.79-5.39-6.06-5.5-9.9-.08-2.95 2.59-5.1 4.47-7.37 2.27-2.76 3.57-6.29 3.63-9.86.05-2.92-.71-5.79-.78-8.71-.18-7.16 4.34-14.06 10.67-17.27 6.32-3.2 11.73-7.93 15.76-13.75 7.41-10.7 13.87-22.48 29.55-23.42 4.99-.3 21.36 3.54 21.7 18.88.05 2.41-1.64 4.4-2.32 6.61-.95 3.09 7.33 5.86 6.99 9.11-.24 2.37-2.74 6.02-5.88 9.91z"/><path class="st23" d="M321.58 354.93l6.31 3.79s14.18 2.41 14.04 7.3l-18.65-.02s-.37-4.31-5.42-6.06l3.72-5.01z"/><path d="M292.04 285.61s-7.78 5.62-11.95-3.58c0 0 8.41 68.17 2.35 79.53 0 0 11.78 2.02 17.85 0 .01 0 4.03-66.39-8.25-75.95z" fill="#f8f4be"/><path class="st23" d="M370.91 438.76l4.18 9.56s13.38 6.09 11.39 10.67c-1.25.61-1.78 1.71-3.73 1.77-7.2.78-13.27-7.56-13.78-8.29-.37-1.12-.77-1.94-1.18-3.07-.71-1.93-1.66-4.5-2.64-7.18 0-.01 5.36-.88 5.76-3.46z"/><path class="st39" d="M294.61 284.3s16.67 3.59 10.5 33.95l1.61 22.44 15.18 13.22s-1.79 6.77-6.37 6.57l-8.56-5.56s-1.62-26.72-1.76-32.27c.01.01-2.13-29.37-10.6-38.35z"/><path class="st38" d="M292.04 285.61s13.31 21.33 6.57 79.81c0 0 7.93-.08 10.52-1.42 0 0-3.68-27.05-3.95-42.94 0 0 .29-28.11-10.57-36.76l-3.16-1.28.59 2.59z"/><path d="M340.24 370.45s7.97-.4 17.52 28.08l13.74 40.23s-2.99 4.58-8.16 3.19l-29.22-53.37s.96-13.59-11.21-18.12h17.33z" fill="#005991"/><path d="M263.44 363.75s-1.32 12.57 8.38 19.2c2.98 2.03 6.55 3.03 10.15 3.03h37.74s-3.78 27.68 2.19 59.74c0 0 4.38 2.79 8.96 0l2.79-53.77s4.75-21.53-13.77-22.72l-25.86-11.93-30.65.8.07 5.65z" fill="#006093"/><path class="st38" d="M280.09 282.03s-11.2 5.13-14.64 7.67c0 0 8.66 31.51 1.49 52.42 0 0-6.27 19.4-7.62 20.98 0 0 13.74 2.35 20.56 2.32 6.77-.03 6.74-52.49 1.07-77.2l-.86-6.19z"/><path class="st39" d="M271.86 295.67s-3.85-10.98-10.56-2.83c-1.26 1.54-1.99 3.45-2.08 5.43l-1.83 42.8s-.26 7.68 6.59 9.97L289 363.1s4.56-3.3 5.03-9.58l-23.5-12.75c.01.01 5.34-31.36 1.33-45.1z"/><path class="st23" d="M293.59 356.1l10.06 4.02c.63.25 1.29.38 1.97.38h6.95c1.08 0 2.14.24 3.12.71l7.04 3.36c1.04.5 1.58 1.66 1.28 2.78l-.28 1.03c-.23.83-1.05 1.36-1.9 1.2l-19.6-3.56-12.31-3.7c-.03 0 3.34-4.68 3.67-6.22z"/><path fill="#6ba4be" d="M379.86 336.2l-15.33 34-41.62.25 14.54-34.25z"/><path d="M291.21 371.43h73.22c.72 0 1.31-.59 1.31-1.31 0-.72-.59-1.31-1.31-1.31h-73.22c-.72 0-1.31.59-1.31 1.31-.01.72.58 1.31 1.31 1.31z" fill="#5e7d8f"/><path class="st21" d="M375.09 448.31s15.11 3.9 16.86 11.99c.33 1.52-.78 2.59-2.08 3.44-7.41 4.88-21.7-10.73-20.9-11.29 1.23 1.37 2.98 3.43 5.33 5.02 4.03 2.24 8.49 3.76 11.55 1 0 0 3.18-3.19-10.76-10.16z"/><path class="st23" d="M329.42 446.43l1.25 11.84s12.79 5.62 9.25 10.92c0 0-4.48 3.32-14.37-7.49-.9-.99-1.39-2.29-1.32-3.63.13-2.46.09-6.99-1.33-11.86.01.01 2.97 1.58 6.52.22z"/><path class="st21" d="M330.68 458.27s15.73 5.58 13.14 13.74c0 0-6.22 11.4-19.42-12.43 0 0 10.06 13.42 15.64 9.04 0 .01 2.58-4.77-9.36-10.35z"/><path class="st23" d="M292.76 277.8s-1.55 4.01-.72 7.82c.09.41-2.4 4.05-7.12 2.48-3.76-1.05-4.7-5.71-4.83-6.06.22-.92.36-2.03.45-3.27.13-1.83.29-4.48-.45-6.04 0-.01 6.6 6.8 12.67 5.07z"/><path class="st23" d="M302.52 251.55c.44 4.11 1.36 21.11-9.68 27.32 0 0-8.3 2.6-14.53-9.21-1.59-3.01-3.1-7.62-3.06-11.02.13-11.1 6.99-18.88 13.21-19.24 4.95-.29 10.29 4.08 13.54 10.35.29.57.46 1.18.52 1.8z"/><path class="st40" d="M252.93 271.17c2.11-2.3 4.65-4.25 6.34-6.89 2.2-3.44 2.69-7.65 3.86-11.56 3.18-10.61 10.08-19.62 21.11-20.55 11.04-.93 25 7.75 25.51 18.81.09 1.94-.79 5.78-.34 7.67.91 3.83 5.14 5.15 4.74 9.07-.54 5.23-7.94 8.52-6.89 13.68.62 3.04 4.2 5.47 2.78 8.55-.63 1.36-2.03 2.17-3.53 2.26-5.23.33-9.97-3.23-11.91-7.9-1.68-4.06 4.65-9.38 6.37-12.86 4.18-8.44-.4-22.89-4.06-21.67-.36-.29-10.5 15.33-20.78 9.74 1.8 1.9 3.63 3.85 4.61 6.28.98 2.42.91 5.45-.86 7.37-.93 1.01-2.21 1.61-3.27 2.47-2.49 2.01-3.63 5.22-5.68 7.68-4.36 5.22-13.12 5.95-18.28 1.52-1.59-1.36-2.87-3.2-3.17-5.27-.43-3.11 1.34-6.1 3.45-8.4z"/></g><g><path class="st34" d="M860.45 551.35c2.18 4.43 8.02 7.59 12.84 5.65.45 2.91-1.25 8.26-.8 11.17.2 1.25 5.31 2.94 6.5 3.62 3.22 1.82 6.44 3.64 9.67 5.46.45.26 1.33 1.28 1.86 1.21.93-.14-6.01-12.86.19-18.48 3.77-3.42 7.26-7.38 8.95-12.02 2.63-7.22-1.81-15.18-7.89-20.31-6.05-5.1-19.05-10.54-26.07-3.98-6.04 5.61-8.67 20.71-5.25 27.68z"/><path class="st33" d="M890.54 546.4c.88-2.6.72-6.02-1.84-7.34-3.62-1.86-8.83 2-12.01-.46-3.1-2.4-.04-7.39-1.83-10.75-1.14-2.14-3.88-2.99-6.22-3.98-3.22-1.37-6.2-3.48-7.75-6.44-1.54-2.95-1.35-6.82 1.1-9.19 3.62-3.52 10.01-2.38 14.6-.01 4.59 2.36 8.88 5.76 14.11 6.14 2.45.18 4.94-.33 7.35.1 3.91.71 7.03 4.15 7.11 7.84.02 1.07-.17 2.22.38 3.17.61 1.06 1.92 1.55 3.05 2.14 5.86 3.09 7.28 11.55 2.69 16.14-1.16 1.16-2.62 2.11-3.39 3.52-1.01 1.87-.56 4.09-.84 6.17-.67 5.08-6.11 9.24-11.46 7.8-8.74-2.37-7.11-8.77-5.05-14.85z"/><path class="st34" d="M843.84 556.3l-4.55-33.23-9.31-4.04s.19 20.75-1.06 30.86c0 .01 7.53 7.84 14.92 6.41z"/><path d="M858.5 522.1l-2.6 5.94c-.27.62-1.04.92-1.72.67l-70.91-26.65 6.89-15.87 67.77 34.4c.57.29.82.94.57 1.51z" fill="#00676a"/><path d="M782.84 492.8c-1.94 4.44-1.82 8.68.27 9.47 2.09.79 5.36-2.17 7.31-6.62 1.94-4.44 1.82-8.68-.27-9.47-2.09-.79-5.36 2.17-7.31 6.62z" fill="#98e5fa"/><path d="M858.58 521.77l2.97 2.69c.29.25.37.65.21.98l-1.47 3.05c-.17.35-.57.56-.99.5l-3.8-.47 3.08-6.75z" fill="#75e1e4"/><path class="st34" d="M839.29 555.69c-5.61-3.28-14.15-6.83-17.45-12.15-4.05-6.53-3.7-14.54-3.23-22.05.28-12.45 8.13-19.47 6.01-23.13-2.35-4.05-8.66-3.65-13.51-2.68-1.83.37-2.11 16.08-2.69 22.3-1.35 14.45-1.56 14.47-.08 28.71.86 8.33 15.33 21.15 21.01 24.72.3-4.75 5.57-13.23 9.94-15.72z"/><path class="st49" d="M845.63 793.52c0 4.51 8.92 8.16 19.93 8.16s19.93-3.66 19.93-8.16c0-4.51-8.92-8.16-19.93-8.16-11-.01-19.93 3.65-19.93 8.16z"/><path class="st34" d="M881.28 782.84l-.9 10.24s-6.21 2.7-9.09-1.1l-.32-10.36 10.31 1.22z"/><path class="st49" d="M882.24 785.73l-11.44-.78-19.22-128.96s20.05-11.47 41.95-3.33l-11.29 133.07z"/><path d="M835.61 799.88c.2 4.73 9.28 8.23 20.28 7.83s19.75-4.57 19.55-9.3c-.2-4.73-9.28-8.23-20.28-7.83-11 .41-19.75 4.57-19.55 9.3z" fill="#003d62"/><path class="st34" d="M868.74 785.42l3.63 9.71s-2.23 4.39-8.79 2.39l-4.8-9.36 9.96-2.74z"/><path d="M891.97 657.37s-47.13 58.91-33.74 92.94l10.52 35.11-9.95 2.74s-23.51-21.85-30.81-72.63c0 0-2.43-29.61 12.52-53.91-.02 0 21.4-13.14 51.46-4.25z" fill="#005595"/><path d="M893.54 666.8s-22-12.57-56.43-4.02c0 0 2.33-42.85 9.97-74.92l-18.48-14.14s3.23-15.99 12.48-18.71c0 0 43.36 16.59 49.38 22.5-.01.01 6.08 13.76 3.08 89.29z" fill="#4142f0"/></g></g></svg>