<svg id="Original_Colorway_copy" xmlns="http://www.w3.org/2000/svg" viewBox="0 0 310 54"><style>.st2{fill:#4c4c4c}</style><g id="Layer_3_copy"><path d="M41.01 46.72c20.69 0 37.46 1.01 37.46 2.25 0 1.25-16.77 2.25-37.46 2.25S3.55 50.21 3.55 48.97s16.77-2.25 37.46-2.25z" fill-rule="evenodd" clip-rule="evenodd" fill="#e1e1e1"/><path d="M12.88 21.65c-1.16-1.58-2.44-3.65-3.84-6.27-.8-1.39-.88-2.03.46-2.6L33.6 2.8c.68-.3 1.57-.3 2.15.74 3.24 4.79 5.6 8.16 8.95 11.79 5.16 5.34 10.83 11.13 20.68 15.33 3.11 1.15 6.14 2.09 9.73 2.7.14.02.8.34.75.91l-.1 5.63-16.72 9.6c-.85.74-1.66 1.39-3.56.78L5.74 39.93l-.01-3.33-3.94-1.02c-.3-.08-.31-.48-.06-.65l4.14-3.37c-.02-.65.17-1.06.49-1.47-1.81-.64-2.53-1.44-1.36-2.54l7.3-5.41.58-.49z" fill="#f60"/><path class="st2" d="M87.22 38.99V20.57c0-4.8 3.12-7.91 7.77-7.91 4.7 0 7.82 3.12 7.82 7.91v.91c0 .29-.19.53-.48.53l-1.58.1c-.29 0-.48-.19-.48-.48v-1.2c0-3.31-2.11-5.52-5.28-5.52-3.17 0-5.23 2.21-5.23 5.52v18.75c0 3.31 2.06 5.56 5.23 5.56 3.17 0 5.28-2.25 5.28-5.56v-1.1c0-.29.19-.48.48-.48l1.58.1c.29 0 .48.19.48.48V39c0 4.84-3.12 8.01-7.82 8.01-4.65-.01-7.77-3.18-7.77-8.02zM122.14 30.07v16.07c0 .29-.19.48-.48.48h-1.58c-.29 0-.48-.19-.48-.48v-1.73c0-.19-.14-.24-.24-.1-1.25 1.87-3.26 2.69-5.56 2.69-2.73 0-6.23-1.2-6.23-6.71 0-5.56 3.5-7.72 8.1-7.72h3.74c.1 0 .19-.1.19-.19v-2.21c0-3.5-1.63-5.85-4.46-5.85-2.21 0-4.08 1.53-4.32 3.79 0 .34-.19.48-.48.48l-1.73-.1c-.29 0-.48-.19-.43-.48.38-3.6 3.36-5.95 7-5.95 4.37 0 6.96 3.17 6.96 8.01zm-2.54 9.35v-4.56c0-.1-.1-.19-.19-.19h-3.74c-3.21 0-5.52 1.73-5.52 5.42 0 3.31 1.82 4.65 4.17 4.65 2.59.01 5.28-1.67 5.28-5.32zM126.98 40.76v-.29c0-.29.19-.48.48-.48h1.49c.29 0 .48.14.48.38v.38c0 2.25 1.77 4.03 4.46 4.03 2.59 0 4.27-1.73 4.27-4.22 0-2.97-2.49-3.98-5.08-5.04-2.78-1.15-5.95-2.54-5.95-6.91 0-3.93 2.69-6.38 6.67-6.38 4.12 0 6.71 2.64 6.71 6.38v.14c0 .29-.19.48-.48.48h-1.44c-.29 0-.48-.19-.48-.38v-.34c0-2.3-1.73-4.17-4.32-4.17s-4.22 1.77-4.22 4.22c0 2.78 2.3 3.74 4.8 4.84 2.88 1.2 6.33 2.64 6.33 7.05 0 3.84-2.69 6.38-6.81 6.38-4.22.03-6.91-2.52-6.91-6.07zM159.4 29.59v16.55c0 .29-.19.48-.48.48h-1.58c-.29 0-.48-.19-.48-.48V29.83c0-3.45-1.58-5.47-4.32-5.47-2.83 0-4.56 2.16-4.56 5.76v16.02c0 .29-.19.48-.48.48h-1.58c-.29 0-.48-.19-.48-.48V13.52c0-.29.19-.48.48-.48h1.58c.29 0 .48.19.48.48v11.27c0 .19.14.19.24 0 1.2-1.87 3.02-2.69 5.08-2.69 3.9.01 6.1 2.79 6.1 7.49zM164.44 38.42v-1.29c0-.29.19-.48.48-.48h3.55c.29 0 .48.19.48.48v1.05c0 2.97 1.63 4.84 3.93 4.84 2.25 0 3.98-1.82 3.98-4.6 0-2.93-1.92-4.27-5.37-6.81-3.69-2.73-7.15-5.28-7.15-10.5 0-5.23 3.45-8.44 8.3-8.44 5.13 0 8.49 3.55 8.49 8.87v1.2c0 .29-.19.48-.48.48h-3.55c-.29 0-.48-.19-.48-.48v-1.29c0-2.88-1.63-4.8-3.98-4.8-2.16 0-3.74 1.58-3.74 4.46 0 2.73 1.39 4.03 5.08 6.76 4.89 3.65 7.43 5.66 7.43 10.26 0 5.42-3.55 8.87-8.54 8.87-5.02 0-8.43-3.45-8.43-8.58zM201.56 29.69v16.45c0 .29-.19.48-.48.48h-3.64c-.29 0-.48-.19-.48-.48V30.07c0-2.69-1.2-4.22-3.26-4.22-2.21 0-3.5 1.63-3.5 4.41v15.87c0 .29-.19.48-.48.48h-3.64c-.29 0-.48-.19-.48-.48V13.52c0-.29.19-.48.48-.48h3.64c.29 0 .48.19.48.48v10.41c0 .14.14.19.29.05 1.29-1.58 3.12-2.11 4.84-2.11 4.03 0 6.23 2.88 6.23 7.82zM217.87 22.21h3.64c.29 0 .48.19.48.48v23.45c0 .29-.19.48-.48.48h-3.64c-.29 0-.48-.19-.48-.48v-1.39c0-.19-.14-.19-.24-.05-1.05 1.68-2.69 2.25-4.6 2.25-3.6 0-6.43-2.06-6.43-7.1V22.68c0-.29.19-.48.48-.48h3.65c.29 0 .48.19.48.48v16.16c0 2.78 1.15 4.12 3.26 4.12 2.16 0 3.41-1.68 3.41-4.41V22.68c-.01-.28.18-.47.47-.47zM245.59 22.01c0 .1.1.19.19.19h3.31c.29 0 .48.19.48.48v2.4c0 .29-.19.48-.48.48h-3.31c-.1 0-.19.1-.19.19v20.38c0 .29-.19.48-.48.48h-3.64c-.29 0-.48-.19-.48-.48V25.75c0-.1-.1-.19-.19-.19h-7.82c-.1 0-.19.1-.19.19v20.38c0 .29-.19.48-.48.48h-3.65c-.29 0-.48-.19-.48-.48V25.75c0-.1-.1-.19-.19-.19h-1.82c-.29 0-.48-.19-.48-.48v-2.4c0-.29.19-.48.48-.48h1.82c.1 0 .19-.1.19-.19v-1.92c0-5.37 2.35-7.48 7.58-7.34h.33c.29 0 .48.19.48.48v2.3c0 .29-.14.48-.38.48h-.43c-2.35.05-2.97 1.77-2.97 4.46V22c0 .1.1.19.19.19h7.82c.1 0 .19-.1.19-.19v-1.92c0-5.37 2.35-7.48 7.58-7.34h.34c.29 0 .48.19.48.48v2.3c0 .29-.14.48-.38.48h-.43c-2.35.05-2.97 1.77-2.97 4.46v1.55zm8.11-8.97h3.65c.29 0 .48.19.48.48v32.61c0 .29-.19.48-.48.48h-3.65c-.29 0-.48-.19-.48-.48V13.52c0-.28.19-.48.48-.48zM277.82 36.3h-10.84c-.1 0-.19.1-.19.19v2.59c0 2.3 1.44 3.93 3.45 3.93 1.82 0 3.07-1.25 3.41-2.93.1-.29.24-.38.53-.38l3.55.19c.29 0 .48.19.43.48-.43 4.09-3.16 6.63-7.91 6.63-4.94 0-8.06-2.97-8.06-7.58v-9.98c0-4.51 3.12-7.63 8.06-7.63 5.04 0 8.06 3.12 8.06 7.63v6.38c-.01.29-.2.48-.49.48zm-11.03-6.57v2.54c0 .1.1.19.19.19h6.57c.1 0 .19-.1.19-.19v-2.54c0-2.3-1.39-3.93-3.5-3.93-2.01 0-3.45 1.63-3.45 3.93z"/><path d="M74.54 34.14L56.33 44.43c-8.38-1.72-15.49-4.27-21.46-7.25 1.56.37 3.24.57 4.99.57 8.05 0 14.57-4.22 14.57-9.42 0-1.22-.36-2.38-1.01-3.44 6.28 4.76 13.47 8.38 21.12 9.25zM39.72 19.57c7.39 0 13.38 3.82 13.38 8.52s-5.99 8.52-13.38 8.52c-7.39 0-13.38-3.82-13.38-8.52s5.99-8.52 13.38-8.52zm8.75 1.17c-2.41-1.14-5.39-1.82-8.62-1.82-8.05 0-14.57 4.22-14.57 9.42 0 1.46.51 2.84 1.43 4.07C17.94 26.4 12.7 19.6 10.23 14.26L34.51 3.74c3.11 5.18 7.96 11.47 13.96 17zm-10.02-.24l-.61 1.86-1.92-.13-.44 1.15c1.17.11 1.68-.03 1.4.87l-1.81 5.88c-.19.63-.35.51-1.18.39l-.97-.14-.55 1.65 2.02.34-.6 2.08 2.66.46.61-2.12 2.17.3-.55 2.16 2.6.34.52-2.2c.73.05.71.01 1.21-.06.88-.11 1.61-.36 2.18-.74.57-.38.98-1.04 1.13-1.57.13-.45.06-1.06-.12-1.46-.19-.41-.5-.76-.94-1.03-.31-.2-.76-.41-1.38-.63 1.07-.09 1.71-.41 2.38-1.05.68-.65.82-1.5.38-2.25-.54-.92-1.66-1.34-2.82-1.61l.44-1.95-1.73-.17-.55 1.93-2-.2.52-1.86-2.05-.24zm.44 5.94l.77-2.64 1.56.18c.89.1 1.5.27 1.82.4 1.36.55.91 2.26-.81 2.41-.41.04-1.01 0-1.81-.12l-1.53-.23zm-.43 1.47l1.8.28c.79.12 1.36.26 1.71.43.35.16.6.37.73.6.13.24.16.51.07.81-.1.35-.32 1.01-.67 1.22-.34.21-.72.33-1.13.35-.41.02-.91-.03-1.5-.12-.19-.03-1.92-.28-1.93-.31l.92-3.26zm-3.81 11.83c2.76.58 4.37.89 5.88 1.1 4.17 1.34 7.82 2.45 11.98 3.46-5.92-.86-11.78-2.65-17.86-4.56zm27.76 1.88l12.81-7.43c.17-.14.16-.25-.14-.3-6.15-1.04-12.42-3.12-18.95-7.61-2.5-1.77-8.5-6.94-11.39-10.07-3.37-3.65-6.22-7.78-9.48-12.36-.21-.37-.37-.6-.56-.68-.18-.08-.42-.04-.8.13L10.46 13c-1.46.62-1.42 1.07-.65 2.39 3.63 7.64 10.16 14.12 16.79 18.53.93 1.85 2.33 3.66 5.59 5.03-7.35-2.63-16.03-6.06-25.8-10.66l5.1-3.75-.63-.41-5.06 3.72c-.74.74-.47 1.06.08 1.32 5.82 2.92 28.97 12.23 40.06 15.09-7.7-1.68-32.32-10.1-39.55-13.22-.44.57-.16 1.2.45 1.46l.57.18c2.31.73 20.34 7.02 23.89 7.83-4.12-.61-23.24-6.49-25.11-7.25l.07 1 26.38 7.51 2.55.97-30.03-7.3c-1.29-.33-2.12-.32-1.21-1.71L2.35 35c-.16.1-.15.25.04.29l34.4 8.5 1.45.64-32-7.44.02.69 24.77 5.69 2.57 1-27.34-5.8-.02.75L55.8 49.58c.7.15 1.65.15 2.33-.38l16.85-9.75-5.24 2.25L75 38.6l-9.44 4.11 9.41-5.03-4.88 1.94 4.86-2.99-8.01 3.7 8.03-4.78-12.56 6.07z" fill="#fefefe"/></g></svg>