<?xml version="1.0" standalone="no"?>
<!DOCTYPE svg PUBLIC "-//W3C//DTD SVG 20010904//EN"
 "http://www.w3.org/TR/2001/REC-SVG-20010904/DTD/svg10.dtd">
<svg version="1.0" xmlns="http://www.w3.org/2000/svg"
 width="326.000000pt" height="326.000000pt" viewBox="0 0 326.000000 326.000000"
 preserveAspectRatio="xMidYMid meet">
<metadata>
Created by potrace 1.11, written by Peter Selinger 2001-2013
</metadata>
<g transform="translate(0.000000,326.000000) scale(0.100000,-0.100000)"
fill="#000000" stroke="none">
<path d="M1085 2539 c-159 -66 -393 -163 -520 -216 -231 -95 -265 -113 -265
-141 0 -18 65 -139 127 -236 25 -38 47 -75 50 -82 2 -7 -66 -65 -171 -143
-123 -91 -176 -137 -176 -150 0 -21 44 -61 66 -61 17 0 17 0 -1 -43 -9 -22
-44 -59 -99 -103 -47 -38 -86 -74 -86 -80 0 -7 40 -22 90 -34 l89 -22 3 -71 3
-72 225 -46 c299 -61 721 -149 955 -199 105 -23 296 -63 425 -90 129 -27 298
-63 375 -80 165 -36 194 -37 229 -9 14 11 67 44 116 72 49 29 209 121 355 206
l266 153 -3 131 c-3 152 15 130 -146 167 -351 80 -648 244 -954 526 -203 187
-333 338 -508 588 -94 135 -114 157 -143 156 -7 -1 -142 -55 -302 -121z"/>
</g>
</svg>
